<svg
 xmlns="http://www.w3.org/2000/svg"
 xmlns:xlink="http://www.w3.org/1999/xlink"
 width="28px" height="27px">
<path fill-rule="evenodd"  fill="rgb(250, 254, 255)"
 d="M26.989,25.134 L24.076,25.134 C23.930,25.134 23.786,25.103 23.654,25.041 L21.306,23.951 L21.306,25.307 C21.306,25.859 20.858,26.308 20.305,26.308 L5.004,26.308 C4.452,26.308 4.003,25.859 4.003,25.307 L4.003,20.384 L1.938,20.384 C1.385,20.384 0.937,19.935 0.937,19.382 L0.937,16.019 C0.937,15.466 1.385,15.017 1.938,15.017 L20.305,15.017 C20.858,15.017 21.306,15.466 21.306,16.019 L21.306,17.882 L23.654,16.792 C23.786,16.731 23.930,16.699 24.076,16.699 L26.989,16.699 C27.542,16.699 27.991,17.147 27.991,17.700 L27.991,24.133 C27.991,24.686 27.542,25.134 26.989,25.134 ZM19.303,19.662 L17.288,19.662 C16.919,19.662 16.620,19.363 16.620,18.994 C16.620,18.625 16.919,18.327 17.288,18.327 L19.303,18.327 L19.303,17.020 L2.939,17.020 L2.939,18.327 L14.242,18.327 C14.611,18.327 14.910,18.625 14.910,18.994 C14.910,19.363 14.611,19.662 14.242,19.662 L6.006,19.662 L6.006,24.305 L19.303,24.305 L19.303,19.662 ZM25.988,18.702 L24.296,18.702 L21.727,19.894 L21.727,21.939 L23.255,22.648 L23.255,20.670 C23.255,20.301 23.555,20.003 23.923,20.003 C24.291,20.003 24.591,20.301 24.591,20.670 L24.591,23.132 L25.988,23.132 L25.988,18.702 ZM18.420,13.769 C15.981,13.769 13.845,12.467 12.654,10.526 C11.463,12.467 9.327,13.769 6.888,13.769 C3.157,13.769 0.120,10.733 0.120,7.001 C0.120,3.270 3.157,0.234 6.888,0.234 C9.327,0.234 11.463,1.536 12.654,3.477 C13.845,1.536 15.981,0.234 18.420,0.234 C22.152,0.234 25.188,3.270 25.188,7.001 C25.188,10.733 22.152,13.769 18.420,13.769 ZM6.888,2.236 C4.261,2.236 2.123,4.374 2.123,7.001 C2.123,9.629 4.261,11.767 6.888,11.767 C9.515,11.767 11.653,9.629 11.653,7.001 C11.653,4.374 9.515,2.236 6.888,2.236 ZM18.420,2.236 C15.793,2.236 13.655,4.374 13.655,7.001 C13.655,9.629 15.793,11.767 18.420,11.767 C21.048,11.767 23.185,9.629 23.185,7.001 C23.185,4.374 21.048,2.236 18.420,2.236 ZM18.420,9.145 C17.239,9.145 16.277,8.184 16.277,7.001 C16.277,5.819 17.239,4.857 18.420,4.857 C19.603,4.857 20.565,5.819 20.565,7.001 C20.565,8.184 19.603,9.145 18.420,9.145 ZM18.420,6.192 C17.974,6.192 17.612,6.555 17.612,7.001 C17.612,7.448 17.974,7.810 18.420,7.810 C18.867,7.810 19.229,7.448 19.229,7.001 C19.229,6.555 18.867,6.192 18.420,6.192 ZM6.888,9.145 C5.706,9.145 4.744,8.184 4.744,7.001 C4.744,5.819 5.706,4.857 6.888,4.857 C8.070,4.857 9.032,5.819 9.032,7.001 C9.032,8.184 8.070,9.145 6.888,9.145 ZM6.888,6.192 C6.442,6.192 6.079,6.555 6.079,7.001 C6.079,7.448 6.442,7.810 6.888,7.810 C7.334,7.810 7.697,7.448 7.697,7.001 C7.697,6.555 7.334,6.192 6.888,6.192 Z"/>
</svg>
