<?xml version="1.0" encoding="iso-8859-1"?>
<!-- Generator: Adobe Illustrator 21.1.0, SVG Export Plug-In . SVG Version: 6.00 Build 0)  -->
<svg version="1.1" id="&#x421;&#x43B;&#x43E;&#x439;_1"
	 xmlns="http://www.w3.org/2000/svg" xmlns:xlink="http://www.w3.org/1999/xlink" x="0px" y="0px" viewBox="0 0 142.712 134.347"
	 style="enable-background:new 0 0 142.712 134.347;" xml:space="preserve">
<g>
	<path style="fill:#D83D5A;" d="M0,70.991c0-2.666,0-5.333,0-7.999c0.455-1.38,1.011-2.736,1.349-4.144
		c5.097-21.248,28.094-43.14,56.346-25.258c5.587,3.536,9.911,2.97,14.764-1.194c10.375-8.904,22.568-12.254,36.179-11.187
		c15.779,1.238,29.392,11.979,32.792,26.355c3.55,15.009-0.354,28.494-10.733,39.217c-9.78,10.104-20.582,19.407-31.867,27.809
		c-9.953,7.411-21.154,13.16-31.927,19.431c-1.083,0.63-3.297,0.267-4.52-0.441c-11.07-6.409-22.393-12.474-32.932-19.679
		C18.773,106.6,9.993,97.126,4.663,85.065C2.674,80.566,1.53,75.694,0,70.991z"/>
	<path style="fill:#D83D5A;" d="M74.991,0c8.102,6.601,8.498,11.625,0.437,18.575c-11.668,10.06-10.726,10.427-22.039-1.154
		c-1.679-1.718-3.5-4.099-3.658-6.288c-0.177-2.457,0.824-5.681,2.513-7.37c1.295-1.295,5.366-1.826,6.618-0.787
		c4.183,3.471,7.133,2.65,10.25-1.091C69.814,1.042,71.018,0.617,71.991,0C72.991,0,73.991,0,74.991,0z"/>
</g>
</svg>
