<?xml version="1.0" encoding="iso-8859-1"?>
<!-- Generator: Adobe Illustrator 21.1.0, SVG Export Plug-In . SVG Version: 6.00 Build 0)  -->
<svg version="1.1" id="&#x421;&#x43B;&#x43E;&#x439;_1"
	 xmlns="http://www.w3.org/2000/svg" xmlns:xlink="http://www.w3.org/1999/xlink" x="0px" y="0px" viewBox="0 0 196.198 178.086"
	 style="enable-background:new 0 0 196.198 178.086;" xml:space="preserve">
<g>
	<path style="fill:#D83D5A;" d="M101.516,0c5.571,2.532,10.245,5.935,9.663,12.857c-0.223,2.648-1.014,5.941-2.79,7.637
		c-5.606,5.351-11.71,10.205-17.859,14.943c-1.038,0.8-3.877,0.774-4.821-0.065c-5.546-4.937-11.16-9.907-15.921-15.564
		c-1.829-2.173-2.266-6.266-1.948-9.34c0.677-6.544,8.228-10.293,13.359-6.348c4.983,3.831,8.502,4.663,12.454-0.892
		c1.053-1.48,3.212-2.172,4.863-3.226C99.516,0,100.516,0,101.516,0z"/>
	<path style="fill:#D83D5A;" d="M67.899,164.24c22.512,10.251,42.513,8.159,61.105-6.819c14.587-11.751,26.885-25.359,35.156-42.273
		c3.061-6.26,4.939-12.62,3.947-20.109c-3.546-26.771-34.874-30.667-48.76-15.987c-4.571,4.832-9.447,9.408-14.469,13.773
		c-7.453,6.479-12.886,6.906-21.324,1.701c-5.093-3.142-9.921-6.723-14.804-10.196c-24.073-17.119-43.674-1.079-48.583,18.312
		c-1.111,4.389-0.489,9.65,0.741,14.124c5.8,21.108,19.382,36.829,36.031,50.262c1.149,0.927,2.339,1.803,3.552,2.735
		c-0.351,0.28-0.635,0.593-0.707,0.551c-18.754-11.181-35.972-24.154-48.244-42.621c-17.684-26.61-14.855-56.107,7.197-77.095
		c15.298-14.56,34.327-17.566,53.387-8.359c3.291,1.59,6.593,3.237,9.637,5.242c5.159,3.399,9.824,3.295,14.506-0.867
		c2.356-2.095,4.948-3.957,7.576-5.71c21.551-14.372,44.172-16.738,67.508-4.99c19.873,10.006,26.602,30.221,24.471,49.968
		c-1.633,15.125-8.379,27.946-17.726,39.497c-17.268,21.337-38.722,37.447-63.481,49.064
		C98.934,181.801,80.855,177.818,67.899,164.24z"/>
</g>
</svg>
