<?xml version="1.0" standalone="no"?>
<!DOCTYPE svg PUBLIC "-//W3C//DTD SVG 1.1//EN" "http://www.w3.org/Graphics/SVG/1.1/DTD/svg11.dtd" >
<svg>
<metadata>
Created by FontForge 20090622 at Fri Nov 24 15:04:34 2017
 By deploy user
Copyright (c) Ryoichi Tsunekawa, Flat it type foundry, 2006. All rights reserved.
</metadata>
<defs>
<font id="Machia" horiz-adv-x="500" >
  <font-face
    font-family="Machia"
    font-weight="400"
    font-stretch="normal"
    units-per-em="1000"
    panose-1="2 0 5 5 0 0 0 2 0 2"
    ascent="800"
    descent="-200"
    x-height="264"
    cap-height="762.5"
    bbox="-610.571 -550.279 1459.5 924.818"
    underline-thickness="50"
    underline-position="-50"
    unicode-range="U+0020-U+2122"
  />
<missing-glyph
d="M100 300h300v-300h-300v300zM184 94q-4 -8 2.5 -9t10.5 8q15 34 45 52.5t59 32.5q24 11 33.5 24t9 24t-8.5 19t-19 9q-29 4 -47.5 -8t-26.5 -26q-5 -9 -4 -14.5t5 -7t9.5 1t9.5 8.5q5 7 4 10t4 11q6 9 16 15t25 2q6 -2 9 -7t-1 -14t-16 -21t-36 -28q-29 -19 -48 -35
t-35 -47zM168 64q-18 -22 -6 -25q11 -2 15 7.5t5 12.5q4 10 -2.5 10t-11.5 -5z" />
    <glyph glyph-name=".notdef"
d="M100 300h300v-300h-300v300zM184 94q-4 -8 2.5 -9t10.5 8q15 34 45 52.5t59 32.5q24 11 33.5 24t9 24t-8.5 19t-19 9q-29 4 -47.5 -8t-26.5 -26q-5 -9 -4 -14.5t5 -7t9.5 1t9.5 8.5q5 7 4 10t4 11q6 9 16 15t25 2q6 -2 9 -7t-1 -14t-16 -21t-36 -28q-29 -19 -48 -35
t-35 -47zM168 64q-18 -22 -6 -25q11 -2 15 7.5t5 12.5q4 10 -2.5 10t-11.5 -5z" />
    <glyph glyph-name="space" unicode=" " horiz-adv-x="400"
 />
    <glyph glyph-name="space" unicode="&#xa0;" horiz-adv-x="400"
 />
    <glyph glyph-name="exclam" unicode="!" horiz-adv-x="331"
d="M100 75q6 9 15.5 13t18 2.5t12.5 -9.5t0 -23l-4 -15.5t-9.5 -23t-17.5 -19t-28 -3.5q-21 4 -14.5 25t27.5 53zM528 616q-25 -21 -56 -52.5t-63.5 -69.5t-65 -80t-60.5 -84.5t-50.5 -84t-34.5 -76.5q-5 -14 -14.5 -18.5t-18 -2t-13.5 9.5t1 17l44 73l53.5 88l59 94
t61 90.5t59.5 77t54 54.5q15 12 33 15.5t28 -1.5t8.5 -17.5t-25.5 -32.5z" />
    <glyph glyph-name="quotedbl" unicode="&#x22;" horiz-adv-x="317"
d="M254 517q1 12 10 14t19.5 -2t17.5 -13t3 -19q-3 -9 -10.5 -25t-17 -34t-20 -34t-18.5 -24t-16 -11t-13 -1.5t-5.5 7.5t6.5 17q5 8 12 23t13.5 32.5t11.5 36t7 33.5zM348 517q0 12 9.5 14t19.5 -2t17.5 -13t3.5 -19q-3 -9 -10.5 -25t-17 -34t-19.5 -34t-18 -24t-16 -11
t-13 -1.5t-5.5 7.5t6.5 17q5 8 12 23t13.5 32.5t11.5 36t6 33.5z" />
    <glyph glyph-name="numbersign" unicode="#" horiz-adv-x="513"
d="M303 626q-8 0 -9 5t2 10.5t10 10t15 3.5q12 -2 26.5 -3t31.5 -2l49 79t43 65q11 16 25 21.5t22.5 1.5t7.5 -18t-21 -38l-43.5 -55l-42.5 -57q23 -1 45.5 -0.5t43.5 2.5l48.5 78.5t42.5 64.5q11 16 25 21.5t22.5 1.5t7.5 -18t-21 -38l-42 -52.5t-41 -55.5q16 1 27.5 2
t17.5 2q13 1 18.5 -3.5t4 -10t-9 -10.5t-19.5 -5q-14 0 -28 0.5t-28 0.5l-32.5 -48l-29.5 -47q20 1 34.5 2t22.5 2q13 1 18.5 -3.5t4 -10t-9 -10.5t-19.5 -5q-16 0 -32 0.5t-33 0.5q-34 -57 -60 -122q-7 -16 -21.5 -26t-25 -9t-12 13.5t17.5 41.5l30.5 48.5l33.5 53.5h-47.5
t-43.5 -1q-17 -30 -32 -60.5t-28 -60.5q-7 -16 -21.5 -26t-25 -9t-12 13.5t17.5 41.5l30 48l33 52q-17 0 -28.5 -0.5t-16.5 -0.5q-8 0 -11 5t-1.5 10.5t7 10t13.5 3.5q11 -2 24 -3l27 -2l30 48.5l30 48.5q-23 0 -39 -1t-23 -1zM405 628l-33 -48.5l-31 -49.5q23 -1 47 -0.5
t46 2.5l30 48.5l30 48.5q-23 1 -45.5 0.5t-43.5 -1.5z" />
    <glyph glyph-name="dollar" unicode="$" horiz-adv-x="693"
d="M799 805l-42 -56.5l-42 -58.5q53 -8 63 -43.5t-12 -89.5q-12 -28 -26 -48.5t-28 -32t-27 -13.5t-22 7q-13 12 -10 24.5t12.5 25.5t23 25t21.5 23q10 18 17 35t7.5 30.5t-7.5 23t-26 14.5l-97.5 -142.5l-96.5 -149.5l37.5 -42.5t28.5 -45.5t8 -53t-25 -66
q-18 -29 -42.5 -57.5t-58.5 -52.5t-76.5 -41t-96.5 -21l-70 -132.5l-62 -125.5q-8 -16 -24 -25.5t-28.5 -9t-16.5 13t13 41.5l70 120l70 118q-20 2 -40 9.5t-35.5 22.5t-23 37.5t-2.5 54.5q3 26 11 47.5t19 35t25 18t28 -2.5q13 -6 14.5 -15t-3 -21t-13.5 -27.5t-18 -34.5
q-19 -38 -9 -68t59 -37l101 170l101 165q-17 19 -32.5 38.5t-24 41.5t-7 48t18.5 58q21 39 52.5 67t66.5 46t70 27t64 12l46 76l47 74q10 15 26 20.5t27 0.5t13 -19.5t-16 -38.5zM484 155q18 28 23.5 52t2.5 44.5t-13.5 38.5t-23.5 35l-93 -153.5l-87 -151.5q59 8 107 43.5
t84 91.5zM475 560q-14 -25 -18.5 -46t-2.5 -39.5t9.5 -34.5t18.5 -31l162 264q-20 -2 -42.5 -8t-44.5 -19t-43 -34t-39 -52z" />
    <glyph glyph-name="percent" unicode="%" horiz-adv-x="959"
d="M808 660q13 19 36 26.5t39 4.5t16.5 -15t-32.5 -30l-158 -138.5l-125 -114l-101.5 -98l-86.5 -89l-80.5 -89l-83.5 -96.5q-14 -16 -33.5 -26t-32.5 -9t-11.5 13.5t29.5 41.5l111.5 113l120 120l142 140.5l177.5 174.5q-48 -20 -101 -31t-98 -5q-1 -29 -16.5 -63
t-40.5 -67.5t-57 -62.5t-67.5 -47.5t-72 -23.5t-68.5 11q-31 15 -35 51t12 80.5t48.5 91t75 83.5t91 58t97.5 13q9 -2 13 -8.5t2.5 -15t-9.5 -16.5t-23 -12q33 -9 44 -36q34 -11 72 -9.5t75.5 12.5t71.5 29t59 39zM774 369q15 -3 16.5 -17.5t-14.5 -25.5q29 -16 34.5 -47.5
t-7 -69t-39.5 -76.5t-62.5 -70.5t-76.5 -50.5t-81 -17q-41 2 -61.5 20.5t-24 47t7.5 64t33 72t53 70t67.5 58t76 36.5t78.5 6zM545 25q26 -5 58.5 11.5t63.5 44.5t57.5 63.5t40.5 69.5t12.5 61.5t-25.5 40.5q-8 -2 -13 -2q-29 -2 -56.5 -14.5t-57.5 -35.5
q-35 -26 -63.5 -64.5t-43 -75.5t-10 -65t36.5 -34zM246 330q16 -15 41 -10.5t53 22t55.5 45t50 58.5t36.5 62t15 56q-8 3 -17.5 8t-17 12.5t-11.5 16.5t0 20q-24 -4 -48 -16t-49 -32q-34 -28 -62 -63t-44 -69.5t-18 -64t16 -45.5z" />
    <glyph glyph-name="ampersand" unicode="&#x26;" horiz-adv-x="1132"
d="M928 356q11 -4 13 -16t-4 -23.5t-19.5 -18.5t-32.5 -1q-27 9 -52.5 -5t-53.5 -41t-59.5 -63t-70.5 -72q37 -26 85.5 -45t99.5 -22t100 15t86 66q7 10 13 11.5t8.5 -2.5t0.5 -12t-9 -16q-42 -48 -99.5 -74t-118 -30.5t-118.5 12.5t-101 55q-42 -31 -93.5 -53t-116.5 -28
q-59 -6 -109 10t-82.5 47.5t-42 76t12.5 95.5q19 45 52.5 79t75.5 60.5t89.5 46.5t95.5 37q11 50 37 95.5t69 83.5q33 30 68 44t65 15t52.5 -9t31 -28.5t0.5 -44.5t-38 -56q-21 -21 -49.5 -38t-61 -32t-67.5 -29l-71 -28q-6 -42 0.5 -82.5t22 -78t40 -70.5t55.5 -58
q45 42 80.5 89.5t68.5 84t68 54t79 -0.5zM471 401q-35 -15 -68.5 -31.5t-62 -36.5t-51 -44t-37.5 -53q-14 -28 -17.5 -59t4.5 -59.5t28 -51t53.5 -34t81 -8.5t110.5 27q37 13 70 37q-29 28 -52 64.5t-37.5 77t-20.5 84t-1 87.5zM634 630q-50 -40 -74.5 -81t-36.5 -88
q31 10 62 21.5t59 23.5t51.5 24t38.5 25q45 37 48 63.5t-18.5 38t-58.5 6t-71 -32.5z" />
    <glyph glyph-name="quoteright" unicode="&#x2019;" horiz-adv-x="182"
d="M252 513q2 10 12 13t20.5 0t17 -11.5t1.5 -19.5q-20 -44 -43 -65.5t-62 -33.5q-15 -5 -23 -2t-9.5 9t3.5 11.5t18 7.5q22 3 34 12t18 22t8 27.5t5 29.5z" />
    <glyph glyph-name="parenleft" unicode="(" horiz-adv-x="550"
d="M319 326q70 102 139.5 181.5t130.5 137.5t110 95t77 54q12 6 20 4.5t11.5 -6.5t1.5 -12t-10 -11q-41 -22 -83.5 -56.5t-83.5 -75.5t-79 -86l-71 -87.5t-58.5 -78.5t-40.5 -60l-85.5 -137t-67.5 -125t-42 -110t-9 -91q1 -12 -2.5 -19t-8.5 -9t-10.5 3t-7.5 17
q-3 15 -2.5 52.5t15.5 96.5t51 139.5t105 183.5z" />
    <glyph glyph-name="parenright" unicode=")" horiz-adv-x="550"
d="M475 310q-70 -102 -139.5 -181.5t-130.5 -137.5t-110 -95t-77 -54q-12 -6 -20 -5t-11 5.5t-1 10.5t9 9q42 20 84.5 54.5t83.5 76t79 87t70.5 88.5t58 80.5l41.5 62.5l87 139.5t67 125t40 108.5t6 90q-2 9 2 16t10 9.5t12 -1.5t8 -16q3 -15 2.5 -52.5t-15.5 -96.5
t-51 -139.5t-105 -183.5z" />
    <glyph glyph-name="asterisk" unicode="*"
d="M531 721q16 10 25.5 8t12.5 -8.5t-0.5 -14.5t-13.5 -11q-45 -14 -79 -26t-66 -26q12 -18 25.5 -34.5l26.5 -31.5q10 -12 8.5 -22t-8.5 -14.5t-15.5 -3.5t-11.5 11q-14 46 -36 79q-14 -24 -23 -47t-16 -48q-5 -17 -14 -24t-17 -6t-11 10t5 23l26.5 46l27.5 45
q-23 -13 -46 -29t-49 -37q-16 -13 -26 -12.5t-12 7.5t3.5 17.5t20.5 18.5q30 16 58.5 29l57.5 26q-9 11 -19 22t-23 23q-14 13 -12.5 23.5t9 15.5t17 4t12.5 -11q5 -15 13 -31t18 -32q14 21 26.5 42t23.5 42q7 13 17 17t18 2t11 -8.5t-6 -15.5l-36.5 -39.5t-29.5 -35.5
l53.5 26.5t54.5 30.5z" />
    <glyph glyph-name="plus" unicode="+"
d="M158 312q-8 0 -11 5.5t-2 11.5t6 10.5t13 3.5q23 -4 55 -5.5t67 -0.5l35.5 63.5l40.5 69.5q10 15 21.5 18.5t18 -2t5 -18.5t-16.5 -31q-11 -14 -29 -40.5t-37 -58.5q43 1 77.5 3t46.5 4q13 1 18.5 -3.5t5 -10.5t-7.5 -11.5t-20 -5.5q-30 1 -64.5 1.5t-68.5 -0.5
q-20 -34 -36.5 -68t-27.5 -62q-6 -16 -17.5 -23t-20.5 -4.5t-11 14.5t11 33l35.5 58.5l29.5 50.5q-42 0 -74 -1t-42 -1z" />
    <glyph glyph-name="comma" unicode="," horiz-adv-x="280"
d="M66 46q7 9 17.5 11.5t20 -1.5t15.5 -12t4 -20q-6 -34 -30.5 -55t-53.5 -30q-14 -5 -22.5 -1.5t-11 9.5t2 11.5t16.5 6.5q25 2 31.5 10.5t6 20t-2.5 25t7 25.5z" />
    <glyph glyph-name="hyphen" unicode="-"
d="M153 152q-8 0 -11 5t-2 11.5t6 11t13 3.5q30 -5 61 -5.5t59.5 0.5t50.5 3.5t34 3.5q13 1 18.5 -4t5 -11t-8 -11t-19.5 -5q-78 2 -132.5 0.5t-74.5 -2.5z" />
    <glyph glyph-name="hyphen" unicode="&#xad;"
d="M153 152q-8 0 -11 5t-2 11.5t6 11t13 3.5q30 -5 61 -5.5t59.5 0.5t50.5 3.5t34 3.5q13 1 18.5 -4t5 -11t-8 -11t-19.5 -5q-78 2 -132.5 0.5t-74.5 -2.5z" />
    <glyph glyph-name="period" unicode="." horiz-adv-x="280"
d="M110 8q-8 -6 -18.5 -9t-19.5 -1.5t-14 8.5t-1 21q3 10 13.5 22.5t36.5 8.5q10 -2 14.5 -8t3.5 -14t-5 -15.5t-10 -12.5z" />
    <glyph glyph-name="slash" unicode="/" horiz-adv-x="739"
d="M1062 805l-183.5 -163l-191 -177l-192 -185l-185.5 -186.5l-173 -181.5l-154 -170q-14 -16 -34 -25.5t-32.5 -9t-11.5 13t30 41.5l565 563.5l527 516.5q17 15 35 20.5t27 0.5t5 -19.5t-32 -38.5z" />
    <glyph glyph-name="zero" unicode="0" horiz-adv-x="528"
d="M523 265q-76 -129 -163 -201t-165 -79q-44 -4 -77 14.5t-46.5 60.5t-3.5 107.5t52 156.5q32 69 81 134.5t107 114.5t120 75.5t121 18.5q14 -2 19 -14t-2 -26q32 -20 41.5 -58t2 -86.5t-30.5 -105t-56 -112.5zM498 589q-74 -5 -142 -62q-54 -50 -101 -108.5t-79 -119.5
q-49 -95 -59.5 -157.5t6.5 -93.5t56 -32t88 26t103 81.5t101 134.5q33 55 59 110.5t39.5 103.5t11 84.5t-26.5 54.5q-9 -8 -22.5 -14.5t-33.5 -7.5z" />
    <glyph glyph-name="one" unicode="1" horiz-adv-x="429"
d="M175 469q97 0 167.5 47.5t117.5 133.5q9 17 26.5 21t30 -3t12 -23.5t-27.5 -41.5q-17 -16 -28.5 -29.5t-24.5 -32.5l-91 -131l-89.5 -137t-76.5 -130.5t-52 -111.5q-9 -23 -26.5 -33.5t-32 -9t-20 14.5t9.5 37q21 39 53.5 91.5l71 113l81 125.5l83.5 127
q-27 -13 -50.5 -22.5l-61.5 -25.5q-35 -14 -56 -13t-29.5 8.5t-4.5 16t18 8.5z" />
    <glyph glyph-name="two" unicode="2" horiz-adv-x="557"
d="M-10 17q50 72 103.5 126t110.5 100t118 88l126 90q66 49 98 87.5t40 66t-2.5 43.5t-29.5 21q-45 10 -78 -8.5t-64 -52.5q-9 -9 -10.5 -15t-0.5 -11t1 -11.5t-5 -18.5q-8 -18 -25.5 -25.5t-31.5 -3t-19.5 21t10.5 46.5q10 20 31 41.5t50.5 38t67 24t82.5 -0.5
q21 -4 40 -16t31 -30.5t15 -43t-8.5 -52t-40 -57.5t-78.5 -61l-127.5 -75.5t-124.5 -77t-111 -82.5t-86 -94q32 23 58.5 33.5t48 12.5t37.5 -4t26 -16q34 -34 60 -44t46.5 -3.5t37 25t31.5 41.5q10 15 16.5 28.5t8.5 29.5q1 9 6 13t11 5t11 -2.5t6 -9.5q2 -8 -2 -18t-9 -18
q-23 -39 -56.5 -77t-71 -58.5t-77 -15t-74.5 52.5q-15 21 -36.5 23.5t-43.5 -7t-42.5 -27t-34.5 -36.5q-8 -11 -17.5 -13.5t-16.5 0.5t-9.5 10.5t4.5 16.5z" />
    <glyph glyph-name="three" unicode="3" horiz-adv-x="571"
d="M454 393q39 -2 61 -21t28 -49t-3 -67.5t-33 -77.5q-25 -41 -63.5 -79.5t-85 -64.5t-98 -36t-102.5 5q-25 7 -42.5 17.5t-28.5 22t-17.5 23t-9.5 20.5q-7 18 1 35.5t22 27t29.5 8t23.5 -19.5q9 -20 6.5 -39t-2.5 -34t8 -26t38 -16q36 -6 73 7.5t73 41.5t68 67.5t57 84.5
q19 34 26 65.5t1 53.5t-26 31.5t-54 -0.5q-18 -5 -27.5 -2.5t-12.5 7.5t0.5 11t11.5 7q44 6 81.5 26t66.5 46.5t48 56t25.5 55.5t0 44.5t-28.5 22.5q-34 6 -60 -7.5t-52 -45.5q-5 -6 -7 -11.5t-2.5 -10.5t-2 -10.5t-5.5 -11.5q-12 -17 -28.5 -18.5t-28 6.5t-13 24.5
t16.5 36.5q40 45 87.5 60.5t102.5 7.5q44 -6 64.5 -26t21.5 -46.5t-15 -57.5t-44.5 -59t-67 -51t-82.5 -34z" />
    <glyph glyph-name="four" unicode="4" horiz-adv-x="577"
d="M514 256q15 0 14.5 -8t-9 -18t-21.5 -17.5t-23 -6.5l-44 3.5t-52 3.5q-31 -52 -55 -98t-38 -84q-8 -21 -24 -30.5t-30.5 -10t-23.5 6.5t-3 20q17 32 46.5 80.5l74.5 117.5q-54 1 -105 -1.5t-103 -10.5q-8 -1 -13 -4t-9.5 -6t-9 -5t-10.5 -1q-12 2 -17.5 14.5t9.5 27.5
l126.5 127.5l112.5 118.5t82.5 97.5t35.5 63.5q2 12 10 20.5t17 12t15.5 0t4.5 -16.5q-3 -21 -21.5 -50.5t-47.5 -63.5t-64.5 -72l-73 -76l-73 -75t-63.5 -69l111.5 4l111.5 4l113.5 175l140.5 221q11 18 28.5 21.5t29 -3t11.5 -22.5t-24 -38q-17 -15 -30 -31.5t-26 -35.5
l-95 -140.5l-95 -145.5q26 0 53 0.5t56 0.5z" />
    <glyph glyph-name="five" unicode="5" horiz-adv-x="580"
d="M461 661q25 -3 48.5 -5t48 -0.5t52 7t60.5 17.5q5 3 4 -8t-10 -26t-27 -29.5t-47 -19.5q-36 -6 -66.5 -2.5t-57.5 8.5l-38 -54.5l-43 -61l-42.5 -59l-35.5 -48.5q70 25 116.5 19.5t72 -32t31.5 -67.5t-6.5 -86.5t-41 -90t-72 -76.5t-100.5 -46.5t-125 -0.5
q-37 7 -59.5 18.5t-35 24.5t-18 25l-9.5 21q-8 19 -1.5 34.5t19.5 22.5t28 4t23 -19q6 -12 8.5 -29t7 -33.5t14.5 -30t31 -18.5q45 -11 87 3t76.5 44t60 70.5t39 81.5t13 77t-18.5 58t-55 24t-96 -26q-14 -38 -32.5 -47t-29.5 -1.5t-8 24.5t32 32l103 146.5t100 154.5z" />
    <glyph glyph-name="six" unicode="6" horiz-adv-x="509"
d="M579 634q-21 5 -48 2t-42 -11q-57 -29 -113.5 -81t-104.5 -114.5t-84 -129.5t-52.5 -125t-10 -100.5t44.5 -57.5q44 -17 85 1t73.5 55.5t53 86t23 93t-15.5 76.5t-63 36q-5 0 -10 -5l-10.5 -10.5t-12 -10t-14.5 -2.5q-10 3 -12.5 9t1.5 13t14.5 13.5t26.5 9.5
q59 12 94.5 -1.5t51.5 -43t14 -70t-19 -83.5t-47 -83t-70 -68t-88.5 -39.5t-102.5 3.5q-47 13 -66.5 46.5t-16.5 80.5t25 103.5t58.5 115t85 114.5t103.5 102t113.5 78t115.5 43q25 5 35.5 -2.5t10.5 -18t-8 -19.5t-18 -6z" />
    <glyph glyph-name="seven" unicode="7" horiz-adv-x="526"
d="M307 597q-29 3 -44.5 15.5t-21 26.5t-2 24t11.5 7q27 -10 69.5 -13.5t88 -3t88 4.5t69.5 9q23 19 38 17.5t18.5 -11t-5.5 -21t-34 -13.5q-37 -22 -81.5 -63t-90.5 -93.5t-90.5 -112.5t-80.5 -121t-60 -119t-30 -105q-2 -15 -18 -25t-33 -13t-30 3t-8 23q11 45 38 99.5
t64 113t82.5 118t94 113.5t98 99t95.5 75l-55 -13t-60.5 -12.5t-59.5 -8t-51 -0.5z" />
    <glyph glyph-name="eight" unicode="8" horiz-adv-x="550"
d="M190 -8q-60 5 -90 31.5t-34 64.5t15.5 83t58 87t93.5 76t122 50q-42 34 -50.5 81.5t13 92t71.5 77t124 35.5q24 1 34.5 -5.5t11.5 -15.5q43 -11 60.5 -32.5t15.5 -48.5t-20.5 -56.5t-46.5 -55.5t-63 -46t-70 -28q45 -32 63.5 -75t14.5 -88.5t-29.5 -88.5t-67.5 -75.5
t-99.5 -50.5t-126.5 -12zM190 17q46 -10 89 5.5t77.5 46.5t57.5 72t29 83.5t-8.5 80.5t-54.5 63q-61 -13 -109.5 -41.5t-83 -65t-53.5 -76t-20 -74t17.5 -60.5t58.5 -34zM553 632q-7 -8 -19 -12t-26 -1q-23 5 -39.5 1t-30.5 -14q-47 -34 -64.5 -66t-15.5 -59.5t19 -49.5
t39 -36q31 7 61.5 25t55 41t41.5 49.5t22 50t-5 43t-38 28.5z" />
    <glyph glyph-name="nine" unicode="9" horiz-adv-x="508"
d="M80 33q21 -4 48 -1.5t41 9.5q57 28 112.5 77.5t102.5 109.5t82.5 124t52 121t11 100t-39.5 61q-43 22 -83.5 7.5t-72.5 -50t-53 -84t-24 -93t14.5 -77.5t62.5 -38q6 -1 11 4l10.5 11t11.5 10.5t14 2.5q9 -3 11.5 -9t-1.5 -13t-14 -13.5t-26 -9.5q-59 -12 -95 1t-52.5 42
t-15 69t18 82.5t46.5 82t70 67t89 38.5t103 -3q47 -13 67 -46.5t17.5 -80t-25 -102.5t-59 -114t-85 -113.5t-103 -100.5t-112.5 -76.5t-115 -41.5q-25 -4 -35.5 3.5t-10.5 18t7.5 19t18.5 6.5z" />
    <glyph glyph-name="colon" unicode=":" horiz-adv-x="275"
d="M229 223q-7 -5 -17.5 -6t-18.5 2.5t-12 11.5t3 21q3 5 6 11t9 10.5t15.5 5.5t24.5 -3q10 -3 12.5 -10t-0.5 -15t-9.5 -16t-12.5 -12zM110 8q-8 -6 -18.5 -9t-19.5 -1.5t-14 8.5t-1 21q3 10 13.5 22.5t36.5 8.5q10 -2 14.5 -8t3.5 -14t-5 -15.5t-10 -12.5z" />
    <glyph glyph-name="semicolon" unicode=";" horiz-adv-x="275"
d="M229 223q-7 -5 -17 -6t-18 2.5t-12.5 11.5t-0.5 21q1 5 5 11t10.5 10.5t17 5.5t25.5 -3q10 -3 12 -10t-1 -15t-9 -16t-12 -12zM66 46q7 9 17.5 11.5t20 -1.5t15.5 -12t4 -20q-6 -34 -30.5 -55t-53.5 -30q-14 -5 -22.5 -1.5t-11 9.5t2 11.5t16.5 6.5q25 2 31.5 10.5t6 20
t-2.5 25t7 25.5z" />
    <glyph glyph-name="semicolon" unicode="&#x37e;" horiz-adv-x="275"
d="M229 223q-7 -5 -17 -6t-18 2.5t-12.5 11.5t-0.5 21q1 5 5 11t10.5 10.5t17 5.5t25.5 -3q10 -3 12 -10t-1 -15t-9 -16t-12 -12zM66 46q7 9 17.5 11.5t20 -1.5t15.5 -12t4 -20q-6 -34 -30.5 -55t-53.5 -30q-14 -5 -22.5 -1.5t-11 9.5t2 11.5t16.5 6.5q25 2 31.5 10.5t6 20
t-2.5 25t7 25.5z" />
    <glyph glyph-name="less" unicode="&#x3c;"
d="M482 437l-80 -29l-84.5 -31.5l-77.5 -29.5l-60 -23q21 -14 47.5 -27.5l50.5 -25t43.5 -19l27.5 -10.5q10 -4 9.5 -10t-6.5 -11.5t-15.5 -7t-17.5 3.5l-44.5 26.5l-46 26.5l-43 24l-36.5 19q-24 -7 -34 0t-8.5 16.5t13 16.5t31.5 0l88.5 30l95 34.5l84.5 32.5t57 25
q15 7 23 5t9 -8.5t-5.5 -14.5t-20.5 -13z" />
    <glyph glyph-name="equal" unicode="="
d="M180 352q-8 0 -11 5t-2 11.5t6 11t13 3.5q30 -5 73.5 -5.5t86.5 0.5t77.5 3.5t46.5 3.5q13 1 18.5 -4t5 -11t-8 -11t-19.5 -5q-39 1 -85 1t-87 -0.5t-72.5 -1.5t-41.5 -1zM136 258q-8 0 -11 5t-2 11.5t6 11t13 3.5q30 -5 73.5 -5.5t86.5 0.5t77.5 3.5t46.5 3.5
q13 1 18.5 -4t5 -11t-8 -11t-19.5 -5q-39 1 -85 1t-87 -0.5t-72.5 -1.5t-41.5 -1z" />
    <glyph glyph-name="greater" unicode="&#x3e;"
d="M128 235l81.5 28.5l87.5 31.5l80.5 29.5l61.5 22.5q-21 14 -45.5 27.5l-47.5 25t-42 20t-30 11.5t-13 11t2 14.5t11.5 10t15.5 -2.5q20 -14 44.5 -29t49.5 -28.5l47.5 -25l38.5 -19.5q24 7 34 0t8.5 -16.5t-13 -16.5t-31.5 0l-88.5 -30l-95 -34.5l-84.5 -32.5t-57 -25
q-15 -8 -24.5 -6t-12 8t2.5 13.5t19 12.5z" />
    <glyph glyph-name="question" unicode="?" horiz-adv-x="413"
d="M138 165q31 45 59 80t58.5 64t66 56t80.5 56q75 48 112.5 86.5t49 66.5t2 44t-27.5 21q-44 10 -74.5 -8t-50.5 -45q-8 -11 -10 -18t-3.5 -14t-3.5 -14.5t-9 -17.5q-11 -18 -29 -25t-31.5 -2.5t-17 21t13.5 45.5q12 21 32.5 42t49 36.5t65.5 23t83 1.5q24 -3 43.5 -15
t31.5 -30.5t13.5 -41.5t-11 -48.5t-42 -51.5t-78.5 -50q-47 -22 -95 -47t-92 -56.5t-80.5 -72t-60.5 -92.5q-6 -14 -17 -19t-19.5 -3.5t-12 9t4.5 19.5zM90 68q-23 -32 -31.5 -53t12.5 -25q18 -4 30 3.5t19.5 19t11 23t5.5 15.5q6 15 2 22.5t-12.5 9t-19 -2t-17.5 -12.5z
" />
    <glyph glyph-name="at" unicode="@" horiz-adv-x="876"
d="M657 43q-23 -14 -51 -27t-58.5 -23t-62 -16t-59.5 -6q-76 0 -135.5 27.5t-95 77t-43 116.5t19.5 147q26 78 78.5 145t121 116t146 77t154.5 28q66 0 116.5 -22t80.5 -60.5t36.5 -91t-16.5 -113.5q-27 -72 -68.5 -120t-86 -75t-86.5 -34t-70.5 2t-37 33.5t14.5 61.5
l-25.5 -29.5t-28.5 -28.5q-29 -25 -60 -35t-56 4q-18 10 -19 32.5t10.5 50t33 57t49 55.5t58 45t59.5 25q33 5 48.5 -4.5t19.5 -29.5q4 5 7 8t8 6q12 7 22 6t16.5 -6.5t8 -14t-3.5 -16.5l-33.5 -38t-24.5 -28.5l-22 -27.5t-26 -36q-22 -31 -16.5 -50.5t27 -25.5t55.5 2
t69.5 31.5t68.5 62t53 94.5q23 64 20.5 117t-27.5 91.5t-71.5 60t-110.5 21.5t-129.5 -25t-123 -70.5t-104 -109.5t-71.5 -141q-24 -77 -22 -141t28 -110.5t75 -72t120 -25.5q26 0 55.5 5t58.5 14t55 21.5t46 27.5l5 -15v0zM609 396q5 14 3.5 25t-8.5 15t-20.5 0.5
t-32.5 -18.5q-19 -14 -39 -35t-38 -43.5t-32.5 -44.5t-20.5 -39q-8 -21 -3 -28.5t16 -7t25 8t25 16.5q16 15 31 33.5l30.5 38.5l31 40.5t32.5 38.5z" />
    <glyph glyph-name="A" unicode="A" horiz-adv-x="868"
d="M454 247q-9 0 -11.5 6.5t0 13.5t10 12t18.5 2q33 -7 71 -9l193 183l191 183q-35 9 -63 20t-58 18t-66 6.5t-85 -13.5q-25 -7 -44.5 -24l-36 -32.5t-30.5 -22.5t-28 6q-16 15 -10 33.5t26 35.5t50 31t63 20q40 7 77 2t73.5 -16.5t72.5 -25t75 -23.5q35 32 69.5 56.5
t66.5 44.5q28 21 54.5 36.5t51.5 23.5q13 4 19.5 -1.5t7 -14t-5.5 -17t-18 -10.5q-29 -5 -53 -12t-51 -31q-20 -17 -41 -38.5t-43 -46.5q22 -2 45 -2t49 5q12 2 15.5 -1t0.5 -7t-11 -8.5t-20 -5.5q-27 -2 -50.5 -1t-43.5 4q-32 -38 -64.5 -81l-63.5 -88l-59.5 -90.5
t-51.5 -88.5q9 0 18.5 0.5t19.5 1.5q9 1 12.5 -4t1 -12t-10.5 -12.5t-20 -5.5h-37l-30.5 -64.5t-19.5 -55.5q-9 -42 -3.5 -65t19.5 -32t33 -6t38 14q26 14 52.5 35.5t49.5 45.5l7 -12q-16 -17 -39.5 -39t-50.5 -41t-56 -30.5t-55 -8.5q-23 3 -41 13t-27 29t-7 47.5t19 69.5
q8 20 20.5 45.5t29.5 55.5h-109q-62 -57 -120.5 -105.5t-111.5 -83.5t-98.5 -53.5t-81.5 -15.5q-54 4 -76.5 32.5t-22 67.5t21.5 81.5t54 73.5t75.5 44.5t86.5 -5.5q27 -12 31 -28.5t-6 -29t-29 -16.5t-37 9q-27 20 -54.5 19.5t-50.5 -14.5t-40 -37.5t-23 -50t0.5 -52
t30.5 -43.5q29 -22 71.5 -14.5t95.5 37t114 77.5t127 107q-17 0 -32.5 -0.5t-29.5 -0.5zM584 271q23 0 47.5 1t51.5 3q40 69 94 146t115 150l-154 -151.5z" />
    <glyph glyph-name="B" unicode="B" horiz-adv-x="642"
d="M728 737q42 -14 58.5 -47t-9.5 -87q-15 -32 -42 -57t-60 -44t-70.5 -31t-73.5 -18q44 -5 74.5 -25.5t47.5 -50.5t20 -65.5t-7 -69.5q-12 -38 -37 -72.5t-59.5 -63t-77.5 -50t-91 -34.5q-54 -14 -112 -16.5t-120 13.5q-11 -22 -20 -43.5t-17 -43.5q-6 -18 -16 -23t-18 -1
t-11 16t4 27q9 20 20 41l23 43q-46 26 -65 64t-17 78.5t23.5 77t57 59.5t83 26.5t102.5 -22.5q75 102 157 202.5l163 194.5q-54 -5 -121 -31t-131 -72q-28 -21 -45 -17t-18.5 21t15.5 40t57 40q33 13 68.5 23.5t70.5 17.5t68.5 9.5t63.5 1.5q4 5 8 9t8 9q13 14 27.5 17.5
t23.5 -1t9.5 -16.5t-14.5 -29zM308 255q-37 -53 -69 -106t-59 -107q33 -12 71.5 -14t78 5t77.5 22.5t69 38.5q33 25 63 58t48.5 69.5t21.5 75.5t-16 75q-18 33 -56.5 51t-87.5 16l-52.5 -65.5l-52.5 -68.5l24.5 -17l26.5 -20q17 -14 17.5 -31.5t-8.5 -29.5t-24.5 -13.5
t-29.5 16.5q-21 27 -42 45zM146 56q29 53 64.5 107l74.5 110q-40 27 -75.5 27t-63 -18t-45 -48t-19.5 -63.5t13 -64.5t51 -50zM701 711l-107 -109t-122 -135q34 1 72 10t74 25.5t65.5 41.5t46.5 59q22 45 12.5 71.5t-41.5 36.5z" />
    <glyph glyph-name="C" unicode="C" horiz-adv-x="497"
d="M489 883q17 22 40 30.5t38 4.5t16 -18t-24 -36q-65 -56 -83 -106.5t-3 -87.5q71 42 137 62t116 9q33 -8 45 -26.5t5 -40.5t-31.5 -43t-66.5 -32q-78 -22 -133 -15.5t-87 32.5q-44 -32 -87 -71t-81.5 -82.5t-70.5 -90.5t-53 -94q-27 -60 -32.5 -105.5t5 -77.5t35.5 -50.5
t59 -23.5q29 -5 63.5 -0.5t69.5 17.5t69 33.5t62 47.5l7 -12q-39 -36 -94.5 -66t-113.5 -42q-57 -12 -110 -7t-87.5 33t-43 83t23.5 142q18 49 54 103t83 106t103 100t114 86q-24 43 -11 105.5t67 132.5zM712 713q-38 11 -96 -9.5t-123 -63.5q20 -20 49.5 -30t66.5 -6
q34 3 66 17t50.5 31.5t17.5 34.5t-31 26z" />
    <glyph glyph-name="D" unicode="D" horiz-adv-x="658"
d="M315 626q-26 -14 -38.5 -8t-12 21.5t15 34.5t43.5 31q58 24 119 31.5t116.5 -3t100.5 -38.5t72 -75q25 -44 31 -95t-4.5 -105t-34.5 -108t-59 -102t-78 -88.5t-91 -66.5q-68 -38 -145.5 -53.5t-161.5 1.5l-24 -48.5t-23 -50.5q-8 -18 -19.5 -24t-20 -2.5t-11 16t6.5 30.5
q23 47 47 91q-47 19 -68 53t-20.5 72t20 74t53.5 60t81 29.5t102 -18.5l124.5 175l134.5 181q12 15 27 19.5t24.5 -0.5t10 -18.5t-17.5 -34.5l-126.5 -153t-140.5 -187l22 -14.5t22 -16.5q18 -15 19 -33.5t-8.5 -30.5t-25.5 -13.5t-32 18.5q-9 11 -17.5 19.5l-16.5 16.5
q-58 -89 -110 -185q69 -17 137 0t128 56q38 24 73 61t64 81.5t51.5 94.5t34.5 99.5t12 96.5t-14 86q-15 40 -45.5 64.5t-77 29.5t-109 -11.5t-140.5 -59.5zM158 39q28 51 58.5 100l63.5 99q-41 27 -77.5 27t-64 -17t-43.5 -46.5t-15.5 -60.5t19 -59.5t59.5 -42.5z" />
    <glyph glyph-name="E" unicode="E" horiz-adv-x="652"
d="M813 540q-19 -8 -31.5 -2.5t-16 16.5t3.5 24t27 21q43 18 58.5 39.5t11 41t-25.5 33t-49 14.5q-29 1 -64 -6t-70 -22.5t-66.5 -40t-53.5 -57.5q-24 -36 -18.5 -62.5t28.5 -44t57 -27t67 -11.5q17 4 26 -2.5t7 -14.5t-16 -12.5t-42 4.5q-43 2 -96.5 -10.5t-105.5 -37.5
t-97 -61.5t-70 -82.5q-24 -45 -31.5 -80t-0.5 -61q98 49 174 67t126 14.5t71 -23.5t10.5 -46t-55.5 -53.5t-127 -46.5q-91 -21 -150.5 -14t-91.5 33q-26 -16 -53 -34.5t-56 -40.5t-38.5 -20t-5.5 15.5t18 32.5t33 31q41 27 77 47q-17 32 -12.5 74t28.5 88q22 42 63.5 83
t93.5 73t109 52t109 21q-32 2 -54.5 17.5t-34.5 37.5t-12 47.5t14 47.5q25 40 63 68.5t81 46t87.5 25.5t83.5 8q61 0 94.5 -23t37.5 -56t-24 -69t-91 -61zM492 43q54 15 80 35t26.5 36.5t-22.5 27t-67 7.5t-106.5 -22t-140.5 -62q29 -34 89.5 -39.5t140.5 17.5z" />
    <glyph glyph-name="F" unicode="F" horiz-adv-x="669"
d="M507 306q-9 2 -11.5 7t-0.5 10t8 8.5t12 2.5q15 -4 30 -4l70 99.5t72 92.5t75 77t79 53q62 29 73.5 45t-11 20.5t-71 -3.5t-107 -26.5t-118 -48t-103.5 -68.5q-22 -19 -41.5 -17.5t-27.5 15t0.5 35t42.5 42.5q41 25 92 44.5t103.5 33t103.5 21t92.5 8.5t69.5 -4.5t35 -18
t-11 -32t-69 -46.5q-32 -17 -64 -49.5t-65.5 -75t-68.5 -92l-72 -100.5q30 5 57.5 13.5t48.5 18.5q7 7 14.5 7.5t11.5 -4t2.5 -11.5t-11.5 -14l-23.5 -16.5t-20 -17.5t-18 -24.5t-17.5 -36.5q-4 -9 -11.5 -12t-14 -0.5t-10 8.5t-0.5 15q4 12 12 22.5t17.5 19.5t19.5 16.5
l18 13.5q-19 -7 -43 -13t-51 -11q-49 -68 -101 -130.5t-107.5 -107.5t-115 -66t-123.5 -6q-58 14 -84 51.5t-25 84t26.5 93t71.5 79t109.5 42t140.5 -18.5q22 -8 25.5 -25.5t-5 -33t-25.5 -22.5t-36 7q-58 43 -107 47t-86 -16.5t-59.5 -57t-26.5 -74.5t12 -70.5t57 -44.5
q56 -16 106.5 0t97 54.5t90.5 93.5t87 116q-5 0 -10 0.5t-10 1.5z" />
    <glyph glyph-name="G" unicode="G" horiz-adv-x="579"
d="M328 286q-9 0 -11.5 7t1.5 15t13.5 14.5t24.5 5.5q40 -4 88.5 -5t110.5 1q8 11 18 16.5t18 5t12.5 -5.5t3.5 -15q14 1 29 1.5t32 1.5q9 0 9.5 -6.5t-4 -14.5t-12.5 -14.5t-15 -6.5h-64q-31 -36 -67.5 -86.5t-71.5 -107.5t-64.5 -117t-47.5 -115q-6 -18 -18.5 -22.5
t-23.5 0t-17 16t0 25.5q14 31 37.5 69l49.5 82q-42 -18 -86.5 -27.5t-83.5 -8.5t-70.5 15t-49 43.5t-18 76.5t22.5 115q20 59 63 121.5t100 121t122.5 108.5t131 85.5t126 51.5t107.5 6q32 -7 45 -23t10.5 -35.5t-18 -41t-40 -40t-55.5 -30.5t-64 -14q-12 -1 -19 7.5t-7 19
t7 19.5t24 9q36 1 68 13.5t49.5 29.5t16.5 33.5t-31 24.5q-34 9 -80.5 -4t-98.5 -42.5t-106.5 -73t-104.5 -95t-91.5 -109t-67.5 -114.5q-42 -92 -36.5 -148.5t41.5 -82t93 -20.5t118 37l76.5 118.5l75.5 110.5h-105.5t-95.5 -1z" />
    <glyph glyph-name="H" unicode="H" horiz-adv-x="871"
d="M1204 705l-75 -69.5t-84.5 -84t-87.5 -102.5t-84 -124q31 20 64 48q6 5 10.5 3.5t6.5 -6t-0.5 -11t-11.5 -12.5l-44 -26.5l-41 -23.5q-33 -60 -62 -128t-51 -148q-5 -18 -17 -23t-23 -0.5t-17.5 16t-0.5 27.5q3 10 6.5 19.5l7.5 19.5q6 35 9 73.5t-7 85.5
q-36 -8 -67.5 -10t-57.5 1q-41 -54 -89.5 -103t-102.5 -81.5t-113 -44t-122 8.5q-40 13 -62 38t-29 55.5t0 63t25 59.5t46.5 46t64.5 21.5t78 -13.5t89 -58q15 -14 14 -32t-11 -30.5t-25.5 -14.5t-30.5 18q-45 59 -85.5 77t-72 9t-51 -37t-23 -61t12 -63.5t54.5 -44.5
q96 -34 192.5 18.5t190.5 179.5q-48 17 -70 49t-14 68q6 27 26 49.5t48.5 33t62 5.5t66.5 -32q37 58 68 111.5t50 95.5t4.5 66t-50 31t-85.5 -2.5t-102.5 -34.5t-101.5 -64t-81 -91q-16 -26 -34.5 -28t-27 12t-1.5 40.5t41 56.5q44 39 104 68.5t122.5 46.5t120.5 21
t98.5 -7.5t56.5 -39.5t-6 -75q-29 -63 -62 -121.5t-77 -123.5q17 -22 32 -52t23 -59q14 5 29 9.5t30 11.5q44 78 92 146t95.5 125t90.5 103l77 81q15 15 32 17.5t28 -3.5t11 -19.5t-19 -30.5zM546 267l41.5 59t41.5 62q-23 22 -45.5 28t-41.5 0t-32 -20.5t-17 -33.5
q-7 -33 8 -57t45 -38zM661 345l-31.5 -44.5l-34.5 -46.5q22 -5 48 -4.5t55 6.5q-6 21 -16 46t-21 43zM751 198l16.5 33.5l17.5 33.5q-11 -5 -21.5 -8.5t-21.5 -6.5q4 -14 5.5 -26.5t3.5 -25.5z" />
    <glyph glyph-name="I" unicode="I" horiz-adv-x="587"
d="M429 543q-20 -23 -40.5 -23.5t-29.5 12.5t-1.5 36.5t43.5 49.5q55 40 113.5 71t112.5 49.5t99 24t73.5 -5t36 -37.5t-13.5 -74q-19 -42 -46 -95.5t-61.5 -112t-74.5 -118.5t-85.5 -114t-94.5 -98.5t-101 -73t-106 -37t-108 9.5q-41 14 -63.5 39t-29 55t2 61t28.5 56.5
t50 42t67.5 18t80.5 -15.5t89 -60q13 -12 11.5 -30.5t-11.5 -31.5t-25 -15t-28 18q-40 60 -79.5 79t-72 11.5t-55 -34t-30 -58t4.5 -60.5t48 -41q63 -21 124.5 -4t119.5 61.5t112.5 109.5t103.5 139t92 152l79 147q21 42 17 64t-26 27t-59.5 -6t-81.5 -36.5t-92.5 -64
t-92.5 -87.5z" />
    <glyph glyph-name="J" unicode="J" horiz-adv-x="651"
d="M564 543q-20 -22 -40 -23t-29 12.5t-1.5 36.5t42.5 49q55 40 118 69.5t122.5 47.5t109.5 23.5t79.5 -1.5t32 -28t-32.5 -55q-38 -37 -80 -96.5l-87.5 -130l-94 -147.5t-100 -150t-106 -136t-110.5 -106t-115 -60.5t-119 0.5q-57 17 -81.5 54.5t-23 79t25.5 79t63.5 55
t92 7t110.5 -64.5q15 -14 13.5 -32t-11 -30.5t-24.5 -14t-28 17.5q-41 60 -78.5 78t-66.5 8.5t-47 -38t-20.5 -62t13 -64t54.5 -42.5q54 -17 105 0t100.5 58t98 100.5t95.5 129l93.5 143l93 142t93 126.5t93.5 96q33 27 32.5 41.5t-24.5 16.5t-66.5 -9t-93 -34.5t-103.5 -60
t-98 -85.5z" />
    <glyph glyph-name="K" unicode="K" horiz-adv-x="835"
d="M476 540q-20 -21 -39.5 -21.5t-28 12.5t-0.5 36t43 49q55 41 121.5 67.5t130.5 41t118.5 16.5t85.5 -5.5t31.5 -24t-43.5 -40.5q-37 -20 -76 -63t-79.5 -99l-83.5 -119.5l-88 -125.5t-93 -117t-99 -93.5t-105 -55.5t-112 -2t-83 54.5t-23 86.5t28.5 94t72 78t107 37
t134.5 -29q19 -9 23 -26.5t-3 -31.5t-22 -20t-34 8q-58 43 -107.5 48t-86 -14t-58 -54.5t-25.5 -72.5t12 -68.5t56 -42.5q52 -15 100 -0.5t93 49.5t87.5 85.5t83 107.5l80.5 116.5t80 112.5t80 94.5t82 62.5q38 20 39 30.5t-24 11.5t-70 -8.5t-98 -30.5t-107.5 -54
t-99.5 -80zM1207 645q-3 -18 -15.5 -26t-27 -8t-25.5 7.5t-10 21.5q1 13 0.5 23.5t-8.5 18.5q-12 12 -39.5 2.5t-63.5 -34t-79 -61t-87 -78l-87 -84.5l-79 -80q39 12 51 0.5t6 -40.5t-26 -72l-44 -93l-13.5 -30t-10 -29.5t-2 -26.5t9.5 -21q9 -9 29.5 -6t46 15t53 31.5
t49.5 43.5l6 -12q-13 -14 -30 -28t-36.5 -26.5t-40.5 -24t-41 -18.5q-27 -11 -50.5 -12t-39.5 8t-22.5 28t-0.5 49q3 18 15.5 45l27 56.5l29 58.5t22.5 49.5t6 29.5t-19 0q-5 -6 -13 -7t-12.5 2t-3 10.5t14.5 19.5l88 83l92.5 90.5l92 87.5t88 72.5t79.5 46t67 8.5
q35 -8 46.5 -33t6.5 -57z" />
    <glyph glyph-name="L" unicode="L" horiz-adv-x="765"
d="M309 446q54 -22 105 -34.5t102 -10.5l67 94.5t68 87t68.5 73.5t68.5 54q51 31 94.5 36.5t64 -14t11 -62.5t-62.5 -107q-39 -47 -83 -82t-88.5 -59.5t-87.5 -39t-80 -19.5l-97.5 -143.5t-99.5 -120.5q46 -26 93.5 -48t101.5 -28q25 -3 49.5 -0.5t50 12.5t53 30.5
t58.5 53.5l6 -12q-26 -27 -52.5 -51t-57.5 -41.5t-69 -26t-86 -3.5q-82 9 -181 81q-46 -36 -92 -54.5t-101 -9.5q-50 8 -70 28.5t-17 44t26 45t60 32.5t84 6.5t99 -34.5q41 45 84 105.5l88 126.5q-47 -2 -96 2.5t-106 16.5q-20 4 -25.5 18.5t-0.5 28.5t19 22.5t32 1.5z
M822 685q-29 -18 -58.5 -46.5t-58.5 -64.5t-58.5 -78l-58.5 -86q70 13 137 50t130 103q30 31 44 63t10.5 53.5t-25 25.5t-62.5 -20zM144 30q36 -9 69 8.5t71 55.5q-40 28 -74 36.5t-59 3.5t-40 -19t-17 -30.5t9.5 -32t40.5 -22.5z" />
    <glyph glyph-name="M" unicode="M" horiz-adv-x="1169"
d="M290 284q27 -11 30.5 -27t-6.5 -29t-29 -17.5t-36 8.5q-26 20 -54 18.5t-51.5 -16t-41 -39t-24 -51t0.5 -51t33 -39.5q42 -24 99 -8t124 60.5t141.5 111l152.5 142.5l157.5 154.5l155.5 147.5q-35 9 -67.5 18.5t-66 14t-70.5 2.5t-80 -15q-26 -8 -45 -24t-34.5 -30.5
t-30 -22t-29.5 3.5q-17 18 -11.5 36.5t25.5 35t50.5 29.5t63.5 19q36 6 73.5 2.5t76.5 -12.5t79.5 -21t81.5 -22q52 47 88.5 75.5t69.5 44.5q12 5 20 3.5t10.5 -6.5t-1 -12.5t-15.5 -15.5q-10 -6 -16.5 -8.5l-12.5 -5t-13.5 -7t-18.5 -13.5l-31.5 -30t-33.5 -36
q38 -8 76.5 -10t77.5 4q12 2 15 -1t-0.5 -7.5t-11 -9t-14.5 -4.5q-46 -2 -84 2t-72 11q-36 -41 -73 -91.5t-72 -104.5t-67 -109t-57.5 -105t-42.5 -92.5t-23 -71.5l103.5 117l118.5 128.5l128 131.5t133.5 127t135 114t131.5 93q10 7 16 4.5t8 -9.5t-0.5 -15.5t-8.5 -12.5
q-9 -5 -17 -8t-16 -6.5t-17 -9t-21 -15.5q-36 -32 -74 -76t-75 -95.5t-71.5 -106.5t-63 -108t-49.5 -101t-32 -85q-9 -31 -11 -51.5t1.5 -33t12.5 -18.5t21 -7q17 -2 37 5.5t41.5 21.5t42.5 33t39 39l6 -12q-24 -26 -50 -49t-53.5 -40t-56 -26.5t-56.5 -6.5
q-21 2 -36.5 11.5t-22.5 29t-4 49.5t18 72q14 39 44 92t70.5 113t88.5 123t97 121q-159 -144 -296 -286.5t-260 -288.5q-18 -22 -34.5 -25t-25.5 10t-9 40t14 65q20 54 53 115t74.5 124t89.5 125.5t98 120.5l-138.5 -140l-140 -140.5l-137 -129t-129 -105t-115 -69.5
t-96.5 -22q-58 4 -84 32.5t-27 67t18.5 80.5t53 73.5t77 45t90.5 -4.5z" />
    <glyph glyph-name="N" unicode="N" horiz-adv-x="889"
d="M712 38l27 121t25.5 136.5t12 136.5t-12.5 120l-64 -112.5t-78.5 -131t-92 -129t-105 -107.5t-116.5 -66t-127 -4q-68 17 -97.5 56.5t-28.5 84t28 84.5t72.5 59.5t105 9t125.5 -68.5q14 -13 13.5 -31t-10 -30.5t-24.5 -14.5t-29 17q-47 64 -92 83.5t-80.5 9.5t-58 -41.5
t-25.5 -68t16.5 -70.5t69.5 -49q63 -19 122.5 -1.5t114.5 60.5t104.5 105t93 131t80.5 139.5l67 129.5q-14 29 -37 49t-56 29q-32 9 -41 24t-3.5 29t19.5 23t28 5q53 -14 86.5 -48.5t51.5 -83.5t23.5 -108.5t2.5 -122.5t-11.5 -127t-18.5 -121q35 100 87 192t109 169
t111.5 135.5t93.5 92.5q16 13 31.5 14t23.5 -6.5t5 -20.5t-24 -27q-39 -25 -96 -74t-119.5 -128.5t-122.5 -192.5t-105 -266q-6 -21 -20 -30.5t-27.5 -8.5t-22.5 12.5t-4 32.5z" />
    <glyph glyph-name="O" unicode="O" horiz-adv-x="585"
d="M764 688q-25 -17 -39 -18.5t-24.5 3t-21.5 11t-29 6.5q-69 0 -141 -29t-137 -82t-120 -127.5t-91 -165.5q-25 -63 -30.5 -111.5t5 -82t35 -50.5t60.5 -15q50 2 102.5 26.5t102 63.5t93.5 87.5t76 97.5q31 48 50.5 96.5t26 90.5t-0.5 74t-28.5 48t-58.5 11.5t-90 -34.5
q-12 -7 -19.5 -14t-14 -14l-13.5 -14t-17 -14q-11 -8 -19.5 -6t-12 9.5t0.5 18.5t20 22q80 54 139.5 72t98.5 7.5t57.5 -45t16.5 -83t-24 -108t-64 -119.5q-41 -60 -90 -114t-104.5 -95.5t-116 -67t-125.5 -27.5q-44 -1 -81 13t-58.5 45t-24 80.5t21.5 118.5q26 74 70.5 142
t101 126.5t121.5 105t131 77t129.5 43t118.5 2.5q10 -2 19.5 -8t14 -14.5t1.5 -18.5t-18 -20z" />
    <glyph glyph-name="P" unicode="P" horiz-adv-x="655"
d="M532 390q-11 18 -6.5 33.5t15 24t23 8.5t18.5 -14q9 -23 28 -41t44 -30q36 66 62.5 132t41.5 126q5 19 18.5 26t27 4t22 -14.5t2.5 -28.5q-22 -64 -51.5 -130.5t-66.5 -131.5q52 -6 96.5 15t77 57t49.5 81t12.5 85.5t-32.5 71t-85 38.5q-66 9 -135.5 1t-133 -32.5
t-117.5 -65.5t-89 -98q-16 -26 -34 -27t-27 13.5t-2.5 40t41.5 54.5q66 54 136.5 85t137 45t126.5 14.5t105 -5.5q59 -8 97.5 -35t56.5 -63.5t15 -79t-26.5 -82.5t-69 -74t-112.5 -54q-51 -15 -104 -13q-48 -80 -107 -150t-125 -117.5t-139 -67t-150 1.5q-47 13 -74 38.5
t-37 57t-4 64.5t24.5 61.5t48 47.5t67 21.5t81.5 -14.5t92 -61q13 -12 11.5 -29t-12 -29t-25.5 -14t-29 16q-48 63 -90.5 81.5t-74 8.5t-50 -40.5t-19 -66t19.5 -68t65 -46.5q67 -20 132 -2t125 63t113 111t97 140q-36 8 -62.5 22.5t-38.5 34.5z" />
    <glyph glyph-name="Q" unicode="Q" horiz-adv-x="616"
d="M50 13q5 13 17 18.5t27 6t31 -2.5t29 -5q73 4 145.5 36.5t138 88t121.5 131t97 165.5q28 64 34.5 114.5t-4 85.5t-36 53t-61.5 17q-48 -1 -101.5 -30.5t-104 -73t-94 -94t-71.5 -92.5q-45 -67 -61 -115t-10 -76.5t30.5 -37.5t62.5 1t85.5 40t98.5 79q16 16 29.5 11
t19.5 -19.5t3.5 -32.5t-18.5 -28q-122 -80 -207 -96t-125 14t-32 98t73 157q36 49 85 103.5t106 101t119.5 77.5t125.5 33q43 1 80 -13t58.5 -45t24 -80.5t-22.5 -118.5q-30 -85 -85 -161.5t-122.5 -138t-142.5 -105t-145 -61.5q42 -3 81.5 -13.5t77.5 -31.5t73.5 -55
t69.5 -84q14 -20 12 -37t-32 -30q-22 -9 -33 -3.5t-17.5 19.5t-12.5 33t-18 37q-42 62 -87 91t-84.5 39t-70 9t-45.5 1q-21 -4 -43.5 -7.5t-39.5 -2.5t-26 7.5t-3 22.5z" />
    <glyph glyph-name="R" unicode="R" horiz-adv-x="927"
d="M838 705q-65 12 -134.5 4t-134 -33.5t-119 -67.5t-89.5 -99q-16 -26 -35 -27.5t-28 13.5t-2 41t42 54q66 54 136.5 85.5t137.5 45.5t127 14t107 -8q62 -11 101.5 -39.5t56 -66t11.5 -80.5t-31 -82.5t-73.5 -71.5t-114.5 -48q22 -4 27.5 -22t-1 -45t-22 -60.5t-33.5 -68.5
q-8 -15 -15 -30.5t-11 -29.5t-2.5 -26t10.5 -21q11 -10 31.5 -7t45 15t50.5 31.5t48 43.5l7 -12q-26 -27 -63.5 -55.5t-76.5 -43.5q-26 -10 -51.5 -11t-44 8.5t-27 30t-0.5 54.5q5 20 18 46t28 53l29 53t21 45t4 28.5t-22 4.5q-8 -2 -13 2.5t-6 11.5t3 13t13 6
q47 0 87.5 23.5t69 59t42.5 78.5t8.5 82.5t-32.5 69t-80 39.5zM375 211q13 -14 11.5 -31t-11.5 -28.5t-25 -13t-28 16.5q-34 48 -66 69.5t-59.5 24.5t-49 -9.5t-35.5 -34.5t-18.5 -49t2 -53.5t25.5 -48t53 -31.5q66 -20 130.5 -1.5t124.5 64t113.5 111.5t97 140.5t76 151
t50.5 143.5q5 19 18 23.5t25.5 0.5t21 -15t4.5 -23q-26 -77 -64.5 -159t-87.5 -157.5t-107 -140.5t-122 -108t-133 -60t-141 3q-47 13 -73.5 39.5t-35.5 58.5t-3 66t24.5 63t48 48t66 21.5t79.5 -16t89 -65.5z" />
    <glyph glyph-name="S" unicode="S" horiz-adv-x="674"
d="M546 446q-27 20 -35.5 44t-3.5 49.5t22 51t41 49.5q-33 44 -21.5 111t72.5 141q16 19 38.5 27t38.5 5t17.5 -16t-24.5 -36q-33 -29 -52.5 -57t-28 -53.5t-8 -48t8.5 -40.5q28 21 60 37.5t65 27t64.5 14t58.5 -2.5q34 -8 47 -26.5t6 -40t-32 -42.5t-66 -33
q-72 -21 -129.5 -16.5t-91.5 27.5q-30 -30 -39 -52.5t-3 -40t22.5 -32.5t36.5 -31q42 -33 61 -71.5t19 -78.5t-16.5 -80t-44.5 -77q-34 -45 -84.5 -83t-109 -60.5t-122 -27t-124.5 17.5q-62 22 -94.5 57.5t-40.5 74.5t5 78t41.5 69t69 47t87 11.5t95.5 -37.5t96 -99
q10 -15 6 -31.5t-14.5 -27t-25 -10.5t-24.5 18q-35 62 -73.5 94.5t-74.5 42t-68 0t-55 -31t-34.5 -51t-7 -60.5t27.5 -59t70 -46q41 -16 86 -18.5t91 9t90.5 37t84.5 66.5q46 47 67.5 92t22.5 85t-18 74t-53 60zM627 649q33 -45 114 -36q34 4 66 18.5t50 31.5t17.5 33.5
t-30.5 24.5q-18 5 -44.5 1.5t-56.5 -13t-60.5 -25t-55.5 -35.5z" />
    <glyph glyph-name="T" unicode="T" horiz-adv-x="302"
d="M559 688l-108 -128.5t-114 -152t-112 -180t-101 -212.5q-7 -18 -20 -22.5t-24.5 0t-17.5 16t1 26.5q43 92 93 176t106.5 166l119.5 165.5l133 174.5q-36 -4 -71 -9.5t-66 -13.5t-57.5 -18.5t-45.5 -23.5q-23 -16 -43 -14.5t-27.5 13.5t1.5 30t44 35q30 14 74 23
t95.5 14.5t106 7t106 1.5t96 -2t74.5 -4q35 -2 57 -6.5t42 -13.5q15 -6 17 -14.5t-2.5 -15t-13 -8.5t-15.5 5q-10 9 -32 13.5t-39 6.5q-29 3 -90.5 4.5t-148.5 -4.5q-1 -8 -5 -16t-13 -19z" />
    <glyph glyph-name="U" unicode="U" horiz-adv-x="614"
d="M134 520q-20 -21 -40 -21.5t-28.5 12.5t-0.5 36t44 49q55 40 124.5 66.5t138 41t128 17.5t94 -4.5t36 -24t-45.5 -40.5q-23 -12 -64 -54.5t-89 -100.5t-97 -125t-89 -128t-65.5 -108.5t-25.5 -67.5q0 -21 40 7t111.5 92.5l170.5 161.5l216 214l30 47t30.5 42t31 27
t31.5 1q14 -9 13 -24t-11 -33t-27 -35.5t-34 -30.5l-103 -137.5t-87 -120.5t-69 -110t-49 -106q-9 -26 -4 -36t17 -10.5t27.5 5.5t27.5 13q23 13 47.5 34.5t50.5 49.5l6 -12q-22 -23 -45.5 -44.5t-47.5 -38.5t-48 -28.5t-48 -13.5q-21 -2 -36 4t-21 21.5t-1 42t25 66.5
q29 57 61.5 105t65 90l64 80t58.5 76l-195 -192l-146 -139.5t-104 -92t-69 -49t-41 -11t-20 21.5q-6 19 4.5 54t33.5 80.5t55 98.5t69.5 106.5t78 104.5t80 93t75 72.5t62.5 42.5q43 19 42.5 29.5t-29.5 10.5t-79.5 -9.5t-109 -31.5t-117 -55.5t-103.5 -80.5z" />
    <glyph glyph-name="V" unicode="V" horiz-adv-x="360"
d="M209 523q-20 -23 -40.5 -23.5t-29.5 13t-1.5 37t43.5 49.5q55 40 119.5 67.5t125.5 43.5t112.5 20t81 -2.5t30 -23.5t-39.5 -44q-32 -22 -63 -56.5t-62 -78t-60.5 -94l-58.5 -104.5q85 77 173 147.5t169.5 126.5t153 93.5t124 48.5t81.5 -8.5t26 -77.5q-1 -22 -13.5 -37
t-26.5 -20.5t-24 0t-6 26.5q11 55 -13.5 71t-73.5 1.5t-118.5 -54.5t-149 -97.5t-164.5 -128t-165 -144.5l-28 -53l-23.5 -44l-23.5 -42.5l-27 -48.5q-23 -41 -49 -64.5t-49 -32.5t-39 -3.5t-19 23t9 46.5t47 67q30 34 61.5 64.5l66.5 65.5l55.5 107.5t68 115.5t81 106
t93.5 79q35 21 35 33t-24 13t-67 -9t-94 -32t-105 -57.5t-99 -84.5zM181 96l31.5 53.5t31.5 57.5l-48.5 -51.5t-44.5 -50.5q-34 -41 -43.5 -64t-2 -26t28 16.5t47.5 64.5z" />
    <glyph glyph-name="W" unicode="W" horiz-adv-x="643"
d="M865 730q28 20 54.5 22.5t38.5 -6t2 -25.5t-55 -36q-15 -6 -30.5 -14.5l-33.5 -18.5q-51 -66 -100.5 -155l-98.5 -183q85 78 173.5 150.5t171.5 130t155 96.5t125 51t82.5 -7.5t26.5 -77.5q-1 -22 -14 -37t-27.5 -20.5t-25 0t-6.5 26.5q10 55 -14.5 70.5t-74 0
t-118 -56.5t-148 -100t-164.5 -131t-166 -148l-27.5 -53.5l-21 -40t-20 -36.5l-25.5 -42q-24 -40 -50.5 -64t-49 -32.5t-38 -3t-18 23t10.5 46t48 66.5l60.5 66l64.5 68l44.5 88l41.5 82t44 79.5t53 81.5q-47 -30 -97 -67.5t-100.5 -79.5l-100.5 -87.5l-98 -91.5l-27 -51.5
t-21.5 -40l-21.5 -37.5l-27 -46q-23 -41 -48.5 -65t-48 -32.5t-38.5 -3t-19.5 23t8.5 46.5t46 67q29 34 61 67.5t70 66.5l53.5 107t65 111.5t78 102.5t92.5 80q35 21 34.5 33t-24.5 13t-67 -9t-94 -32t-105 -57.5t-99 -84.5q-20 -22 -40.5 -22.5t-29 12.5t-0.5 36.5t45 49.5
q54 40 118.5 68t125 43.5t112 20t81 -2t30 -24t-39.5 -44.5q-34 -23 -65.5 -58.5t-62 -80.5t-60 -97l-58.5 -107q106 97 211 182.5t202 146.5q23 26 44.5 46.5t44.5 37.5zM184 99q17 26 31.5 53t26.5 56q-25 -23 -47 -48.5l-45 -53.5q-34 -41 -42.5 -64t0 -25.5t29.5 17.5
t47 65zM468 99q16 25 30.5 51.5t28.5 55.5l-49 -51t-43 -49q-35 -42 -44 -65t-1 -25t29.5 18t48.5 65z" />
    <glyph glyph-name="X" unicode="X" horiz-adv-x="783"
d="M556 565q-21 -22 -41 -22.5t-28.5 13t0 36.5t44.5 49q56 39 120 66.5t124.5 43.5t111 20.5t79 -2t29 -23.5t-39.5 -44q-14 -10 -34.5 -30.5t-44.5 -49.5t-50 -65l-53 -76q77 64 152.5 119t144 96t126.5 65.5t99.5 27.5t63.5 -18.5t18 -71.5q-2 -22 -15 -37t-27 -20.5
t-24 0.5t-5 27q12 49 -6 67.5t-58 11.5t-98.5 -36.5t-128 -76.5t-145.5 -108.5t-151 -131.5q-27 -44 -50.5 -89.5t-41.5 -88t-29.5 -81.5t-13.5 -70q-2 -24 10 -35t32 -10q30 1 72 27t85 71l6 -12q-18 -18 -38 -35.5t-41 -32t-42.5 -25t-41.5 -14.5q-31 -6 -57.5 1t-40.5 34
q-9 16 -9 40t6.5 53.5t19.5 63.5t31 71l-126.5 -110.5t-116.5 -89t-102.5 -58.5t-84.5 -18q-52 4 -74.5 32.5t-21.5 67.5t21.5 81t53.5 73.5t75.5 45t87.5 -5.5q26 -12 29 -28.5t-6.5 -28.5t-28 -16t-36.5 8q-28 19 -55.5 18.5t-51 -14t-40.5 -37t-23 -49.5t0.5 -52
t30.5 -44q23 -18 55 -16t70.5 19.5t83.5 48.5t94 71l101.5 87l107.5 97q34 60 73.5 118.5t78.5 107.5t74 84t60 47q36 18 37 28.5t-22 12t-65 -7.5t-93 -30.5t-105 -56t-101 -83.5z" />
    <glyph glyph-name="Y" unicode="Y" horiz-adv-x="597"
d="M371 175q15 -15 14.5 -33t-10.5 -29.5t-26 -12.5t-31 19q-46 61 -86.5 81.5t-72 15.5t-51.5 -30t-23.5 -55t11 -58.5t52.5 -41.5q64 -21 127 1t132.5 85t150 165.5t178.5 243.5q-92 -93 -164 -150t-124 -82.5t-82 -22t-37 30.5q-7 28 1 63.5t27.5 73.5t47.5 76t61 71.5
t69 60t70 41.5q44 19 44.5 29t-28 9.5t-79 -11t-109 -32t-117.5 -55.5t-104 -80q-21 -21 -41.5 -21t-30 13t-2 36t42.5 48q56 40 126 66.5t139 40.5t128.5 17t94 -4t35.5 -23.5t-46 -40.5q-36 -18 -80.5 -59t-84.5 -90t-67 -96t-27 -77q0 -21 18 -28t62.5 15.5t120.5 84.5
t192 179q16 23 31 47.5t30 42.5t30.5 27t31.5 1t14.5 -23t-13 -32.5t-29 -35.5t-34.5 -32l-88.5 -132.5t-102 -148t-114 -142.5t-123.5 -115.5t-131.5 -67t-137.5 3.5q-41 13 -63.5 37.5t-29.5 52.5t0.5 57.5t26.5 53.5t48.5 39t66 14.5t79 -19t87.5 -62.5z" />
    <glyph glyph-name="Z" unicode="Z" horiz-adv-x="643"
d="M433 599q-27 -26 -45.5 -23t-21 22t14.5 46t61 49q87 43 137.5 53t72 -0.5t16 -36t-30.5 -55.5q-53 -63 -50 -77t47 13q13 7 32.5 21.5l41.5 32t43.5 36.5l39.5 36q6 20 19 25t22.5 0.5t11 -15t-16.5 -21.5q-30 -45 -68 -85t-77.5 -73t-76 -57t-63.5 -36q61 -2 95 -38.5
t39 -88.5q6 -52 -16 -101t-60.5 -90.5t-88.5 -73t-99 -48.5q-53 -18 -115.5 -23.5t-122.5 14.5q-50 17 -78 46t-38 63.5t-3 70t27 66t52 51t73 25t88.5 -11.5t98.5 -59q18 -15 18.5 -33t-8.5 -29.5t-24.5 -13t-29.5 16.5q-50 63 -97 81.5t-84.5 7t-61.5 -44.5t-28.5 -72
t14 -75.5t67.5 -55.5q53 -21 112.5 -19t119.5 26q33 13 73 41t75 65t57 81t19 89q-2 30 -17 53t-39.5 36.5t-57 14.5t-69.5 -14q-8 -3 -13 1t-5.5 10.5t2.5 13.5t11 10q60 16 109.5 39t91 52t77 62.5t68.5 71.5l-72 -59.5t-63 -45.5t-51.5 -25t-37.5 2q-8 4 -15 12t-7.5 21
t8.5 32.5t32 45.5q29 32 38 48t3 19t-23.5 -5.5t-42 -25.5t-53.5 -40.5t-57 -50.5z" />
    <glyph glyph-name="bracketleft" unicode="[" horiz-adv-x="550"
d="M656 703q-40 -53 -100.5 -141t-129.5 -199t-140.5 -239.5t-133.5 -262.5q22 5 46.5 7t50.5 0q7 0 9 -4.5t0 -9.5t-7 -8.5t-12 -2.5q-20 4 -40 5t-56 -6q-2 -7 -16 -11t-26.5 -1.5t-19 13t6.5 32.5l246.5 405.5l262.5 408.5l14.5 21.5t17 23.5t16 19t12.5 8q-8 -1 -11 2
t-3 7.5t3.5 8t8.5 3.5q44 -2 86.5 -2.5t86.5 2.5q7 0 8.5 -3t-0.5 -7t-7 -7t-12 -3q-38 2 -60.5 2t-39 -5.5t-30 -18.5t-31.5 -37z" />
    <glyph glyph-name="backslash" unicode="\" horiz-adv-x="595"
d="M244 839q9 -115 30 -250t51.5 -275t69 -278.5t81.5 -259.5q6 -16 0.5 -33.5t-15.5 -27t-21.5 -5.5t-18.5 33l-134 563t-106 517q-3 15 6 28.5t21 19t23 -1t13 -30.5z" />
    <glyph glyph-name="bracketright" unicode="]" horiz-adv-x="550"
d="M30 -158q-6 -1 -9 2.5t-2 8t5 9t11 5.5q22 3 55.5 4.5t55.5 1.5q-4 3 -2.5 10.5t6 17t10.5 19.5l11 18l138.5 222l127 204l125 196.5l131.5 201.5q-27 2 -50 0.5l-55 -3.5q-8 0 -11.5 3.5t-3 8t5 8t12.5 3.5q28 -1 58.5 -1.5t60.5 -0.5q4 6 20 6t27 -2q18 -5 14.5 -15
t-16.5 -10q-54 -68 -121 -163t-138 -206l-141.5 -232.5t-133.5 -241.5q-10 -19 -16.5 -32.5t2.5 -16.5q7 -2 2 -10.5t-16 -6.5q-20 4 -41 4.5t-33 0.5q-30 0 -53.5 -5.5t-35.5 -7.5z" />
    <glyph glyph-name="asciicircum" unicode="^"
d="M277 521q-17 -13 -29 -14t-17 4.5t-2 15.5t17 19q18 11 46.5 32.5l61.5 47.5l68 55.5t65 57.5q1 22 14 29.5t24.5 4t14 -16t-15.5 -28.5q-1 -18 -1.5 -41t-0.5 -49.5t1 -53.5t3 -52q1 -15 -8.5 -23t-21 -8.5t-20.5 7t-6 23.5q1 8 4.5 26.5t6.5 42t4.5 50t0.5 52.5
q-38 -40 -90.5 -85t-118.5 -96z" />
    <glyph glyph-name="underscore" unicode="_"
d="M75 -51q-8 0 -11 5t-2 11.5t6 11t13 3.5q30 -5 73 -6.5t85.5 -0.5t76.5 2.5t46 2.5q13 1 18.5 -3.5t5 -10.5t-8 -11t-19.5 -5q-39 1 -84.5 1.5t-86 0.5t-71.5 -0.5t-41 -0.5z" />
    <glyph glyph-name="quoteleft" unicode="&#x2018;" horiz-adv-x="222"
d="M218 407q-2 -11 -12 -13.5t-20.5 0.5t-17 11.5t-1.5 19.5q19 44 42.5 65.5t62.5 33.5q15 4 23 1.5t9.5 -8.5t-3.5 -12t-18 -7q-23 -3 -34.5 -12t-17.5 -22t-8 -27.5t-5 -29.5z" />
    <glyph glyph-name="a" unicode="a" horiz-adv-x="326"
d="M332 107q-56 -61 -95 -86.5t-60 -26.5t-25 18.5t10 48.5q-13 -13 -30 -27.5t-36.5 -25t-40 -14t-40.5 4.5q-15 6 -18 22t3.5 38t21 48t35.5 51q-26 -23 -51 -51l-6 12l36 35t53.5 46t61.5 41.5t62 22.5q32 4 47 -5t20 -28q5 4 10.5 7.5t11.5 5.5q5 2 14.5 1.5t17 -3
t11 -8t-3.5 -12.5q-24 -26 -41 -42t-31.5 -33t-30 -39.5t-36.5 -61.5q-11 -20 -4 -23.5t25.5 7t45.5 33.5t57 56zM66 25q24 3 45 18t40.5 37t38 48t37.5 50q3 14 8.5 26.5t-3.5 23.5q-10 12 -31 1.5t-45 -34t-47 -53.5t-38 -57t-18.5 -44.5t13.5 -15.5z" />
    <glyph glyph-name="b" unicode="b" horiz-adv-x="317"
d="M292 266q17 -10 17 -32.5t-12.5 -51t-35.5 -59.5t-51 -58q9 -3 21.5 0t27 10.5t29.5 18.5t29 25l6 -12l-30 -25t-34 -22.5t-37.5 -15t-38.5 -3.5q-23 -18 -47 -30.5t-47 -17.5q-24 -4 -41.5 1.5t-25.5 20.5t-4 39.5t23 58.5l20 36.5l20 34.5q-14 -17 -35 -38.5t-40 -38.5
l-6 12q24 23 58 60.5t69 83.5q50 85 87 142.5t65.5 98l50.5 70l42 58.5q13 20 31.5 25.5t31.5 0.5t15 -18.5t-17 -32.5q-56 -54 -96.5 -102t-76 -102t-69.5 -119l-76 -152q-13 -27 -20.5 -53.5t-5 -40.5t17 -10.5t46.5 35.5q-15 19 -15.5 45t8.5 52.5t25.5 50.5t37 40
t42.5 21t41 -6zM173 86q13 14 27.5 31.5t25 36.5t15 37t-1.5 34q-5 13 -22 3.5t-32.5 -32t-22 -52.5t10.5 -58z" />
    <glyph glyph-name="c" unicode="c" horiz-adv-x="283"
d="M195 183q5 8 11.5 21t5.5 24q-1 13 -19 2.5t-41 -34.5t-44 -56.5t-27 -62.5q-6 -29 9 -41.5t43.5 -7.5t67.5 27.5t82 63.5l6 -12q-46 -48 -89 -74t-79 -33.5t-61 1t-35 29.5q-11 23 -4.5 53.5t26.5 61.5q-8 -5 -19 -15.5t-22 -22.5l-6 12l42.5 39.5t53 45.5t60 39
t62.5 21q20 2 33.5 -4t19.5 -18t5 -29t-11 -36q-11 -21 -25.5 -26.5t-27 -2t-18.5 13.5t1 21z" />
    <glyph glyph-name="d" unicode="d" horiz-adv-x="311"
d="M317 107q-52 -64 -87.5 -89.5t-54.5 -25.5t-22.5 21t9.5 50q-15 -16 -33 -31t-37.5 -25t-39.5 -13t-38 5q-15 7 -19 22t1 34.5t18 43t31 46.5q-10 -7 -19.5 -17l-19.5 -21l-6 12l28.5 29t40.5 38t50.5 38.5t57.5 29.5q17 8 41 12.5t38 -5.5l87.5 146.5l58.5 98.5l42 68.5
t39 57.5q13 20 32 25.5t32.5 0.5t16.5 -18.5t-15 -32.5q-58 -62 -103.5 -124.5t-85.5 -130.5t-78 -143.5l-81 -162.5q-8 -17 -3.5 -20.5t19.5 6t39.5 31t54.5 56.5zM66 25q13 2 23 5.5t18.5 10t17 15.5t20.5 23q15 17 25 31.5t18 29.5l17 32l22 40q3 19 -11.5 21t-39.5 -15
q-26 -18 -55 -51.5t-49 -66t-24.5 -55.5t18.5 -20z" />
    <glyph glyph-name="e" unicode="e" horiz-adv-x="268"
d="M274 107q-46 -48 -87 -74t-74 -33.5t-55.5 1t-32.5 29.5q-11 23 -5 53.5t25 61.5q-8 -6 -17.5 -15.5l-21.5 -22.5l-6 12l24 24.5t26 25l30.5 26.5t38.5 30q21 15 44.5 25.5t48.5 13.5q35 4 50.5 -15.5t-1.5 -54.5q-10 -21 -31 -37.5t-46.5 -29.5t-51.5 -21.5t-47 -13.5
q-11 -35 -1 -51.5t36 -13.5t64.5 25.5t83.5 66.5zM206 228q-2 12 -15.5 5t-32 -25.5t-37 -45t-30.5 -54.5q22 7 43.5 18t38.5 26t26.5 34t6.5 42z" />
    <glyph glyph-name="f" unicode="f" horiz-adv-x="208"
d="M407 501l-61 -64l-54.5 -53l-52 -50l-54.5 -54l-64 -105.5l-62 -108.5q-1 -18 10 -25t31 -2t47.5 24.5t60.5 55.5l6 -12q-28 -30 -55 -52.5t-50.5 -34.5t-42 -11t-30.5 17l-91.5 -157.5t-59.5 -110.5t-39 -90t-30 -95q-6 -22 -21 -30t-28 -3.5t-20 19.5t4 39
q24 55 61 121l81.5 141.5l94 158.5l100.5 172l-18 -18.5l-21 -22l-22.5 -23l-20.5 -20.5l-6 12l52.5 52.5t63.5 68.5l85 145l61 99t47 69.5t43 55.5q32 40 64 49t47 -7.5t5 -55.5t-61 -94zM216 334l67.5 74.5l89.5 100.5q32 36 42.5 58t5 27.5t-25 -8t-47.5 -49.5
q-9 -11 -24 -33l-33.5 -50l-38 -59t-36.5 -61z" />
    <glyph glyph-name="g" unicode="g" horiz-adv-x="331"
d="M54 -90l41.5 66.5t47.5 67.5q-13 -12 -28.5 -23t-32 -18t-34 -9t-34.5 5q-16 6 -18.5 22.5t4.5 38.5t23 48t38 51q-26 -21 -55 -52l-6 12l34 33.5t50.5 44t61.5 41.5t66 26q30 7 45.5 -2t20.5 -26q26 24 53 30q6 1 14 1.5t14 -2t8 -7.5t-4 -14q-23 -33 -41.5 -56.5
t-37 -44.5l-38.5 -43.5t-45 -53.5q-17 -21 -31 -41l-28 -40q53 35 100.5 72.5t88.5 81.5l6 -12q-40 -46 -95.5 -89t-120.5 -85q-30 -49 -55.5 -95.5t-54 -90.5t-64 -87t-84.5 -86q-54 -47 -111 -75.5t-105.5 -39.5t-84 -5.5t-46.5 26.5t7 57t76 85q48 41 102 77.5t112 71
l119 69zM-212 -445q43 37 77.5 76t63.5 79.5t55 83l52 86.5l-110 -64.5l-103.5 -63t-93 -63t-77.5 -64.5q-41 -39 -58 -68.5t-15 -48t20 -26t47 -2.5t66 23.5t76 51.5zM148 77q23 23 47.5 56l45.5 63q2 8 3 15.5t-6 16.5q-13 10 -36 -2t-49 -36t-50 -54t-38.5 -56t-15 -42.5
t21.5 -12.5q26 5 41 18t36 34z" />
    <glyph glyph-name="h" unicode="h" horiz-adv-x="357"
d="M365 632q14 20 32.5 25.5t31 0.5t15 -18.5t-16.5 -32.5q-97 -99 -177 -223.5t-149 -271.5q40 47 77.5 81.5t70.5 54.5t60 24.5t46 -8.5q9 -6 5 -22t-16.5 -36.5t-30 -44.5l-34.5 -46.5l-31 -41.5t-19 -30t-1 -15.5t19 2.5t42 28t68 61l6 -12l-41.5 -40t-45.5 -39.5
t-44.5 -26t-38.5 0.5q-21 10 -20.5 30t13.5 44.5t33 50.5l39 48.5t31.5 39t9.5 21.5q-5 8 -32.5 -7.5t-63 -43t-71 -63t-56.5 -66.5q-5 -10 -9 -20t-9 -21t-19 -16t-27.5 -3.5t-21 10.5t1.5 26l42 74.5l40 68.5l-68 -68l-6 12l47.5 47.5t59.5 63.5l87 142.5l70.5 111
l56.5 85z" />
    <glyph glyph-name="i" unicode="i" horiz-adv-x="193"
d="M64 51q-12 -20 -8.5 -27.5t21 -0.5t47 30t69.5 66l6 -12l-48 -50t-38.5 -35t-33 -21t-31.5 -8q-38 -2 -44 20.5t12 57.5q8 15 21 35l27.5 41l28.5 40.5t23 34.5q-19 -18 -30.5 -30l-22 -24l-23.5 -26l-34 -35l-6 12q36 38 68 76t70 71q9 7 26 9t31 -1.5t18.5 -12.5
t-11.5 -22q-18 -17 -36.5 -39.5t-36 -48l-34 -51.5zM262 451q10 9 25.5 11.5t27 -1.5t13 -14.5t-16.5 -26.5q-4 -3 -12 -13t-18.5 -19.5t-22 -15t-21.5 0.5q-21 10 -11 32t36 46z" />
    <glyph glyph-name="j" unicode="j" horiz-adv-x="228"
d="M234 107q-42 -47 -100 -90t-124 -85l-52 -93.5t-56 -92t-66.5 -89t-82.5 -83.5q-54 -47 -112.5 -75.5t-109.5 -39t-88 -4t-49 28t7.5 57.5t81.5 86q99 78 217 144l243 138q43 77 91.5 156t120.5 157q-38 -14 -71.5 -43.5l-77.5 -71.5l-6 12q17 19 38.5 39.5t44.5 40
t47 37t47 30.5q9 5 26 6.5t30.5 -1.5t18.5 -10.5t-11 -21.5q-75 -65 -125 -136.5t-91 -144.5q57 36 108 75.5t95 85.5zM-322 -442q45 38 81 78t65.5 80.5t55 82.5l49.5 85l-114 -66.5l-107.5 -64.5t-96 -63.5t-79.5 -62.5q-61 -55 -68.5 -91.5t20.5 -48.5t81 4t113 67z
M285 451q10 9 25.5 11.5t27 -1.5t13 -14.5t-16.5 -26.5q-4 -3 -12 -13t-18.5 -19.5t-22 -15t-21.5 0.5q-21 10 -11 32t36 46z" />
    <glyph glyph-name="k" unicode="k" horiz-adv-x="365"
d="M365 632q13 20 31.5 25.5t31.5 0.5t15 -18.5t-17 -32.5q-94 -96 -173.5 -218.5t-145.5 -264.5q75 88 134.5 125.5t111.5 14.5q19 -9 15.5 -32.5t-25.5 -48.5t-60 -43.5t-88 -17.5q4 -23 12.5 -44t18.5 -36q4 -7 12.5 -10t24.5 4t40.5 26t61.5 57l6 -12q-20 -23 -44 -46
t-48.5 -39.5t-47.5 -23.5t-39 1q-17 8 -26 23.5t-14 35t-6 41t-1 42.5q-20 -20 -37 -40t-30 -40q-11 -24 -20 -46q-4 -11 -18.5 -16t-28.5 -3.5t-22 10.5t2 26l44.5 77.5l42.5 71.5q-15 -14 -35.5 -35.5l-36.5 -38.5l-6 12l48.5 49t59.5 64l87 143l70.5 110l56 84zM298 236
q-10 4 -26.5 -1.5t-36.5 -18.5t-42.5 -31t-43.5 -39q33 -6 65 5.5t55 28.5t32 34t-3 22z" />
    <glyph glyph-name="l" unicode="l" horiz-adv-x="189"
d="M195 107q-52 -63 -89.5 -88.5t-59.5 -26.5t-28.5 16.5t4.5 42.5q16 38 33.5 75.5l36.5 75.5l-43.5 -49l-42.5 -46l-6 12l26 27l34 38l37 45t37 50q34 63 68.5 120l64.5 103.5l52.5 80.5t33.5 49q14 20 33 25.5t32.5 0.5t17 -18.5t-14.5 -32.5q-58 -62 -104 -124.5
t-86.5 -130.5t-78.5 -143.5l-80 -162.5q-8 -17 -2.5 -20.5t21.5 6t41 31t57 56.5z" />
    <glyph glyph-name="m" unicode="m" horiz-adv-x="432"
d="M0 119l29 30l40 41l41 40t32 28q10 8 21 8t18.5 -5t9.5 -14.5t-5 -21.5l-11.5 -18.5t-10.5 -17.5q28 35 58.5 57.5t67.5 14.5q9 -2 11 -11t-2 -22t-12.5 -30t-19.5 -36q27 28 51.5 50t45.5 35t39 15t32 -9q9 -7 5.5 -23t-14 -35.5t-26 -41l-30.5 -41l-27 -35t-15 -22.5
q-4 -9 0 -12t16.5 3.5t34 23.5t53.5 49l6 -12q-14 -17 -36 -37t-46 -37.5t-46 -28t-37 -8.5q-14 2 -19 11t3 28q5 11 16.5 29.5l25.5 39.5l29.5 42.5l27.5 39.5q11 15 16 26t2 14t-14 -4t-32 -28q-14 -14 -36 -40l-47 -55l-49 -56.5t-40 -43.5q-3 -3 -12.5 -5t-18 -1
t-13.5 4t0 10l25 33.5l32 44l33.5 48t28.5 44t18 33t2 15.5q-11 6 -27.5 -7t-37 -35.5t-44 -51.5l-48 -57t-50.5 -50t-50 -31q-4 -2 -10.5 -1.5t-11.5 3.5t-6 7.5t6 12.5l40.5 47l45.5 56.5t44 60t37 57.5q-14 -12 -32 -29l-37 -35l-36 -35.5l-28 -29.5z" />
    <glyph glyph-name="n" unicode="n" horiz-adv-x="347"
d="M0 119l29 30l40.5 41l42 40t32.5 28q10 7 21 7.5t18.5 -5t9.5 -14.5t-5 -21q-20 -32 -40 -59.5l-40 -52.5l82.5 72.5t67 50.5t52 24t37.5 -7q8 -7 5 -22t-13 -34.5t-24.5 -40.5l-28.5 -40.5l-25.5 -35t-14.5 -22.5q-9 -19 17.5 -7.5t83.5 68.5l6 -12q-15 -17 -37.5 -37
t-46 -37.5t-45 -28t-36.5 -8.5t-20 11t3 28q6 14 22 38l34.5 50l34.5 49.5t21 36.5t-5 11t-43 -26q-22 -16 -50 -40l-56 -50.5l-54 -52.5l-43 -44q-7 -7 -20 -11t-24 -3t-16 6t4 16l38.5 47l41.5 55l42 59l39 57q-14 -12 -32 -29l-36.5 -34.5l-35.5 -34t-27 -28.5l-6 12v0z
" />
    <glyph glyph-name="o" unicode="o" horiz-adv-x="310"
d="M278 250q19 -11 10.5 -23.5t-27.5 -20.5q13 -10 15 -25.5t-3 -34t-16 -38.5t-24 -39q17 2 37 15.5t40 34.5l6 -12q-18 -19 -45.5 -38.5t-57.5 -22.5q-24 -24 -53.5 -37.5t-56.5 -14.5t-48.5 11.5t-28.5 40.5q-6 25 -2 49t15 47l-15 -15.5l-18 -19.5l-6 12l33.5 35
t40.5 38q21 22 47 39t53.5 25.5t54.5 7.5t49 -14zM67 51q4 -21 15.5 -28.5t26.5 -5.5t32 12t33 25q-24 12 -27.5 34t5 45.5t25 44t32.5 29.5q-14 11 -40 -0.5t-51 -35.5t-41.5 -56.5t-9.5 -63.5zM219 202q-14 -8 -27 -25.5t-19 -37t-2 -37t25 -25.5q12 15 22 33t16 35
t6 31.5t-7 23.5q-6 0 -14 2z" />
    <glyph glyph-name="p" unicode="p" horiz-adv-x="319"
d="M196 373q8 15 26 21t33.5 3.5t23 -12.5t-4.5 -27q-14 -18 -42.5 -51.5l-64.5 -78.5q30 27 62.5 32t53 -9t21 -47t-32.5 -82q-17 -25 -36.5 -44.5t-40.5 -35.5q27 5 62.5 26.5t62.5 50.5l6 -12q-42 -41 -86 -64.5t-93 -28.5q-33 -15 -65 -18q-17 -2 -30 5t-15 18
q-1 7 2.5 13t9 8.5t11.5 1.5t11 -7q5 -8 14.5 -14t21.5 -1q13 5 27.5 16t27.5 23.5t24.5 26.5t18.5 25q15 24 22 47.5t7 41t-8 27t-24 5t-40.5 -26t-56.5 -64.5l-29.5 -40l-34 -45.5l-33.5 -47l-29 -43.5q-42 -66 -71 -116t-52 -97t-43.5 -98.5t-45.5 -120.5
q-6 -17 -21.5 -27t-29 -9.5t-19.5 13.5t8 43l53.5 113.5l48 93l47.5 84l53 86l64 100l80 124.5l-19.5 -20.5l-24.5 -26.5l-6 12l20 22.5l31.5 34.5l35 39l30.5 36q27 35 44.5 64z" />
    <glyph glyph-name="q" unicode="q" horiz-adv-x="288"
d="M0 119l47.5 44t60.5 49q23 20 48.5 33.5t50.5 18.5q90 16 78 -87q-2 -18 -12 -25.5t-21.5 -8.5t-22 2.5t-14.5 9.5q-6 9 -5.5 18t1.5 16.5t0 13.5t-10 10q-10 4 -29 -9t-41 -34.5t-42.5 -47.5t-32 -48.5t-11.5 -37t20 -12.5t41.5 15.5t44.5 34.5l10.5 18l11.5 19
q10 18 25.5 20t25 -5.5t8 -20.5t-24.5 -26l-90 -131l-67 -102l63 76.5l63 74l59.5 67t52.5 55.5l6 -12l-65 -72l-77.5 -90l-81.5 -100t-77 -103q-13 -21 -22 -41.5t-17 -41.5t-15.5 -43t-16.5 -46q-8 -21 -21 -29t-24.5 -4.5t-16.5 17.5t4 36q20 48 46.5 96t59 100.5
l71.5 112.5l84 133q-31 -22 -62 -33.5t-57 0.5q-13 6 -16 19.5t1 31.5t15 39t27 43q-6 -5 -12.5 -11l-14.5 -14l-6 12v0z" />
    <glyph glyph-name="r" unicode="r" horiz-adv-x="299"
d="M40 7q-7 -8 -21.5 -11.5t-27 -3t-19 6t2.5 16.5l40 48l44.5 56t43.5 59.5t37 57.5q-15 -12 -33.5 -29.5l-37 -35.5l-35.5 -35t-28 -29l-6 12q9 10 28.5 30l41 41l41.5 40t31 28q10 8 22.5 8t21.5 -5t12.5 -14.5t-3.5 -21.5q-28 -46 -56 -82.5t-59 -71.5q51 47 84.5 74
t56.5 42q2 4 4.5 8.5l5.5 9.5q19 29 35.5 41t29 12.5t19.5 -7.5t6.5 -19.5t-9 -23t-27.5 -17.5l-39 -15q-18 -32 -20.5 -53t6.5 -29t27 -2t40 27l6 -12q-20 -20 -42 -27.5t-39 -2t-23.5 25t5.5 52.5q-34 -21 -72 -54.5t-94 -93.5z" />
    <glyph glyph-name="s" unicode="s" horiz-adv-x="245"
d="M66 -7q-25 2 -35.5 11.5t-14.5 22.5q-7 23 4 38.5t32 11.5q13 -2 18.5 -12.5t3.5 -21.5q-1 -5 -4 -9.5l-5.5 -8t-3.5 -6.5t2 -4q12 -6 26 10t24.5 43t16 60.5t1.5 62.5q-3 13 -3 24q-17 -11 -35 -26t-34.5 -30.5l-30.5 -29t-22 -22.5l-6 12l26.5 25.5l34.5 33l36 35
l32 31.5q5 16 14 28q7 9 16.5 12t18.5 1t14.5 -8.5t3.5 -15.5t-9 -15t-13 -12t-8.5 -15t2.5 -25q14 -42 16 -73.5t-4 -54.5q17 10 33.5 24t31.5 29l6 -12q-16 -17 -37.5 -35.5t-46.5 -35.5q-17 -26 -44.5 -35.5t-56.5 -7.5z" />
    <glyph glyph-name="t" unicode="t" horiz-adv-x="206"
d="M92 309q2 8 7.5 10.5t22.5 -0.5q11 -2 19.5 -3t20.5 -1q22 30 43 65t56 87q13 19 31 25t30.5 1.5t14.5 -18t-17 -33.5q-23 -24 -46.5 -55l-52.5 -69q18 1 35.5 2.5t32 1.5t23 -2t8.5 -6q0 -11 -7 -13.5t-18 -0.5q-18 2 -42.5 3t-42.5 1q-25 -35 -51 -75.5l-54 -88.5
q-5 -9 -15.5 -26t-20.5 -35.5t-15.5 -34.5t-1.5 -23.5t20.5 -2t52.5 30.5q17 12 37 29.5t43 40.5l6 -12q-55 -57 -99 -84.5t-76 -29.5q-38 -2 -44.5 21.5t14.5 58.5q17 29 40 63t46 63q-15 -15 -24 -25l-17 -19l-18 -20t-27 -28l-6 12l51.5 55.5t52.5 58.5l11.5 14t15 19
l14 19.5l10.5 15.5q-30 -2 -47.5 -1.5t-15.5 9.5z" />
    <glyph glyph-name="u" unicode="u" horiz-adv-x="340"
d="M20 -1q-17 6 -20.5 23t3.5 40.5t22.5 50.5t36.5 52l-25.5 -26l-30.5 -32l-6 12l31.5 35l32.5 37.5l31.5 35.5t29.5 29q12 11 27 14t26 -1.5t14 -15.5t-9 -28q-10 -14 -28 -36l-36.5 -46l-35.5 -47t-25 -40.5t-4.5 -26t25.5 -3.5q9 2 19.5 8t25 20t34 37.5l48.5 60.5
l30 38t30.5 35.5t31.5 28.5t33 18q5 2 13 2t14 -2t8 -7.5t-4 -14.5q-22 -34 -41 -55.5l-37 -42t-36.5 -44.5t-38.5 -62q-11 -20 -3.5 -24.5t26.5 5t47.5 33t60.5 59.5l6 -12q-56 -62 -95.5 -87.5t-62.5 -26t-29 19t6 46.5q-47 -44 -83 -56t-62 -4z" />
    <glyph glyph-name="v" unicode="v" horiz-adv-x="347"
d="M307 264q12 0 25.5 -11t13.5 -34q0 -28 -20 -61.5t-49 -64.5q17 -3 36 4.5t34 21.5l6 -12q-17 -16 -42 -24t-48 -4q-38 -37 -84.5 -62t-86.5 -24q-11 0 -22.5 2.5t-21.5 8.5t-16.5 16.5t-6.5 25.5q0 19 10 41t24 43t30 41l28 34t17.5 22t-0.5 6q-8 -3 -22.5 -16t-32 -31
l-36.5 -39l-37 -40l-6 12l33.5 37l34.5 37t33.5 33t32.5 24q15 9 32 13t29 1t15 -13t-9 -29q-15 -22 -36 -47.5t-40 -51t-32 -49.5t-12 -44q1 -15 14.5 -18t34 5t46 27.5t49.5 49.5q-22 22 -21.5 52.5t14.5 57.5t38.5 45t50.5 15zM279 233q-15 -2 -28 -17t-20.5 -35
t-7 -40.5t12.5 -32.5q10 12 18.5 26t16.5 29q4 8 9 20t7.5 23t1 19t-9.5 8z" />
    <glyph glyph-name="w" unicode="w" horiz-adv-x="493"
d="M89 -7q-11 0 -22 2.5t-20.5 8.5t-15.5 16.5t-6 25.5q0 19 10 41.5t24.5 45t31 43l29 35.5l19 23t0.5 5q-8 -4 -23 -18t-33.5 -33l-38.5 -40.5l-38 -40.5l-6 12l35.5 38.5l37 39.5t36.5 35t33 24q14 7 28 8t23 -5t10.5 -17.5t-8.5 -28.5q-14 -22 -33.5 -45.5l-38 -47.5
t-31 -47t-11.5 -43q1 -17 12.5 -19t29.5 10.5t40 38t44 64.5q12 34 28 66.5t30 50.5q10 14 23.5 20t24 4t15.5 -11.5t-1 -25.5q-11 -30 -30 -68t-51 -69q-11 -15 -11.5 -32t5.5 -29t21 -15.5t35 3t41.5 22.5t39.5 42q-29 15 -35 45.5t4 61t33.5 53.5t53.5 22q17 0 28 -11
t13 -34q2 -30 -11 -65t-38 -67q17 -1 34.5 8t33.5 24l6 -12q-15 -14 -39 -25t-47 -9q-29 -34 -68.5 -56t-84.5 -24q-21 -1 -44 10t-29 46q-23 -21 -45 -38.5t-53 -17.5zM402 230q-13 4 -24 -12t-15.5 -39t0 -47t23.5 -36q17 29 27 67q2 8 3.5 19t1 21t-4 17.5t-11.5 9.5z
" />
    <glyph glyph-name="x" unicode="x" horiz-adv-x="318"
d="M-6 -1q-15 -11 -26.5 -9.5t-14.5 8t4 16.5t29 16q29 8 64.5 30t83.5 57l16.5 34t14.5 33.5t8.5 27.5t-0.5 18q-5 9 -21 2t-39 -24.5t-51 -44t-56 -56.5l-6 12q80 84 132 123t86 16q14 -10 17.5 -27t-1.5 -37l40.5 30l43.5 32q19 13 31 12.5t15 -7.5t-3.5 -16t-25.5 -12
q-15 -2 -43 -19t-63 -42q-6 -17 -14 -37q-9 -21 -17.5 -38t-14.5 -30.5t-9 -25t-1 -20.5q2 -8 17 -2.5t36 20.5t45.5 36t46.5 44l6 -12l-50 -47t-55 -43.5t-55 -25.5t-50 8q-9 6 -12 15.5t-1 22t7.5 27t13.5 30.5l-73 -55t-55 -40z" />
    <glyph glyph-name="y" unicode="y" horiz-adv-x="339"
d="M25 -1q-23 6 -26.5 25t5.5 43.5t27 52t39 50.5q-13 -11 -29.5 -27t-34.5 -36l-6 12q34 33 65.5 69t59.5 65q12 13 28 17t27.5 0.5t15 -16t-10.5 -32.5q-9 -13 -27 -34.5l-37 -45.5l-36.5 -47.5t-26.5 -41t-5.5 -26t25.5 -2.5q26 7 54.5 37t70.5 85l27 37t30 36t33 29.5
t36 16.5q5 1 13 1.5t14 -2t8 -7.5t-4 -14q-22 -33 -40.5 -56.5t-37 -44.5l-39 -43.5t-45.5 -53.5q-20 -25 -36 -47.5l-31 -45.5q59 37 111.5 77.5t96.5 88.5l6 -12q-43 -48 -103.5 -93.5t-129.5 -89.5l-54.5 -91t-53.5 -87t-62 -86t-81 -86q-52 -47 -107.5 -76t-103.5 -40.5
t-84 -6t-48 26t5.5 56t74.5 85.5q47 40 100 76t110 70l116.5 67.5l120.5 68.5q19 32 40 64l44 64q-30 -20 -57 -27.5t-47 -2.5zM-215 -445q42 37 75.5 75t62.5 78t54 81l51 84l-108 -64l-101 -61.5t-91 -61.5t-77 -64q-61 -58 -68.5 -94t19 -46.5t77 7t106.5 66.5z" />
    <glyph glyph-name="z" unicode="z" horiz-adv-x="333"
d="M339 107q-26 -30 -58.5 -58t-70.5 -54q-23 -62 -60.5 -121.5t-83.5 -114t-96.5 -102t-99.5 -84.5q-60 -46 -119.5 -73t-109 -36.5t-83 -2.5t-42.5 30t12.5 60t82.5 88q58 49 124 90l134.5 80l138.5 77.5t138 82.5q8 17 12.5 32t7.5 29q9 32 -9.5 37t-48.5 -7.5t-63 -38
t-54 -53.5q-5 -7 -13 -8.5t-13.5 1.5t-6.5 9t8 15q26 26 67.5 59l83.5 67.5t78 68.5t50 61q-23 -23 -45.5 -37.5t-42.5 -19t-37 1.5t-27 25q-18 -26 -41 -53.5t-46 -50.5l-6 12q12 12 24.5 27t24 31t20.5 31.5t14 27.5q-3 17 5.5 28t20 14t21 -3.5t8.5 -24.5
q-1 -20 10.5 -26t28.5 -2.5t36.5 14.5t35.5 25q8 25 25 29.5t30.5 -4t15.5 -26.5t-20 -38q-32 -30 -73 -63t-86 -65q25 12 44.5 12t31 -10.5t13 -30.5t-10.5 -46q63 46 114 100zM-196 -434q122 93 206 193.5t125 184.5q-64 -41 -130 -78.5l-128.5 -74.5t-118 -74t-97.5 -75
q-61 -55 -72.5 -93.5t13.5 -52.5t79 1.5t123 68.5z" />
    <glyph glyph-name="braceleft" unicode="{" horiz-adv-x="550"
d="M346 334q38 12 65 44.5t48.5 73.5t39.5 84t37 78q30 54 62 88t64 53.5t63.5 27.5t61.5 10q7 0 10.5 -4.5t2 -10.5t-9 -11t-21.5 -5q-36 0 -59 -6.5t-40.5 -22t-33 -41.5t-36.5 -65q-25 -47 -49 -97t-51.5 -94t-61.5 -76.5t-80 -43.5q24 -31 16.5 -64t-33 -71.5
t-62.5 -82.5t-73 -98q-31 -47 -43 -77t-10.5 -47.5t13.5 -22.5t30 -1q7 1 10 -1.5t1.5 -7t-7.5 -8t-18 -3.5q-25 0 -45.5 7.5t-28 27t2.5 54.5t45 89q31 48 67 91l64 79.5t41.5 67t0.5 53.5q-21 -2 -28 7.5t-3 19t17 13.5t31 -7z" />
    <glyph glyph-name="bar" unicode="|" horiz-adv-x="563"
d="M715 805l-169.5 -250l-174 -275l-164 -278.5l-141.5 -259.5q-8 -16 -23.5 -25.5t-27 -9t-14 13t15.5 41.5l348 563.5l307 516.5q10 15 24.5 20.5t24.5 0.5t10.5 -19.5t-16.5 -38.5z" />
    <glyph glyph-name="braceright" unicode="}" horiz-adv-x="550"
d="M453 296q-38 -12 -65.5 -44.5t-49 -73.5t-39.5 -85t-37 -78q-30 -54 -62 -88.5t-64 -54t-63.5 -27t-61.5 -9.5q-7 0 -11 4t-3 9t8 9.5t21 4.5q35 0 58.5 7t41.5 23.5t34.5 43t37.5 65.5q25 47 48.5 96.5t51 93t61.5 77t81 47.5q-24 31 -16.5 63.5t33 70t62.5 81.5t73 98
q31 46 43 76t10.5 46t-13.5 19.5t-30 -2.5q-10 -3 -14.5 1t-3 10t9 12t22.5 6q25 0 45.5 -7.5t28 -27t-2.5 -54.5t-45 -89q-31 -48 -67 -91l-64 -79.5t-42 -67t0 -53.5q21 5 28.5 -4t3.5 -19.5t-16.5 -15.5t-31.5 7z" />
    <glyph glyph-name="asciitilde" unicode="~" horiz-adv-x="546"
d="M166 140q-11 -10 -20.5 -10.5t-14.5 4t-5 12t8 13.5q12 10 27.5 19t31.5 15.5t31 9t27 -1.5q15 -5 24.5 -15t16.5 -20t13 -17.5t14 -8.5q23 -2 42 14l42 37q7 7 17 8t16.5 -2t7 -9.5t-9.5 -15.5q-12 -11 -28.5 -21t-33.5 -17.5t-34.5 -11t-30.5 0.5q-14 4 -22.5 13.5
t-15 19.5t-13 18t-15.5 9q-10 1 -21 -3.5t-21.5 -12t-19 -15t-13.5 -12.5z" />
    <glyph glyph-name="exclamdown" unicode="&#xa1;"
d="M72 -337l55 100.5l66.5 113l74.5 118l79 115.5q8 12 18 15.5t17.5 2t9.5 -8t-5 -15.5q-72 -93 -141 -217t-124 -260q-7 -18 -21 -24.5t-25.5 -2t-14.5 20t11 42.5zM434 258q9 9 22.5 11.5t23.5 -1t13 -12t-10 -21.5l-13 -16t-17.5 -20t-20 -15.5t-20.5 -2.5
q-20 7 -12 27.5t34 49.5z" />
    <glyph glyph-name="cent" unicode="&#xa2;" horiz-adv-x="632"
d="M661 599l-56.5 -78.5l-53.5 -75.5q20 -6 32 -20.5t15.5 -34.5t-1.5 -44t-19 -49q-11 -19 -26.5 -22.5t-27.5 2t-16 18.5t9 27q13 15 21.5 37t8.5 39q-1 12 -17 17q-69 -101 -126.5 -195.5t-112.5 -194.5q39 -11 94 6.5t112 70.5q14 14 23.5 15t13 -5t-0.5 -16.5
t-16 -18.5q-73 -51 -136 -72t-111 -18l-61.5 -117l-62.5 -126q-8 -15 -23 -24.5t-27 -9t-15 13t14 40.5l71 123l63 108q-40 14 -55 48q-16 32 -11.5 72.5t24.5 83t52.5 84t74 76t89 58t97.5 30.5l55.5 90l61.5 98q10 16 25 21t25.5 0.5t11 -19t-17.5 -38.5zM227 122
q-4 -26 4 -46t25 -34l57 97l54 90.5l53.5 88.5l55.5 90q-33 -10 -73 -34t-77 -60t-64.5 -84.5t-34.5 -107.5z" />
    <glyph glyph-name="sterling" unicode="&#xa3;" horiz-adv-x="819"
d="M349 320q2 8 10 13.5t20 3.5q23 -4 54 -5t64 1q24 46 39.5 86.5t32.5 75.5t39 67t59 62q34 28 72 37.5t67 0.5t43 -35.5t2 -69.5q-7 -24 -18 -45t-24.5 -35t-28 -18t-26.5 5q-15 10 -15.5 22.5t7 25.5t20 27t24.5 29q20 25 21.5 41.5t-10 22.5t-33.5 0.5t-48 -25.5
q-33 -25 -54.5 -54.5t-38 -63.5t-32 -72t-35.5 -81q32 2 55 1t27 -7q6 -10 -4.5 -15.5t-20.5 -3.5q-15 2 -32.5 3t-35.5 1q-25 -51 -63 -106.5t-98 -117.5q78 -45 140 -55.5t122 15.5q25 11 55.5 32t50.5 49q6 9 12.5 9t10 -4.5t3.5 -11.5t-6 -12l-50.5 -43.5t-57.5 -40.5
t-65 -29t-72 -9t-80 19t-88 56q-46 -36 -92.5 -54.5t-100.5 -9.5q-49 8 -70 28t-19.5 43t23.5 43.5t57.5 30.5t82.5 4.5t99 -35.5q52 57 86.5 106t57.5 92q-29 -1 -54.5 -3t-44.5 -2.5t-30 1.5t-9 10zM181 30q36 -9 69 8.5t71 55.5q-36 24 -68.5 31t-57.5 2t-41 -18
t-19.5 -28.5t7 -29.5t39.5 -21z" />
    <glyph glyph-name="yen" unicode="&#xa5;" horiz-adv-x="726"
d="M271 320q1 9 9.5 12.5t21.5 1.5q20 -4 46 -4.5t55 0.5q45 80 74 145.5t30.5 103t-28.5 40.5t-102 -40q-30 -19 -44 -14t-13 20t17.5 34t48.5 30q65 21 103 17t54 -25.5t13.5 -56.5t-17.5 -76.5t-40 -85.5t-53 -83q70 93 132 155.5t119 100t109.5 51t103.5 8.5
q19 -2 24 -10.5t-1 -17t-21 -12.5t-36 2q-31 9 -74.5 -1t-96.5 -44t-113.5 -92.5t-126.5 -145.5q38 2 66.5 2t32.5 -7q6 -11 -4 -15t-21 -2q-19 2 -41.5 3t-46.5 1l-17 -24.5l-18 -25.5l44 2t36.5 0.5t25 -3t9.5 -6.5q0 -11 -7.5 -15t-18.5 -2q-26 3 -51.5 4t-50.5 1
q-14 -21 -29.5 -49l-31.5 -59l-31.5 -61.5t-30.5 -55.5q-11 -18 -27 -25.5t-28.5 -6t-17 12t8.5 28.5l70 107.5l67 106.5q-48 -3 -80.5 -4t-35.5 10q-3 19 32 14q18 -2 42.5 -3t52.5 1q8 13 15 26t15 25q-26 -1 -49 -2.5t-39.5 -1.5t-25.5 2t-9 9z" />
    <glyph glyph-name="florin" unicode="&#x192;" horiz-adv-x="778"
d="M396 322q0 10 9 14.5t21 2.5q17 -3 38 -4t44 0q44 96 89.5 175.5t103.5 130.5q38 33 82 43t76.5 -1.5t46.5 -41.5t-8 -76q-4 -11 -13.5 -27.5t-22.5 -31t-28 -22.5t-31 0q-18 9 -18 24t8.5 31.5t21.5 32.5l22 27q16 24 14.5 39t-15 19.5t-35 -3t-43.5 -28.5
q-58 -57 -103.5 -131t-87.5 -158l44 2t37.5 1t27 -1t13.5 -5q6 -11 -4.5 -16.5t-20.5 -3.5q-23 3 -50.5 3.5t-56.5 -0.5l-69 -150.5t-70 -149t-77 -138t-90 -117.5q-38 -39 -79 -48.5t-71 3.5t-43 46t6 78q4 10 13.5 26.5t22.5 30t28 20.5t31 0q18 -8 18 -23t-9 -31.5
t-22 -33l-21 -26.5q-18 -24 -15 -40.5t18 -21.5t37 3t43 31q45 47 84 110t74 134.5t67.5 147l65.5 147.5q-23 -1 -42 -2t-32.5 -0.5t-21 2.5t-7.5 7z" />
    <glyph glyph-name="section" unicode="&#xa7;" horiz-adv-x="727"
d="M766 652q-17 -40 -37.5 -55t-35.5 -7q-15 9 -16.5 17.5t3.5 17.5t13 18t14 17q10 15 15 29.5t3 26t-13.5 18.5t-34.5 7q-15 0 -32.5 -2t-35 -10.5t-32.5 -24.5t-24 -44q-10 -31 -6 -55.5t15 -45.5t24 -40t21 -40t6.5 -45.5t-20.5 -55.5q-22 -37 -60 -68t-100 -42
l22.5 -36t17.5 -38t3 -43t-20 -52q-12 -21 -30.5 -41t-44 -36t-59 -25.5t-76.5 -9.5q-52 0 -75.5 33.5t-18.5 81.5q5 38 21 58t37 12q27 -11 23.5 -28t-17.5 -42q-11 -19 -15 -37t0.5 -32t19 -22.5t40.5 -8.5q92 0 139 97q14 29 11.5 52.5t-12 44.5t-23 41t-22.5 41.5
t-9.5 45.5t16.5 54q13 24 33.5 42t44 30.5t47.5 20t45 10.5q-11 19 -23.5 37.5t-20 39t-7 44t16.5 52.5q17 30 41 50t50.5 31t52 15.5t44.5 4.5q55 0 78.5 -27.5t2.5 -75.5zM416 383q-12 -32 -7 -56t17 -46q36 8 63.5 29.5t47.5 64.5q13 28 11 51t-11 43q-16 -1 -33 -5
t-33.5 -13.5t-31 -25.5t-23.5 -42z" />
    <glyph glyph-name="currency" unicode="&#xa4;" horiz-adv-x="749"
d="M493 119l-7.5 25t-7.5 24q-22 -8 -49 -13t-55.5 -4.5t-56 6.5t-51.5 19l-49 -41.5l-57 -47.5q-14 -12 -26.5 -11t-17.5 11t1 25t30 32l45 30.5l44 30.5q-16 26 -14 59.5t18.5 69t46 68.5t69.5 59l-18.5 34.5l-19.5 36.5q-9 16 -5.5 28.5t13 18t21 0.5t18.5 -25
q6 -20 12.5 -38l13.5 -36q35 17 75 27t84 5q12 -2 19.5 -7t7.5 -13q21 -5 38 -15l73.5 52.5l79.5 55.5q13 10 25 8.5t15.5 -11t-3.5 -24t-31 -29.5l-68.5 -41.5l-60.5 -36.5q21 -27 20.5 -62t-17.5 -72t-49.5 -71t-76.5 -58q7 -13 13.5 -26.5t14.5 -27.5q6 -12 0 -23
t-17 -15.5t-22.5 0t-17.5 23.5zM456 326l25 -52l27 -57q24 18 45 42t36 52t20.5 57.5t-1.5 58.5l-83.5 -53.5zM429 307l-68 -53l-67 -55q16 -15 39 -21.5t48 -7t48.5 5.5t41.5 17l-21 59t-21 55zM379 416q-27 -21 -48 -44.5t-35 -48t-19.5 -48t-1.5 -42.5l70.5 50l72.5 51
l-18.5 40.5t-20.5 41.5zM586 456q-6 5 -13 8.5t-16 5.5q-14 -6 -35 -6q-35 -1 -63 -7t-51 -20q16 -41 36 -84l69 50z" />
    <glyph glyph-name="quotesingle" unicode="'" horiz-adv-x="222"
d="M254 517q1 12 10.5 14t19 -2t16.5 -13t4 -19q-3 -9 -10.5 -25t-17 -34t-20 -34t-18.5 -24t-16 -11t-13 -1.5t-5.5 7.5t6.5 17q5 8 12 23t14 32.5t12 36t6 33.5z" />
    <glyph glyph-name="quotedblleft" unicode="&#x201c;" horiz-adv-x="350"
d="M339 409q-2 -11 -12.5 -13.5t-20.5 0.5t-16.5 11.5t-1.5 19.5q19 45 42.5 66t62.5 33q15 4 23 1.5t9.5 -8.5t-3.5 -12t-18 -7q-23 -3 -34.5 -12t-17.5 -22t-8 -27.5t-5 -29.5zM211 409q-2 -11 -12.5 -13.5t-20.5 0.5t-16.5 11.5t-1.5 19.5q19 45 42.5 66t62.5 33
q15 4 23 1.5t9.5 -8.5t-3.5 -12t-18 -7q-23 -3 -34.5 -12t-17.5 -22t-8 -27.5t-5 -29.5z" />
    <glyph glyph-name="guillemotleft" unicode="&#xab;" horiz-adv-x="619"
d="M470 415l-35 -19.5l-48 -28l-53.5 -32l-53 -33l-46.5 -30.5t-33 -24q7 -15 19.5 -33l25 -35t24 -30.5t16.5 -18.5q7 -6 7 -13.5t-4 -12.5t-11 -6t-13 6q-12 12 -24 31.5l-23 39l-21.5 36.5t-18.5 25q-15 -8 -24.5 -2t-6.5 17q5 14 15.5 13.5t24.5 7.5l37.5 23.5
l51.5 31.5l58 35l56 34.5l44.5 29t25.5 19.5t14 5.5t10 -7.5t0.5 -14.5t-14.5 -14.5zM589 415q-22 -15 -60 -37.5l-78.5 -46.5l-76.5 -46t-54 -37q7 -15 20 -33.5l26.5 -36t25 -30t15.5 -15.5q7 -5 7 -12.5t-4.5 -13.5t-12 -7.5t-13.5 5.5q-12 12 -24 31.5l-23 39
l-21.5 36.5t-18.5 25q-15 0 -16.5 11.5t7.5 14.5q13 9 37 23l53 30.5l60 35l59 36t49.5 32.5t32.5 26q7 7 14 6.5t10 -6.5t0 -14.5t-14 -16.5z" />
    <glyph glyph-name="guilsinglleft" unicode="&#x2039;"
d="M470 415l-35 -19.5l-48 -28l-53.5 -32l-53 -33l-46.5 -30.5t-33 -24q7 -15 20 -33.5l26.5 -36t25 -30t15.5 -15.5q7 -5 7 -12.5t-4.5 -13.5t-12 -7.5t-13.5 5.5q-12 12 -24 31.5l-23 39l-21.5 36.5t-18.5 25q-15 -8 -24.5 -2t-6.5 17q5 14 15.5 13.5t24.5 7.5l37.5 23.5
l51.5 31.5l58 35l56 34.5l44.5 29t25.5 19.5t14 5.5t10 -7.5t0.5 -14.5t-14.5 -14.5z" />
    <glyph glyph-name="guilsinglright" unicode="&#x203a;"
d="M150 143l34.5 21l47.5 28l53.5 31.5l53.5 32.5l47 30t33 24q-7 15 -20.5 33l-27 35t-25 30t-14.5 17q-8 10 -7.5 19t6 13.5t12.5 4t12 -8.5q8 -15 19.5 -34l23.5 -38t24 -35.5t20 -24.5q7 -6 19 -14t8 -17q-5 -8 -16.5 -9t-19.5 4l-58 -33.5l-77.5 -46.5l-78 -50
t-59.5 -43q-8 -7 -14.5 -5.5t-9 7.5t0 14t13.5 15z" />
    <glyph glyph-name="endash" unicode="&#x2013;" horiz-adv-x="600"
d="M153 152q-8 0 -11 5t-2 11t6 11t13 4q20 -3 48 -4t59.5 -1.5t63 0t59 1.5t47.5 2t28 2q13 1 18.5 -4t5 -11t-8 -11t-19.5 -5q-39 1 -88 1h-94.5t-80 -0.5t-44.5 -0.5z" />
    <glyph glyph-name="dagger" unicode="&#x2020;"
d="M349 666q-8 0 -11 5t-2 10.5t6 10t13 3.5q34 -6 60 -6q8 17 18.5 37l24.5 47q6 12 17 17t19.5 3.5t11.5 -9.5t-7 -23l-25.5 -38l-22.5 -33q14 1 25.5 3l22.5 4q13 2 18.5 -2.5t5 -10.5t-7.5 -11t-20 -5q-20 0 -33 0.5t-26 0.5l-27.5 -43l-25.5 -42.5t-26.5 -49
l-30.5 -62.5q-6 -12 -15 -16.5t-15.5 -1.5t-7.5 12.5t9 25.5l37.5 61l27.5 44t21.5 35.5l20.5 36.5q-21 -1 -32.5 -2t-22.5 -1z" />
    <glyph glyph-name="daggerdbl" unicode="&#x2021;"
d="M349 666q-8 0 -11 5t-2 11t6 10t13 3q34 -6 60 -6q8 17 18.5 37l24.5 47q6 12 17 17t19.5 3.5t11.5 -9.5t-7 -23l-25.5 -38l-22.5 -33q14 1 25.5 3l22.5 4q13 1 18.5 -3t5 -10t-8 -11t-19.5 -5q-20 0 -33 0.5t-26 0.5l-24 -37.5l-22 -36.5q18 1 31.5 3.5t26.5 4.5
q13 1 18.5 -3.5t5 -10.5t-8 -10.5t-19.5 -4.5q-23 1 -37.5 1h-28.5l-23.5 -46l-28.5 -57q-6 -12 -15 -16.5t-15.5 -2t-7.5 12.5t9 26l28 46l23 37q-18 -1 -28.5 -2t-21.5 -1q-8 0 -11 5t-2 11t6 10t13 3q33 -6 56 -6q13 20 23 37l21 37q-21 -1 -32.5 -2t-22.5 -1z" />
    <glyph glyph-name="periodcentered" unicode="&#xb7;" horiz-adv-x="280"
d="M168 107q-8 -6 -18.5 -9t-19.5 -1.5t-14 8.5t-1 21q3 10 13.5 22.5t36.5 8.5q10 -2 14.5 -8t3.5 -14t-5 -15.5t-10 -12.5z" />
    <glyph glyph-name="periodcentered" unicode="&#x2219;" horiz-adv-x="280"
d="M168 107q-8 -6 -18.5 -9t-19.5 -1.5t-14 8.5t-1 21q3 10 13.5 22.5t36.5 8.5q10 -2 14.5 -8t3.5 -14t-5 -15.5t-10 -12.5z" />
    <glyph glyph-name="paragraph" unicode="&#xb6;" horiz-adv-x="893"
d="M882 588q-3 41 -29 72.5t-70 51t-105.5 25t-135.5 -6.5q-76 -12 -133.5 -50.5t-88.5 -86t-30 -94t42 -73.5q13 -9 34.5 -11t48 2t56 12.5t58.5 21.5l43 83l40 73t35 58t29 37q7 7 14.5 8t12.5 -1.5t5.5 -7.5t-8.5 -11q-13 -9 -29 -30.5t-35 -51.5t-39.5 -67l-42.5 -78
q20 10 37.5 21.5t33.5 24.5q10 22 25 33.5t30 14t26 -2.5t13 -15.5t-8.5 -27t-38.5 -35.5l-49.5 -77.5l-53 -86l-51.5 -86l-45.5 -78.5l-35.5 -63t-21 -39q-7 -14 -2 -20t17.5 -2t29 19t31.5 43q7 13 14.5 15.5t12 -1t4 -12t-9.5 -17.5q-44 -46 -76 -63.5t-50.5 -15.5
t-23 19t4.5 40q7 16 30.5 58l56 96.5l68.5 116l68 115.5q-30 -15 -66 -27l-83 -148t-86.5 -136t-86 -100t-82.5 -41q-18 -1 -27.5 9t-9.5 21.5t9 20t28 5.5q37 -7 77 23t81 82.5t81 120.5l77 137q-48 -13 -97.5 -16t-87.5 10q-53 17 -75 47.5t-18.5 67t30 75t70 72.5
t101 59.5t124.5 35.5q51 7 110 8.5t115 -10.5t103.5 -40t75.5 -78q18 -32 9.5 -53t-26 -28.5t-35.5 0.5t-20 34z" />
    <glyph glyph-name="quotesinglbase" unicode="&#x201a;" horiz-adv-x="280"
d="M90 56q2 10 12 13t20.5 0t17 -11.5t1.5 -19.5q-20 -44 -43 -65.5t-62 -33.5q-15 -5 -23 -2t-9.5 9t3.5 11.5t18 7.5q22 3 34 12t18 22t8 27.5t5 29.5z" />
    <glyph glyph-name="quotedblbase" unicode="&#x201e;" horiz-adv-x="408"
d="M90 56q2 10 12 13t20.5 0t17 -11.5t1.5 -19.5q-20 -44 -43 -65.5t-62 -33.5q-15 -5 -23 -2t-9.5 9t3.5 11.5t18 7.5q22 3 34 12t18 22t8 27.5t5 29.5zM218 56q2 10 12 13t20.5 0t17 -11.5t1.5 -19.5q-20 -44 -43 -65.5t-62 -33.5q-15 -5 -23 -2t-9.5 9t3.5 11.5t18 7.5
q22 3 34 12t18 22t8 27.5t5 29.5z" />
    <glyph glyph-name="quotedblright" unicode="&#x201d;" horiz-adv-x="310"
d="M245 513q2 10 12 13t20.5 0t17 -11.5t1.5 -19.5q-20 -44 -43 -65.5t-62 -33.5q-15 -5 -23 -2t-9.5 9t3.5 11.5t18 7.5q22 3 34 12t18 22t8 27.5t5 29.5zM373 513q2 10 12 13t20.5 0t17 -11.5t1.5 -19.5q-20 -44 -43 -65.5t-62 -33.5q-15 -5 -23 -2t-9.5 9t3.5 11.5
t18 7.5q22 3 34 12t18 22t8 27.5t5 29.5z" />
    <glyph glyph-name="guillemotright" unicode="&#xbb;" horiz-adv-x="628"
d="M150 143l34.5 21l47.5 28l53.5 31.5l53.5 32.5l47 30t33 24q-7 15 -20.5 33l-27 35t-25 30t-14.5 17q-8 10 -7.5 19t5.5 13.5t12 4t13 -8.5q7 -10 18.5 -28.5l24 -38.5l24.5 -38t20 -27q7 -2 12.5 -7.5t6 -11.5t-5.5 -11t-22 -6q-21 -12 -51.5 -31l-66 -42l-74.5 -48.5
l-76 -51.5q-9 -6 -16 -4.5t-10.5 7t-1.5 13.5t13 15zM278 143l34.5 21l47.5 28l53.5 31.5l53.5 32.5l47 30t33 24q-7 15 -20.5 33l-27 35t-25 30t-14.5 17q-8 10 -7.5 19t6 13.5t12.5 4t12 -8.5q8 -15 19.5 -34l23.5 -38t24 -35.5t20 -24.5q7 -6 19 -14t8 -17
q-5 -8 -16.5 -9t-19.5 4l-58 -33.5l-77.5 -46.5l-78 -50t-59.5 -43q-8 -7 -14.5 -5.5t-9 7.5t0 14t13.5 15z" />
    <glyph glyph-name="ellipsis" unicode="&#x2026;" horiz-adv-x="542"
d="M110 8q-6 -6 -17 -9t-20.5 -1.5t-14.5 8.5t0 21l4.5 11.5t8 12t14 8t22.5 -0.5q10 -2 14 -8t3.5 -13.5t-4.5 -15t-10 -13.5zM192 40q5 10 16.5 14.5t22 3t17 -9t0.5 -21.5q-2 -5 -4 -11t-7 -11t-13.5 -8t-22.5 -1q-17 2 -17 15.5t8 28.5zM375 13q-5 -9 -15.5 -13
t-20 -2.5t-15.5 8.5t-3 21q1 5 3 11.5t7 11.5t14 8t25 0q17 -3 15 -17.5t-10 -27.5z" />
    <glyph glyph-name="perthousand" unicode="&#x2030;" horiz-adv-x="1311"
d="M1126 369q15 -3 16.5 -17.5t-14.5 -25.5q29 -16 34.5 -47.5t-7 -69t-39.5 -76.5t-62.5 -70.5t-76.5 -50.5t-81 -17q-41 2 -61.5 20.5t-24 47t7.5 64t33 72t53 70t67.5 58t76 36.5t78.5 6zM897 25q26 -5 58.5 11.5t63.5 44.5t57.5 63.5t40.5 69.5t12.5 61.5t-25.5 40.5
q-8 -2 -13 -2q-29 -2 -56.5 -14.5t-57.5 -35.5q-35 -26 -63.5 -64.5t-43 -75.5t-10 -65t36.5 -34zM808 660q13 19 36 26.5t39 4.5t16.5 -15t-32.5 -30l-158 -138.5l-125 -114l-101.5 -98l-86.5 -89l-80.5 -89l-83.5 -96.5q-14 -16 -33.5 -26t-32.5 -9t-11.5 13.5t29.5 41.5
l111.5 113l120 120l142 140.5l177.5 174.5q-48 -20 -101 -31t-98 -5q-1 -29 -16.5 -63t-40.5 -67.5t-57 -62.5t-67.5 -47.5t-72 -23.5t-68.5 11q-31 15 -35 51t12 80.5t48.5 91t75 83.5t91 58t97.5 13q9 -2 13 -8.5t2.5 -15t-9.5 -16.5t-23 -12q33 -9 44 -36q34 -11 72 -9.5
t75.5 12.5t71.5 29t59 39zM774 369q15 -3 16.5 -17.5t-14.5 -25.5q29 -16 34.5 -47.5t-7 -69t-39.5 -76.5t-62.5 -70.5t-76.5 -50.5t-81 -17q-41 2 -61.5 20.5t-24 47t7.5 64t33 72t53 70t67.5 58t76 36.5t78.5 6zM545 25q26 -5 58.5 11.5t63.5 44.5t57.5 63.5t40.5 69.5
t12.5 61.5t-25.5 40.5q-8 -2 -13 -2q-29 -2 -56.5 -14.5t-57.5 -35.5q-35 -26 -63.5 -64.5t-43 -75.5t-10 -65t36.5 -34zM246 330q16 -15 41 -10.5t53 22t55.5 45t50 58.5t36.5 62t15 56q-8 3 -17.5 8t-17 12.5t-11.5 16.5t0 20q-24 -4 -48 -16t-49 -32q-34 -28 -62 -63
t-44 -69.5t-18 -64t16 -45.5z" />
    <glyph glyph-name="questiondown" unicode="&#xbf;" horiz-adv-x="526"
d="M407 103q-32 -45 -60 -79.5t-58 -64t-65.5 -56.5t-80.5 -56q-75 -48 -113 -86.5t-49 -66.5t-1.5 -44.5t27.5 -20.5q44 -10 74.5 8t50.5 45q7 10 9.5 17.5t4 14.5t3.5 14t9 18q11 18 29 25t31.5 2.5t17 -21t-13.5 -45.5q-12 -21 -32.5 -41.5t-49 -36t-65.5 -23t-83 -2.5
q-36 4 -61.5 28.5t-27 59t28 74t103.5 75.5q47 22 95 47t92 56.5t80.5 71.5t60.5 93q6 14 16.5 19t19 3.5t12 -9t-3.5 -19.5zM453 190q-7 -9 -17 -13t-18.5 -2.5t-12.5 9.5t1 23q2 4 5.5 15.5t11 23t19.5 19t30 3.5q21 -4 12.5 -25t-31.5 -53z" />
    <glyph glyph-name="grave" unicode="`" horiz-adv-x="330"
d="M151 385q-6 4 -8.5 9.5t2.5 9.5q5 3 13 3t16 -8q6 -5 20.5 -19.5t29.5 -26.5q6 -5 6.5 -9.5t-2.5 -7t-8.5 -2.5t-10.5 5q-12 12 -29 25t-29 21z" />
    <glyph glyph-name="acute" unicode="&#xb4;" horiz-adv-x="330"
d="M225 401q6 5 13.5 7t12.5 0q6 -2 8 -8t-3 -8l-19.5 -8t-27 -12.5l-30.5 -16.5t-29 -19q-5 -3 -9.5 -2.5t-7 3t-2.5 6t5 6.5q15 9 27 15.5l22 12l19.5 11t20.5 13.5z" />
    <glyph glyph-name="circumflex" unicode="&#x2c6;" horiz-adv-x="330"
d="M263 354q2 -4 -2 -7.5t-9.5 -5t-10.5 0t-5 8.5q0 12 -0.5 20t-3.5 16q-21 -10 -46 -26.5l-54 -35.5q-8 -5 -12 4.5t7 14.5q30 12 55 30l45 33q-2 3 1 5.5t7.5 3.5t9 0.5t5.5 -4.5q3 -11 5.5 -29.5t7.5 -27.5z" />
    <glyph glyph-name="tilde" unicode="&#x2dc;" horiz-adv-x="330"
d="M119 344q-8 -7 -13.5 -7t-7.5 4t-1 10t6 11q16 14 37.5 25.5t34.5 8.5q9 -2 13.5 -8.5t7 -14t5 -13.5t8.5 -7q11 -2 27 9t30 28q5 6 10.5 6.5t9 -2.5t3 -9t-7.5 -13q-18 -18 -39.5 -31t-38.5 -8q-8 2 -11.5 8.5t-5.5 13.5t-5 12.5t-9 7.5q-6 1 -13.5 -2.5t-15 -8.5
t-14 -11t-10.5 -9z" />
    <glyph glyph-name="macron" unicode="&#xaf;" horiz-adv-x="330"
d="M141 354q-5 0 -7 3.5t-1.5 7.5t4 7.5t8.5 2.5q40 -5 68 -3t44 4q9 1 13 -2.5t3 -7.5t-5.5 -7.5t-13.5 -3.5q-26 1 -44.5 1t-31.5 -0.5t-21.5 -1t-15.5 -0.5z" />
    <glyph glyph-name="macron" unicode="&#x2c9;" horiz-adv-x="330"
d="M141 354q-5 0 -7 3.5t-1.5 7.5t4 7.5t8.5 2.5q40 -5 68 -3t44 4q9 1 13 -2.5t3 -7.5t-5.5 -7.5t-13.5 -3.5q-26 1 -44.5 1t-31.5 -0.5t-21.5 -1t-15.5 -0.5z" />
    <glyph glyph-name="dieresis" unicode="&#xa8;" horiz-adv-x="330"
d="M170 351q-5 -5 -12.5 -7t-14 -1t-10 6t-0.5 15q1 3 3 7.5t5.5 8.5t10 6t15.5 0q16 -3 13.5 -15t-10.5 -20zM228 373q3 7 11.5 10t16 2.5t12 -6t0.5 -15.5q-3 -7 -8.5 -16t-24.5 -6q-12 2 -12 11t5 20z" />
    <glyph glyph-name="cedilla" unicode="&#xb8;" horiz-adv-x="331"
d="M41 -95q-4 4 -2.5 9t5 8t8 3t7.5 -6q6 -11 16.5 -14.5t21.5 -1.5t20 7.5t13 13.5q7 14 -1 24t-34 4q-2 -6 -7 -6t-8 3.5t-2.5 9.5t8.5 14q9 7 18 16.5t17 16t15 8.5t12 -5t2 -10t-11 -6t-18.5 -9t-20.5 -19q15 5 29 3.5t24 -8.5t13.5 -17t-0.5 -21q-6 -16 -22 -25
t-35 -11.5t-37.5 2.5t-30.5 17z" />
    <glyph glyph-name="emdash" unicode="&#x2014;" horiz-adv-x="700"
d="M159 183q20 -3 52.5 -4.5t71 -2t80.5 -0.5t80.5 1t70 2.5t50.5 3.5q13 1 18.5 -3.5t5 -11t-8 -11.5t-19.5 -5q-26 1 -64.5 1h-81.5h-86.5h-80t-62 -0.5t-32.5 -0.5q-8 0 -11 5t-2 11t6 11t13 4z" />
    <glyph glyph-name="AE" unicode="&#xc6;" horiz-adv-x="1178"
d="M1344 540q-19 -8 -31.5 -2.5t-16 17t3.5 24t27 20.5q43 18 58 41.5t10.5 44.5t-25 35.5t-48.5 14.5q-66 0 -124 -24.5t-100 -69.5q37 -5 73 -4.5t72 9.5q13 3 15 0t-2 -7.5t-12 -9t-14 -5.5q-40 -5 -75.5 -4t-69.5 5q-33 -35 -34.5 -64.5t18 -51t53.5 -35t72 -15.5
q15 3 23.5 -2t7 -12t-14.5 -12t-39 -2q-38 1 -83 -9.5t-90 -30t-86.5 -48t-71.5 -64.5q11 0 21 0.5t20 1.5q9 0 11.5 -5.5t-0.5 -11.5t-9.5 -11.5t-13.5 -5.5h-53q-38 -64 -35.5 -115t28.5 -81q16 -19 37 -30t44 -15.5t47.5 -3.5t47.5 6q53 13 98.5 37.5t94.5 73.5l6 -12
q-35 -36 -83.5 -67t-105.5 -46q-27 -7 -56.5 -10.5t-58.5 -2.5t-56.5 7t-51.5 19q-25 14 -42.5 37t-23.5 53.5t1.5 68.5t32.5 82h-181l-120 -102t-110.5 -83.5t-98.5 -55t-83 -17.5q-54 3 -76.5 31.5t-22 67.5t21.5 81.5t54.5 74t76 45t86.5 -5.5q27 -12 31 -28.5t-6 -29
t-29.5 -16.5t-37.5 9q-27 20 -54.5 19t-51 -15.5t-40.5 -38t-23 -50t1 -51.5t32 -42q29 -20 69.5 -11t90.5 39t107.5 76.5l121.5 102.5q-13 0 -24 -0.5t-20 -0.5q-8 0 -10.5 6.5t-0.5 13.5t9.5 12t18.5 2q11 -2 26 -3.5t32 -3.5l109 97l114 98.5l116.5 93t117.5 81.5
l-81.5 20t-80 15.5t-82.5 4t-87 -14.5q-25 -8 -45.5 -24t-37 -30.5t-30.5 -22t-27 3.5q-18 15 -12 32.5t26.5 35t51.5 31.5t63 21q44 10 89.5 6.5t91.5 -13.5t92 -24t93 -26q83 50 162.5 76.5t154.5 19.5q61 -6 94.5 -31.5t37.5 -58.5t-24 -67t-91 -58zM1023 635
q-53 -35 -107.5 -78l-110 -90.5l-110.5 -96.5l-109 -97q41 -1 85.5 0t90.5 3q28 33 67 64t83 55t90.5 39t90.5 17q-38 4 -60.5 25t-30 48.5t0.5 57.5t32 51z" />
    <glyph glyph-name="ordfeminine" unicode="&#xaa;"
d="M513 623q-25 -21 -61 -60t-78 -116q-13 -24 -7 -29.5t21 3.5t35 30.5t36 52.5q5 10 14.5 13t15.5 -1t6 -14t-14 -25q-44 -47 -77 -66t-53 -17.5t-25.5 19.5t5.5 44q-14 -14 -31.5 -27.5t-36 -22.5t-38 -12t-38.5 5q-18 7 -18 28t12 48.5t34.5 58.5t50.5 58t59 46.5
t60 25.5q31 6 46 -3.5t20 -27.5l11.5 6t11.5 5q11 4 21.5 3.5t17 -4t7 -9t-6.5 -12.5zM239 427q23 3 43.5 20t40 41t39 51.5t40.5 51.5q4 11 6.5 20t-4.5 18q-9 12 -29.5 1t-45 -34t-48.5 -53t-39 -56.5t-18 -44t15 -15.5z" />
    <glyph glyph-name="Oslash" unicode="&#xd8;" horiz-adv-x="585"
d="M894 797l-96 -83l-91 -82q22 -21 29.5 -56.5t1 -80t-28 -94.5t-56.5 -101q-41 -60 -90 -114t-104.5 -95.5t-116 -67t-125.5 -27.5q-30 -1 -56.5 5t-47.5 20l-59.5 -66.5l-59.5 -68.5q-14 -16 -28.5 -21t-23 -1.5t-8 14.5t17.5 28l69 71l65 66q-27 31 -32.5 82.5
t21.5 127.5q26 75 72.5 145t105 130t125.5 107t135.5 75.5t134 37t121.5 -8.5l46.5 46.5l49.5 48.5q17 15 32 18.5t22 -2.5t2.5 -20t-27.5 -33zM605 302q28 43 46.5 86.5t27 82.5t5.5 71.5t-17 52.5q-141 -132 -267 -263.5l-250 -269.5q27 -38 81 -35q50 2 102.5 26.5
t102 63.5t93.5 87.5t76 97.5zM429 576q87 59 149.5 75t100.5 0l21 21q-8 9 -20 13.5t-30 4.5q-69 0 -141 -29t-137 -82t-120 -127.5t-91 -165.5q-25 -63 -31 -111t5 -82l137 142l126.5 130.5l122 125l123.5 124.5q-22 12 -56.5 6.5t-83.5 -33.5q-12 -7 -19.5 -14t-14 -14
l-13.5 -14t-17 -14q-11 -8 -19.5 -6t-12 9.5t0.5 18.5t20 22z" />
    <glyph glyph-name="ordmasculine" unicode="&#xba;"
d="M450 654q19 -11 10.5 -23.5t-27.5 -20.5q13 -10 15 -25.5t-3 -34.5t-16 -39t-24 -38q13 2 27 10.5t22 25.5q10 22 19 27t13 0t1.5 -17t-14.5 -24q-17 -17 -40 -30t-48 -16q-24 -24 -53.5 -37t-56.5 -14t-48.5 11.5t-28.5 40.5q-8 33 1 65t29 59.5t47.5 49t58 33t61 12
t55.5 -14.5zM346 458q-23 12 -27 34t4 45t24 44t34 30q-13 12 -39.5 0.5t-51.5 -36t-41.5 -57t-9.5 -63.5q4 -21 15.5 -29t26.5 -5.5t32 12.5t33 25zM366 479q12 15 22.5 33t16.5 35.5t6.5 32.5t-6.5 24q-6 0 -14 2q-14 -8 -27 -25.5t-19 -37.5t-2.5 -38t23.5 -26z" />
    <glyph glyph-name="ae" unicode="&#xe6;" horiz-adv-x="426"
d="M213 264q33 3 48 -6.5t19 -30.5q21 14 44 24t46 13q36 4 52 -15.5t-1 -54.5q-10 -21 -31.5 -38.5t-47.5 -31.5t-53 -24t-47 -16q-9 -32 3 -46.5t38 -10.5t63 27t80 65l6 -12q-45 -48 -88 -74t-78.5 -33.5t-60.5 1t-33 29.5q-7 16 -4 38q-18 -18 -37 -33.5t-38.5 -26
t-39 -14t-38.5 4.5q-15 6 -18 22t3.5 38t21 48t35.5 51q-25 -23 -51 -51l-6 12l36 35.5t53.5 47t61.5 41.5t62 21zM189 127q14 27 38 54q4 13 8.5 24.5t-3.5 22.5q-10 12 -31 1.5t-45 -34t-47 -53.5t-38 -57t-18.5 -44.5t13.5 -15.5q36 4 65.5 34t57.5 68zM365 228
q-1 12 -15.5 4.5t-33.5 -26.5t-38 -47t-30 -56q21 8 42.5 20t39 28t27.5 35t8 42z" />
    <glyph glyph-name="oslash" unicode="&#xf8;" horiz-adv-x="310"
d="M213 71q15 -8 42.5 7.5t54.5 40.5l6 -12q-11 -11 -25 -23t-30.5 -21.5t-34.5 -14.5t-36 -2zM87 182q-19 -13 -35.5 -29l-45.5 -46l-6 12l53.5 53t72.5 60zM325 266l-89 -77l-60.5 -53.5t-41.5 -39.5t-32.5 -34.5l-33 -39l-43.5 -53.5q-8 -10 -16.5 -12.5t-14 0t-6 9
t7.5 15.5l69 71.5l66.5 66.5l75.5 74.5l97 94.5q6 6 15 7.5t14.5 -1.5t5 -10t-13.5 -18zM278 250q17 -9 12 -20.5t-20 -19.5t-33.5 -9.5t-28.5 7.5q-9 7 -24 4t-32.5 -13.5t-34.5 -27t-29.5 -36.5t-19 -41.5t-1.5 -42.5q5 -25 20 -31.5t34.5 0.5t40 23.5t36.5 36.5
q14 18 26.5 38t19 39t5.5 34t-13 22q-15 4 -16.5 5.5t2 1.5t7.5 -1t1 -1q-7 0 -8.5 2t5.5 4q31 -11 42 -31t7.5 -44.5t-20 -51t-39.5 -50.5q-24 -24 -54 -37.5t-58 -15t-50 11t-29 40.5q-8 33 1 65t29 59.5t47.5 49t58.5 33t61 12t55 -14.5z" />
    <glyph glyph-name="germandbls" unicode="&#xdf;" horiz-adv-x="271"
d="M307 370l-32.5 -31.5l-33.5 -30l-38.5 -33l-47.5 -39.5q10 -15 22 -35t21 -43t13.5 -47t0.5 -47l30 27l29 28l6 -12q-18 -17 -39.5 -41.5t-46.5 -42.5q-18 -18 -44.5 -25.5t-48.5 -4.5q-21 2 -33.5 8.5t-19.5 25.5q-7 21 5.5 38t33.5 14q17 -2 21 -13t2 -20
q-1 -6 -4.5 -11t-6.5 -8.5t-4 -6.5t3 -5q8 -4 22 8t24.5 35.5t13 57t-11.5 72.5q-9 22 -12 33.5t-1.5 18.5t7.5 12.5t16 16.5l35.5 34l26.5 26l23.5 24.5l26.5 29.5q13 15 21.5 31.5t9.5 26t-7 8t-29 -22.5q-38 -38 -72.5 -84l-66 -90.5l-60.5 -83t-55 -61.5l-6 12
q15 14 35.5 39.5t43 57l47 66.5l47.5 67.5l43.5 60t37.5 44.5q19 19 39.5 29t37.5 11t28 -6t10.5 -22.5t-15 -39.5t-47.5 -56z" />
    <glyph glyph-name="onesuperior" unicode="&#xb9;"
d="M296 590q42 -2 72 19.5t50 58.5q4 7 16.5 9t24 -1t17 -10.5t-4.5 -19.5q-23 -26 -47.5 -59t-46.5 -67t-39 -65.5t-26 -54.5q-3 -9 -15 -13.5t-24.5 -5t-21.5 3t-6 10.5q15 31 47.5 80.5l72.5 108.5q-12 -7 -23 -9.5t-28 -9.5q-15 -6 -22 -2.5t-8.5 9.5t2 12t10.5 6z" />
    <glyph glyph-name="logicalnot" unicode="&#xac;"
d="M383 185q-5 -8 -12.5 -9.5t-14 1t-9.5 8t3 11.5q37 41 52 66.5l25 43.5q-39 1 -82 1t-81 -0.5t-66.5 -1.5t-37.5 -1q-8 0 -11 5t-2 11.5t6 11t13 3.5q30 -5 72 -6t82.5 0t73 2t41.5 1q8 17 23 17t21 -11q5 -9 0.5 -23t-23.5 -13l-42.5 -67z" />
    <glyph glyph-name="mu" unicode="&#xb5;" horiz-adv-x="558"
d="M163 2q-26 8 -24.5 37t21.5 64l-57 -58l-64 -61.5l-66 -58.5t-64 -49t-58.5 -33t-47.5 -11q-17 1 -22 10.5t-1 19.5t15.5 16.5t28.5 2.5q29 -8 70.5 14.5t87.5 61t93 86.5t86.5 92.5l67.5 78l36 42.5q12 12 26 15.5t24 -1t12 -15.5t-11 -27l-18 -22l-31.5 -39t-35 -46.5
t-27.5 -45.5t-10 -34.5t17 -14.5q9 0 21 5t27.5 19t36.5 38.5t50 63.5t61 73.5t65 46.5q5 2 13 2t14 -2t8 -7.5t-4 -14.5q-22 -34 -41 -56l-37 -42t-36.5 -44t-39.5 -62q-10 -18 -7 -25.5t15 -2t31.5 25.5t43.5 57q7 11 17.5 14t17 -0.5t6 -14t-15.5 -25.5
q-47 -49 -80.5 -67.5t-53 -15.5t-24.5 22.5t6 45.5q-26 -26 -47.5 -39.5t-39 -19t-31.5 -4t-24 4.5z" />
    <glyph glyph-name="mu" unicode="&#x3bc;" horiz-adv-x="558"
d="M163 2q-26 8 -24.5 37t21.5 64l-57 -58l-64 -61.5l-66 -58.5t-64 -49t-58.5 -33t-47.5 -11q-17 1 -22 10.5t-1 19.5t15.5 16.5t28.5 2.5q29 -8 70.5 14.5t87.5 61t93 86.5t86.5 92.5l67.5 78l36 42.5q12 12 26 15.5t24 -1t12 -15.5t-11 -27l-18 -22l-31.5 -39t-35 -46.5
t-27.5 -45.5t-10 -34.5t17 -14.5q9 0 21 5t27.5 19t36.5 38.5t50 63.5t61 73.5t65 46.5q5 2 13 2t14 -2t8 -7.5t-4 -14.5q-22 -34 -41 -56l-37 -42t-36.5 -44t-39.5 -62q-10 -18 -7 -25.5t15 -2t31.5 25.5t43.5 57q7 11 17.5 14t17 -0.5t6 -14t-15.5 -25.5
q-47 -49 -80.5 -67.5t-53 -15.5t-24.5 22.5t6 45.5q-26 -26 -47.5 -39.5t-39 -19t-31.5 -4t-24 4.5z" />
    <glyph glyph-name="trademark" unicode="&#x2122;" horiz-adv-x="541"
d="M309 407q-23 -16 -47 -48.5t-40 -60.5q-8 -13 -18 -9.5t-4 13.5q7 11 19 26.5l25 31t25.5 29l19.5 21.5q-16 1 -34 -3q-9 -2 -17.5 -6t-16 -7t-13 -3.5t-7.5 4.5q-5 11 8 18t36 10q28 4 50.5 0l42.5 -7.5t38.5 -2.5t39.5 13q8 5 15.5 6.5t10.5 -4.5q2 -7 -3.5 -9t-9.5 -6
q-10 -8 -20.5 -21.5t-19.5 -28t-15.5 -28t-8.5 -22.5l54.5 61t64.5 52q15 9 20 1t-3 -10.5t-12 -6.5q-19 -17 -35 -42.5t-22 -45.5q-5 -14 1 -20t21 10q2 2 4.5 -0.5t-5.5 -10.5q-9 -8 -19 -10.5t-17.5 -0.5t-11 9t0.5 19q5 14 20.5 36.5t32.5 42.5q-28 -26 -52.5 -51
t-45.5 -51q-7 -8 -16.5 -3t-4.5 19q3 7 8.5 17.5t13 22.5t16 24t17.5 22l-34 -35t-34 -33.5t-32.5 -26.5t-28.5 -13q-14 -2 -18.5 5.5t7.5 12.5q9 3 15 4.5t10.5 2.5t9.5 3.5t13 7.5q26 17 47 39.5t49 46.5q-20 -12 -43.5 -9t-46.5 5z" />
    <glyph glyph-name="Eth" unicode="&#xd0;" horiz-adv-x="658"
d="M315 626q-26 -14 -38.5 -8t-12 21.5t15 34.5t43.5 31q61 26 125.5 32.5t122 -6.5t103 -46t69 -86.5t20 -128t-43.5 -170.5q-29 -70 -82.5 -132t-123.5 -104.5t-153.5 -60.5t-171.5 0l-24 -48.5t-23 -50.5q-8 -18 -19.5 -24t-20 -2.5t-11 16t6.5 30.5q23 47 47 91
q-47 19 -68 53t-20.5 72t20 74t53.5 60t81 29.5t102 -18.5l108 153q-28 -1 -47.5 -2t-30.5 -1q-8 0 -10.5 5t-1 11.5t7 11.5t13.5 4q21 -4 43 -5t43 -1l65.5 89l68.5 91q12 15 27 19.5t24.5 -0.5t10 -18.5t-17.5 -34.5l-57 -68l-62 -76l35.5 3.5t24.5 2.5q13 1 18 -4
t3.5 -11.5t-9 -11.5t-19.5 -5q-21 1 -39 1h-35l-63 -82.5l-64 -88.5l22 -14.5t22 -16.5q18 -15 19 -33.5t-8.5 -30.5t-25.5 -13.5t-32 18.5q-9 11 -17.5 19.5l-16.5 16.5q-58 -89 -110 -185q67 -12 134.5 5.5t127.5 56t108.5 94.5t77.5 122q33 73 45 139t4.5 117.5
t-35.5 85.5t-76 45t-116 -4t-156 -63zM158 39q28 51 58.5 100l63.5 99q-41 27 -77.5 27t-64 -17t-43.5 -46.5t-15.5 -60.5t19 -59.5t59.5 -42.5z" />
    <glyph glyph-name="onehalf" unicode="&#xbd;" horiz-adv-x="959"
d="M296 590q42 -2 72.5 19t49.5 59q4 7 17 9t24 -1t16.5 -10.5t-4.5 -19.5q-23 -26 -47.5 -59t-46.5 -67t-39 -65.5t-26 -54.5q-3 -9 -15 -13.5t-24.5 -5t-21.5 3t-6 10.5q15 31 47.5 80.5l72.5 108.5q-12 -7 -23 -9.5t-28 -9.5q-15 -6 -22 -2.5t-8.5 9.5t2 12t10.5 6z
M867 646l-158 -138.5l-125 -114l-101.5 -98l-86.5 -89l-80.5 -89l-83.5 -96.5q-14 -16 -33.5 -26t-32.5 -9t-11.5 13.5t29.5 41.5l83 84.5l85 85.5l93 92.5l107 105.5l127 124.5l153 149.5q17 15 35 20.5t27 0.5t5 -19.5t-32 -38.5zM433 4q20 27 47 46.5t57 35t60 29
t57 28.5q36 21 56.5 39t28.5 32.5t4.5 25.5t-15.5 17q-9 5 -20.5 5t-22.5 -4t-21 -11t-17 -15q-5 -5 -4 -11.5t1.5 -13.5t-2.5 -14t-14 -14q-10 -6 -22 -6.5t-20 5.5t-8.5 18t11.5 31q14 22 48.5 39.5t97.5 13.5q28 -2 47 -18t21 -38.5t-17.5 -48t-68.5 -46.5
q-30 -13 -55 -21t-46 -16t-40 -17t-37 -23q18 4 33 3t26 -5q45 -17 72 -9.5t42 32.5q3 5 8.5 5.5t11 -1.5t9 -6.5t2.5 -8.5q-6 -20 -24.5 -37.5t-45 -26t-57 -5.5t-58.5 24q-11 8 -22 9.5t-21.5 -1.5t-19.5 -9.5t-16 -14.5q-5 -6 -14 -8t-17.5 -1t-13 4t-1.5 8z" />
    <glyph glyph-name="plusminus" unicode="&#xb1;"
d="M205 398q-8 0 -11 5t-2 11.5t6 11t13 3.5q23 -4 53.5 -5.5t63.5 -0.5l33.5 61t40.5 67q10 16 21 19.5t17.5 -2.5t5.5 -19t-16 -31q-11 -14 -28 -39t-35 -55l73.5 3.5t44.5 3.5q13 1 18.5 -4t5 -11t-8 -11t-19.5 -5q-30 1 -62.5 1.5t-64.5 -0.5q-19 -32 -35 -65t-27 -61
q-6 -16 -17.5 -23t-20.5 -4.5t-11 14.5t11 33q20 31 34.5 56.5l27.5 48.5q-41 0 -71 -1t-40 -1zM82 182q-8 0 -11 5t-2 11.5t6 11t13 3.5q30 -5 72 -5.5t83 0.5t74 3.5t45 3.5q13 1 18.5 -4t5 -11t-8 -11t-19.5 -5q-39 1 -83 1t-83.5 -0.5t-69.5 -1.5t-40 -1z" />
    <glyph glyph-name="Thorn" unicode="&#xde;" horiz-adv-x="530"
d="M723 688l-33 -37.5l-34 -39.5q69 -24 96.5 -72.5t15 -101t-65.5 -100.5t-146 -72q-39 -10 -78 -9t-73 9q-68 -115 -123 -250q-7 -18 -19 -22.5t-22 0t-15.5 16t0.5 26.5q32 64 65.5 124t70.5 119q-25 10 -44 22.5t-27 27.5q-10 17 -5 32.5t16.5 24.5t24 8.5t17.5 -15.5
q6 -17 18 -31.5t28 -25.5l94.5 138l104.5 141q-65 10 -132 3.5t-130 -29t-117 -61.5t-92 -93q-17 -25 -35.5 -25.5t-27 15t-0.5 41.5t44 53q67 51 138 79t138.5 39.5t127 10t104.5 -8.5l38.5 50l39.5 51q12 15 26 19t22 -2t7.5 -20t-17.5 -34zM637 588q-52 -61 -105.5 -132
t-105.5 -156q47 -21 95.5 -13t88.5 35t68.5 65.5t36 78t-10 73t-67.5 49.5z" />
    <glyph glyph-name="onequarter" unicode="&#xbc;" horiz-adv-x="959"
d="M867 646l-158 -138.5l-125 -114l-101.5 -98l-86.5 -89l-80.5 -89l-83.5 -96.5q-14 -16 -33.5 -26t-32.5 -9t-11.5 13.5t29.5 41.5l83 84.5l85 85.5l93 92.5l107 105.5l127 124.5l153 149.5q17 15 35 20.5t27 0.5t5 -19.5t-32 -38.5zM742 97q15 0 19 -7t1 -15.5t-12 -15.5
t-19 -6q-17 1 -36.5 3.5t-41.5 4.5l-7.5 -15t-7.5 -14q-11 -20 -25 -27.5t-26 -6t-17.5 10t1.5 20.5q6 9 11.5 18.5t11.5 17.5q-19 1 -37.5 0t-35.5 -4q-8 -1 -13 -4.5l-9.5 -6.5t-9 -5t-10.5 -1q-12 2 -15 15t12 27q33 30 61.5 50.5t49 38t31.5 35.5t10 44q-1 12 6.5 19
t16.5 8.5t15.5 -3.5t3.5 -17q-4 -30 -20 -52.5t-38.5 -42t-48.5 -38t-49 -40.5q20 3 46.5 5l54.5 4q34 49 65 89.5t63 88.5q9 18 24 21t24.5 -4.5t9 -23t-22.5 -35.5q-26 -23 -52 -58.5t-51 -76.5q20 0 37.5 -0.5t29.5 -0.5zM296 590q42 -2 72 19.5t50 58.5q4 7 16.5 9
t24 -1t17 -10.5t-4.5 -19.5q-23 -26 -47.5 -59t-46.5 -67t-39 -65.5t-26 -54.5q-3 -9 -15 -13.5t-24.5 -5t-21.5 3t-6 10.5q15 31 47.5 80.5l72.5 108.5q-12 -7 -23 -9.5t-28 -9.5q-15 -6 -22 -2.5t-8.5 9.5t2 12t10.5 6z" />
    <glyph glyph-name="divide" unicode="&#xf7;"
d="M160 304q-8 0 -11 5t-2 11.5t6 11t13 3.5q30 -5 73.5 -5.5t86.5 0.5t77.5 3.5t46.5 3.5q13 1 18.5 -4t5 -11t-8 -11t-19.5 -5q-39 1 -85 1t-87 -0.5t-72.5 -1.5t-41.5 -1zM346 432q6 9 16.5 11.5t20.5 0t16 -9.5t2 -18q-5 -14 -18.5 -24.5t-32.5 -6.5q-11 2 -14.5 7.5
t-2.5 12t4.5 14t8.5 13.5zM230 233q5 5 15 7t20 0t15.5 -9t1.5 -20q-2 -5 -7 -11.5t-12.5 -11t-16.5 -6.5t-19 3q-11 5 -13.5 11t-1 12.5t6.5 12.5t11 12z" />
    <glyph glyph-name="brokenbar" unicode="&#xa6;" horiz-adv-x="563"
d="M705 804q-31 -42 -67 -96t-71 -112.5t-66.5 -116.5t-53.5 -107q-7 -16 -20.5 -24t-24 -6.5t-12.5 14t15 36.5q19 27 42.5 64.5l49 79l51 85l48.5 83.5l42.5 74.5t31.5 58.5q8 15 21 21t22 2t9.5 -18t-17.5 -38zM325 171l-68 -95.5l-73.5 -111.5t-69 -115.5t-54.5 -106.5
q-7 -16 -20.5 -24t-24 -6.5t-12.5 14t15 36.5l43 64l50 78.5l52.5 84.5l50.5 83l44 74t32 58q8 15 21 21t22 2t9.5 -18t-17.5 -38z" />
    <glyph glyph-name="degree" unicode="&#xb0;" horiz-adv-x="171"
d="M323 722q8 -5 8.5 -15t-5.5 -18q5 -11 5 -24t-4.5 -26t-13 -24t-19.5 -18q-13 -8 -29 -11.5t-31.5 -0.5t-27.5 11.5t-18 24.5q-8 21 0.5 46t27.5 43t47 24t60 -12zM299 627q8 12 11.5 26t-0.5 26q-11 -2 -27 13t-31 9.5t-25.5 -20t-14 -33t5.5 -28.5q10 -12 21.5 -16
t22.5 -2t20.5 8.5t16.5 16.5z" />
    <glyph glyph-name="thorn" unicode="&#xfe;" horiz-adv-x="319"
d="M418 596q-35 -35 -70.5 -79.5t-71 -95l-71.5 -106l-71 -111.5q30 30 62 43q33 13 59 11t39 -18.5t9 -46t-32 -71.5q-17 -25 -36.5 -44.5t-40.5 -35.5q13 3 29.5 10.5t33.5 18t33 23t29 25.5l6 -12q-42 -41 -86 -64.5t-93 -28.5q-33 -15 -65 -18q-17 -2 -30 5t-15 18
q-1 7 2.5 13t9 8.5t11.5 1.5t11 -7q5 -8 14.5 -14t21.5 -1q13 5 27.5 16t27.5 23.5t24.5 26.5t18.5 25q15 24 22 47.5t6 41t-9.5 27t-25 5t-41.5 -26t-57 -64.5l-27.5 -41.5l-31.5 -47.5l-31 -47l-26 -40q-44 -66 -74.5 -116t-53.5 -97t-43.5 -98.5t-45.5 -120.5
q-7 -17 -22.5 -27t-29 -9.5t-19 13.5t8.5 43l51.5 109.5t43 84.5t41.5 72.5l46.5 74l57.5 88.5l75 117q11 16 20 30.5l19 29.5l-23.5 -23.5l-29.5 -28.5l-5 12l20.5 23l32 35.5l35.5 40l31 36.5l61 95l46.5 73.5l37 58.5l32 50l31.5 48l35 53q10 16 28 20t31.5 -1.5
t15.5 -19.5t-19 -35z" />
    <glyph glyph-name="threequarters" unicode="&#xbe;" horiz-adv-x="979"
d="M888 646l-158 -138.5l-125 -114l-101.5 -98l-86.5 -89l-80.5 -89l-83.5 -96.5q-14 -16 -33.5 -26t-32.5 -9t-11.5 13.5t29.5 41.5l83 84.5l85 85.5l93 92.5l107 105.5l127 124.5l153 149.5q17 15 35 20.5t27 0.5t5 -19.5t-32 -38.5zM277 458q0 -19 11 -29.5t27 -14
t34 0.5t32 14q9 6 19 18t15.5 25.5t2.5 27t-20 22.5q-11 -5 -18.5 -2t-9.5 8t2 11t16 9q33 7 49.5 21t21 29t-1 29t-17.5 20q-9 5 -20.5 5t-22.5 -4t-21 -11t-17 -15q-5 -5 -4 -11.5t1.5 -13.5t-2.5 -14t-14 -14q-10 -6 -22 -6.5t-20 5.5t-8.5 18t11.5 31q14 22 48.5 39.5
t97.5 13.5q28 -2 46.5 -19.5t20 -39.5t-17.5 -43.5t-66 -31.5q36 -7 46 -28t0.5 -45t-34 -44.5t-56.5 -27.5q-23 -5 -49.5 -6t-51.5 4.5t-44.5 17.5t-27.5 33q-7 18 2 30t23 15.5t26.5 -3t12.5 -24.5zM761 97q15 0 19 -7t1 -15.5t-12 -15.5t-19 -6q-17 1 -36.5 3.5
t-41.5 4.5l-7.5 -15t-7.5 -14q-11 -20 -25 -27.5t-26 -6t-17.5 10t1.5 20.5q6 9 11.5 18.5t11.5 17.5q-19 1 -37.5 0t-35.5 -4q-8 -1 -13 -4.5l-9.5 -6.5t-9 -5t-10.5 -1q-12 2 -15 15t12 27q33 30 61.5 50.5t49 38t31.5 35.5t10 44q-1 12 6.5 19t16.5 8.5t15.5 -3.5
t3.5 -17q-4 -30 -20 -52.5t-38.5 -42t-48.5 -38t-49 -40.5q20 3 46.5 5l54.5 4q34 49 65 89.5t63 88.5q9 18 24 21t24.5 -4.5t9 -23t-22.5 -35.5q-26 -23 -52 -58.5t-51 -76.5q20 0 37.5 -0.5t29.5 -0.5z" />
    <glyph glyph-name="twosuperior" unicode="&#xb2;"
d="M148 395q20 27 47 46.5t57 35t60 29t57 28.5q36 21 56.5 39t28.5 32.5t4.5 25.5t-15.5 17q-9 5 -20.5 5t-22.5 -4t-21 -11t-17 -15q-5 -5 -4 -11.5t1.5 -13.5t-2.5 -14t-14 -14q-10 -6 -22 -6.5t-20 5.5t-8.5 18t11.5 31q14 22 48.5 39.5t97.5 13.5q28 -2 47 -18
t21 -38.5t-17.5 -48t-68.5 -46.5q-30 -13 -55 -21t-46 -16t-40 -17t-37 -23q18 4 33 3t26 -5q45 -17 72 -9.5t42 32.5q3 5 8.5 5.5t11 -1.5t9 -6.5t2.5 -8.5q-6 -20 -24.5 -37.5t-45 -26t-57 -5.5t-58.5 24q-11 8 -22 9.5t-21.5 -1.5t-19.5 -9.5t-16 -14.5q-5 -6 -14 -8
t-17.5 -1t-13 4t-1.5 8z" />
    <glyph glyph-name="registered" unicode="&#xae;"
d="M110 132q13 29 36 54.5t51 45t58 30t59 9.5q28 -1 48.5 -12t30 -29.5t8.5 -43.5t-14 -54q-14 -29 -36 -54.5t-49.5 -44.5t-57.5 -29.5t-58 -9.5q-29 1 -49.5 12t-31 29.5t-10 43t14.5 53.5zM307 258q-21 1 -45 -8.5t-47 -26t-42.5 -40t-31.5 -51.5q-23 -52 -8 -86.5
t60 -36.5q33 -2 65 14t58 43q-24 -15 -44 -13t-31 10t-11.5 18t2.5 19.5l5.5 17t-2.5 11.5q-4 3 -1.5 8.5t8 10t11 5t8.5 -5.5q18 -4 32.5 4.5t17.5 18.5t-10 16t-50 -2l-12.5 -21l-16 -28.5t-16 -32t-12.5 -29.5q-4 -11 -11.5 -14.5t-14 -3t-10.5 5.5t-1 13q4 10 11 23.5
l15 28l16 28.5l15 26q-11 10 -3 18.5t24 9.5q6 0 16 0.5l19.5 1t18 1t11.5 0.5q27 1 36 -13t3.5 -30t-25 -29t-50.5 -11q3 -6 2 -13l-2 -14.5t-1.5 -14t4.5 -11.5q6 -7 18.5 -5.5t27 9.5t28 21.5t21.5 31.5q23 51 9.5 87.5t-64.5 38.5z" />
    <glyph glyph-name="eth" unicode="&#xf0;" horiz-adv-x="308"
d="M260 426q-8 5 -2.5 13t21.5 15q13 5 25.5 13l25.5 17q-2 35 -12 62.5t-30 46.5q-17 16 -17.5 30.5t8.5 22t24 4t30 -23.5q29 -42 37 -109l45 37.5t29 10.5q9 -5 3 -13.5t-17 -14.5q-16 -8 -30.5 -17.5l-28.5 -19.5q4 -46 -1 -97.5t-18 -104t-34 -102t-48 -90.5
q-31 -46 -73 -75.5t-83 -36.5q-25 -4 -46.5 1.5t-35 19t-17.5 34.5t7 48q10 28 33 57q-12 -10 -24 -21.5t-25 -25.5l-6 12q11 13 35 35.5t54 45.5t62 41t58 23q22 4 40.5 0t32.5 -21q23 57 36 115.5t12 109.5q-26 -22 -44 -35t-26 -7zM205 98q14 20 28 43t26 48
q4 27 -2 36.5t-17 11.5q-12 1 -28 -4.5t-33.5 -16.5t-35 -27.5t-33.5 -36.5q-42 -54 -45.5 -87.5t16 -42.5t54.5 9t70 67z" />
    <glyph glyph-name="multiply" unicode="&#xd7;"
d="M330 203q-9 32 -17.5 57.5t-18.5 48.5q-17 -12 -32 -24l-31 -25.5l-35.5 -30l-45.5 -38.5q-8 -7 -17 -6t-13.5 6.5t-2 14.5t17.5 19l80 55.5l70 49.5q-13 26 -28.5 53t-37.5 57q-6 8 -5 15.5t6 11.5t12 1.5t12 -13.5l27 -56.5t29 -57.5l74 52.5l93 66.5q8 6 16 4.5
t11.5 -7.5t0.5 -14.5t-17 -16.5l-102 -62t-66 -43q11 -23 25 -49t30 -59q3 -8 -0.5 -14t-10 -9t-14 -0.5t-10.5 13.5z" />
    <glyph glyph-name="threesuperior" unicode="&#xb3;"
d="M277 458q0 -19 11 -29.5t27 -14t34 0.5t32 14q9 6 19 18t15.5 25.5t2.5 27t-20 22.5q-11 -5 -18.5 -2t-9.5 8t2 11t16 9q33 7 49.5 21t21 29t-1 29t-17.5 20q-9 5 -20.5 5t-22.5 -4t-21 -11t-17 -15q-5 -5 -4 -11.5t1.5 -13.5t-2.5 -14t-14 -14q-10 -6 -22 -6.5t-20 5.5
t-8.5 18t11.5 31q14 22 48.5 39.5t97.5 13.5q28 -2 46.5 -19.5t20 -39.5t-17.5 -43.5t-66 -31.5q36 -7 46 -28t0.5 -45t-34 -44.5t-56.5 -27.5q-23 -5 -49.5 -6t-51.5 4.5t-44.5 17.5t-27.5 33q-7 18 2 30t23 15.5t26.5 -3t12.5 -24.5z" />
    <glyph glyph-name="copyright" unicode="&#xa9;"
d="M110 132q13 29 36 54.5t51 45t58 30t59 9.5q28 -1 48.5 -12t30 -29.5t8.5 -43.5t-14 -54q-14 -29 -36 -54.5t-49.5 -44.5t-57.5 -29.5t-58 -9.5q-29 1 -49.5 12t-31 29.5t-10 43t14.5 53.5zM141 132q-23 -52 -8 -86.5t60 -36.5q25 -1 50.5 8.5t47.5 26t40.5 39.5t30.5 49
q23 51 9.5 87.5t-64.5 38.5q-21 1 -45 -8.5t-47 -26t-42.5 -40t-31.5 -51.5zM311 156q-6 -13 -14 -16t-14.5 0t-10 9t-0.5 11t6.5 12t3.5 13q0 8 -10.5 2t-23.5 -19.5t-25 -32t-15 -35.5q-5 -31 20 -31q12 0 17.5 5.5t14.5 13.5q4 3 7.5 2t5 -4t0 -7.5t-7.5 -8.5
q-32 -19 -56.5 -16t-32.5 20q-8 15 -1 36.5t23.5 42t39.5 35.5t47 18q23 3 30 -12.5t-4 -37.5z" />
    <glyph glyph-name="Aacute" unicode="&#xc1;" horiz-adv-x="868"
d="M1062 873q6 5 13.5 7t12.5 0q6 -2 8 -8t-3 -8l-19.5 -8t-27 -12.5l-30.5 -16.5t-29 -19q-5 -3 -9.5 -2.5t-7 3t-2.5 6t5 6.5q15 9 27 15.5l22 12l19.5 11t20.5 13.5zM454 247q14 0 29.5 0.5t32.5 0.5q-66 -59 -127 -107t-114 -77.5t-95.5 -37t-71.5 14.5
q-24 18 -30.5 43.5t-0.5 52t23 50t40 37.5t50.5 14.5t54.5 -19.5q18 -13 37 -9t29 16.5t6 29t-31 28.5q-44 19 -86.5 5.5t-75.5 -44.5t-54 -73.5t-21.5 -81.5t22 -67.5t76.5 -32.5q36 -3 81.5 15.5t98.5 53.5t111.5 83.5t120.5 105.5h109q-17 -30 -29.5 -55.5t-20.5 -45.5
q-17 -41 -19 -69.5t7 -47.5t27 -29t41 -13q26 -3 55 8.5t56 30.5t50.5 41t39.5 39l-7 12q-23 -24 -49.5 -45.5t-52.5 -35.5q-19 -11 -38 -14t-33 6t-19.5 32t3.5 65q6 26 19.5 55.5l30.5 64.5h37q12 0 20 5.5t10.5 12.5t-1 12t-12.5 4q-10 -1 -19.5 -1.5t-18.5 -0.5
q23 43 51.5 88.5l59.5 90.5l63.5 88t64.5 81q20 -3 43.5 -4t50.5 1q12 1 20 5.5t11 8.5t-0.5 7t-15.5 1q-26 -5 -49 -5t-45 2q22 25 43 46.5t41 38.5q27 24 51 31t53 12q12 2 18 10.5t5.5 17t-7 14t-19.5 1.5q-25 -8 -51.5 -23.5t-54.5 -36.5q-32 -20 -66.5 -44.5
t-69.5 -56.5q-39 10 -75 23.5t-72.5 25t-73.5 16.5t-77 -2q-33 -6 -63 -20t-50 -31t-26 -35.5t10 -33.5q14 -13 28 -6t30.5 22l36 32.5t44.5 24.5q49 13 85 13t66 -6.5t58 -17.5t63 -20l-191 -183l-193 -183q-38 2 -71 9q-11 3 -18.5 -2t-10 -12t0 -13.5t11.5 -6.5zM584 271
l154 148.5l154 151.5q-61 -73 -115 -150t-94 -146q-27 -2 -51.5 -3t-47.5 -1z" />
    <glyph glyph-name="Acircumflex" unicode="&#xc2;" horiz-adv-x="868"
d="M1076 826q2 -4 -2 -7.5t-9.5 -5t-10.5 0t-5 8.5q0 12 -0.5 20t-3.5 16q-21 -10 -46 -26.5l-54 -35.5q-8 -5 -12 4.5t7 14.5q30 12 55 30l45 33q-2 3 1 5.5t7.5 3.5t9 0.5t5.5 -4.5q3 -11 5.5 -29.5t7.5 -27.5zM454 247q14 0 29.5 0.5t32.5 0.5q-66 -59 -127 -107
t-114 -77.5t-95.5 -37t-71.5 14.5q-24 18 -30.5 43.5t-0.5 52t23 50t40 37.5t50.5 14.5t54.5 -19.5q18 -13 37 -9t29 16.5t6 29t-31 28.5q-44 19 -86.5 5.5t-75.5 -44.5t-54 -73.5t-21.5 -81.5t22 -67.5t76.5 -32.5q36 -3 81.5 15.5t98.5 53.5t111.5 83.5t120.5 105.5h109
q-17 -30 -29.5 -55.5t-20.5 -45.5q-17 -41 -19 -69.5t7 -47.5t27 -29t41 -13q26 -3 55 8.5t56 30.5t50.5 41t39.5 39l-7 12q-23 -24 -49.5 -45.5t-52.5 -35.5q-19 -11 -38 -14t-33 6t-19.5 32t3.5 65q6 26 19.5 55.5l30.5 64.5h37q12 0 20 5.5t10.5 12.5t-1 12t-12.5 4
q-10 -1 -19.5 -1.5t-18.5 -0.5q23 43 51.5 88.5l59.5 90.5l63.5 88t64.5 81q20 -3 43.5 -4t50.5 1q12 1 20 5.5t11 8.5t-0.5 7t-15.5 1q-26 -5 -49 -5t-45 2q22 25 43 46.5t41 38.5q27 24 51 31t53 12q12 2 18 10.5t5.5 17t-7 14t-19.5 1.5q-25 -8 -51.5 -23.5t-54.5 -36.5
q-32 -20 -66.5 -44.5t-69.5 -56.5q-39 10 -75 23.5t-72.5 25t-73.5 16.5t-77 -2q-33 -6 -63 -20t-50 -31t-26 -35.5t10 -33.5q14 -13 28 -6t30.5 22l36 32.5t44.5 24.5q49 13 85 13t66 -6.5t58 -17.5t63 -20l-191 -183l-193 -183q-38 2 -71 9q-11 3 -18.5 -2t-10 -12
t0 -13.5t11.5 -6.5zM584 271l154 148.5l154 151.5q-61 -73 -115 -150t-94 -146q-27 -2 -51.5 -3t-47.5 -1z" />
    <glyph glyph-name="Adieresis" unicode="&#xc4;" horiz-adv-x="868"
d="M990 823q-5 -5 -12.5 -7t-14 -1t-10 6t-0.5 15q1 3 3 7.5t5.5 8.5t10 6t15.5 0q16 -3 13.5 -15t-10.5 -20zM1048 845q3 7 11.5 10t16 2.5t12 -6t0.5 -15.5q-3 -7 -8.5 -16t-24.5 -6q-12 2 -12 11t5 20zM454 247q-9 0 -11.5 6.5t0 13.5t10 12t18.5 2q33 -7 71 -9l193 183
l191 183q-35 9 -63 20t-58 17.5t-66 6.5t-85 -13q-25 -7 -44.5 -24.5l-36 -32.5t-30.5 -22t-28 6q-16 15 -10 33.5t26 35.5t50 31t63 20q40 7 77 2t73.5 -16.5t72.5 -25t75 -23.5q35 32 69.5 56.5t66.5 44.5q28 21 54.5 36.5t51.5 23.5q13 4 19.5 -1.5t7 -14t-5.5 -17
t-18 -10.5q-29 -5 -53 -12t-51 -31q-20 -17 -41 -38.5t-43 -46.5q22 -2 45 -2t49 5q12 2 15.5 -1t0.5 -7t-11 -8.5t-20 -5.5q-27 -2 -50.5 -1t-43.5 4q-32 -38 -64.5 -81l-63.5 -88l-59.5 -90.5t-51.5 -88.5q9 0 18.5 0.5t19.5 1.5q9 1 12.5 -4t1 -12t-10.5 -12.5t-20 -5.5
h-37l-30.5 -64.5t-19.5 -55.5q-9 -42 -3.5 -65t19.5 -32t33 -6t38 14q26 14 52.5 35.5t49.5 45.5l7 -12q-16 -17 -39.5 -39t-50.5 -41t-56 -30.5t-55 -8.5q-23 3 -41 13t-27 29t-7 47.5t19 69.5q8 20 20.5 45.5t29.5 55.5h-109q-62 -57 -120.5 -105.5t-111.5 -83.5
t-98.5 -53.5t-81.5 -15.5q-54 4 -76.5 32.5t-22 67.5t21.5 81.5t54 73.5t75.5 44.5t86.5 -5.5q27 -12 31 -28.5t-6 -29t-29 -16.5t-37 9q-27 20 -54.5 19.5t-50.5 -14.5t-40 -37.5t-23 -50t0.5 -52t30.5 -43.5q29 -22 71.5 -14.5t95.5 37t114 77.5t127 107q-17 0 -32.5 -0.5
t-29.5 -0.5zM584 271q23 0 47.5 1t51.5 3q40 69 94 146t115 150l-154 -151.5z" />
    <glyph glyph-name="Agrave" unicode="&#xc0;" horiz-adv-x="868"
d="M981 858q-6 4 -8.5 9.5t2.5 9.5q5 3 13 3t16 -8q6 -5 20.5 -19.5t29.5 -26.5q6 -5 6.5 -9.5t-2.5 -7t-8.5 -2.5t-10.5 5q-12 12 -29 25t-29 21zM454 247q14 0 29.5 0.5t32.5 0.5q-66 -59 -127 -107t-114 -77.5t-95.5 -37t-71.5 14.5q-24 18 -30.5 43.5t-0.5 52t23 50
t40 37.5t50.5 14.5t54.5 -19.5q18 -13 37 -9t29 16.5t6 29t-31 28.5q-44 19 -86.5 5.5t-75.5 -44.5t-54 -73.5t-21.5 -81.5t22 -67.5t76.5 -32.5q36 -3 81.5 15.5t98.5 53.5t111.5 83.5t120.5 105.5h109q-17 -30 -29.5 -55.5t-20.5 -45.5q-17 -41 -19 -69.5t7 -47.5t27 -29
t41 -13q26 -3 55 8.5t56 30.5t50.5 41t39.5 39l-7 12q-23 -24 -49.5 -45.5t-52.5 -35.5q-19 -11 -38 -14t-33 6t-19.5 32t3.5 65q6 26 19.5 55.5l30.5 64.5h37q12 0 20 5.5t10.5 12.5t-1 12t-12.5 4q-10 -1 -19.5 -1.5t-18.5 -0.5q23 43 51.5 88.5l59.5 90.5l63.5 88
t64.5 81q20 -3 43.5 -4t50.5 1q12 1 20 5.5t11 8.5t-0.5 7t-15.5 1q-26 -5 -49 -5t-45 2q22 25 43 46.5t41 38.5q27 24 51 31t53 12q12 2 18 10.5t5.5 17t-7 14t-19.5 1.5q-25 -8 -51.5 -23.5t-54.5 -36.5q-32 -20 -66.5 -44.5t-69.5 -56.5q-39 10 -75 23.5t-72.5 25
t-73.5 16.5t-77 -2q-33 -6 -63 -20t-50 -31t-26 -35.5t10 -33.5q14 -13 28 -6t30.5 22l36 32.5t44.5 24.5q49 13 85 13t66 -6.5t58 -17.5t63 -20l-191 -183l-193 -183q-38 2 -71 9q-11 3 -18.5 -2t-10 -12t0 -13.5t11.5 -6.5zM584 271l154 148.5l154 151.5
q-61 -73 -115 -150t-94 -146q-27 -2 -51.5 -3t-47.5 -1z" />
    <glyph glyph-name="Aring" unicode="&#xc5;" horiz-adv-x="868"
d="M1062 874q12 -9 9 -21t-14 -23t-26.5 -18.5t-29.5 -6.5q-16 1 -24 11.5t2 28.5q11 20 33.5 30t41.5 10q7 0 10.5 -4t2.5 -8.5t-7 -7.5t-17 -1t-23.5 -3.5t-19.5 -15.5t-5.5 -18.5t11.5 -8.5t22.5 6.5t18.5 13.5q18 23 7 30zM454 247q-9 0 -11.5 6.5t0 13.5t10 12t18.5 2
q33 -7 71 -9l193 183l191 183q-35 9 -63 20t-58 17.5t-66 6.5t-85 -13q-25 -7 -44.5 -24.5l-36 -32.5t-30.5 -22t-28 6q-16 15 -10 33.5t26 35.5t50 31t63 20q40 7 77 2t73.5 -16.5t72.5 -25t75 -23.5q35 32 69.5 56.5t66.5 44.5q28 21 54.5 36.5t51.5 23.5q13 4 19.5 -1.5
t7 -14t-5.5 -17t-18 -10.5q-29 -5 -53 -12t-51 -31q-20 -17 -41 -38.5t-43 -46.5q22 -2 45 -2t49 5q12 2 15.5 -1t0.5 -7t-11 -8.5t-20 -5.5q-27 -2 -50.5 -1t-43.5 4q-32 -38 -64.5 -81l-63.5 -88l-59.5 -90.5t-51.5 -88.5q9 0 18.5 0.5t19.5 1.5q9 1 12.5 -4t1 -12
t-10.5 -12.5t-20 -5.5h-37l-30.5 -64.5t-19.5 -55.5q-9 -42 -3.5 -65t19.5 -32t33 -6t38 14q26 14 52.5 35.5t49.5 45.5l7 -12q-16 -17 -39.5 -39t-50.5 -41t-56 -30.5t-55 -8.5q-23 3 -41 13t-27 29t-7 47.5t19 69.5q8 20 20.5 45.5t29.5 55.5h-109q-62 -57 -120.5 -105.5
t-111.5 -83.5t-98.5 -53.5t-81.5 -15.5q-54 4 -76.5 32.5t-22 67.5t21.5 81.5t54 73.5t75.5 44.5t86.5 -5.5q27 -12 31 -28.5t-6 -29t-29 -16.5t-37 9q-27 20 -54.5 19.5t-50.5 -14.5t-40 -37.5t-23 -50t0.5 -52t30.5 -43.5q29 -22 71.5 -14.5t95.5 37t114 77.5t127 107
q-17 0 -32.5 -0.5t-29.5 -0.5zM584 271q23 0 47.5 1t51.5 3q40 69 94 146t115 150l-154 -151.5z" />
    <glyph glyph-name="Atilde" unicode="&#xc3;" horiz-adv-x="868"
d="M936 816q-8 -7 -13.5 -7t-7.5 4t-1 10t6 11q16 14 37.5 25.5t34.5 8.5q9 -2 13.5 -8.5t7 -14t5 -13.5t8.5 -7q11 -2 27 9t30 28q5 6 10.5 6.5t9 -2.5t3 -9t-7.5 -13q-18 -18 -39.5 -31t-38.5 -8q-8 2 -11.5 8.5t-5.5 13.5t-5 12.5t-9 7.5q-6 1 -13.5 -2.5t-15 -8.5
t-14 -11t-10.5 -9zM454 247q14 0 29.5 0.5t32.5 0.5q-66 -59 -127 -107t-114 -77.5t-95.5 -37t-71.5 14.5q-24 18 -30.5 43.5t-0.5 52t23 50t40 37.5t50.5 14.5t54.5 -19.5q18 -13 37 -9t29 16.5t6 29t-31 28.5q-44 19 -86.5 5.5t-75.5 -44.5t-54 -73.5t-21.5 -81.5
t22 -67.5t76.5 -32.5q36 -3 81.5 15.5t98.5 53.5t111.5 83.5t120.5 105.5h109q-17 -30 -29.5 -55.5t-20.5 -45.5q-17 -41 -19 -69.5t7 -47.5t27 -29t41 -13q26 -3 55 8.5t56 30.5t50.5 41t39.5 39l-7 12q-23 -24 -49.5 -45.5t-52.5 -35.5q-19 -11 -38 -14t-33 6t-19.5 32
t3.5 65q6 26 19.5 55.5l30.5 64.5h37q12 0 20 5.5t10.5 12.5t-1 12t-12.5 4q-10 -1 -19.5 -1.5t-18.5 -0.5q23 43 51.5 88.5l59.5 90.5l63.5 88t64.5 81q20 -3 43.5 -4t50.5 1q12 1 20 5.5t11 8.5t-0.5 7t-15.5 1q-26 -5 -49 -5t-45 2q22 25 43 46.5t41 38.5q27 24 51 31
t53 12q12 2 18 10.5t5.5 17t-7 14t-19.5 1.5q-25 -8 -51.5 -23.5t-54.5 -36.5q-32 -20 -66.5 -44.5t-69.5 -56.5q-39 10 -75 23.5t-72.5 25t-73.5 16.5t-77 -2q-33 -6 -63 -20t-50 -31t-26 -35.5t10 -33.5q14 -13 28 -6t30.5 22l36 32.5t44.5 24.5q49 13 85 13t66 -6.5
t58 -17.5t63 -20l-191 -183l-193 -183q-38 2 -71 9q-11 3 -18.5 -2t-10 -12t0 -13.5t11.5 -6.5zM584 271l154 148.5l154 151.5q-61 -73 -115 -150t-94 -146q-27 -2 -51.5 -3t-47.5 -1z" />
    <glyph glyph-name="Ccedilla" unicode="&#xc7;" horiz-adv-x="497"
d="M712 713q-38 11 -96.5 -9t-123.5 -64q19 -20 49 -30t68 -6q34 3 66 17.5t50.5 31.5t17.5 34t-31 26zM489 883q17 22 40 30.5t38 4.5t16 -18t-24 -36q-65 -56 -83 -106.5t-3 -87.5q71 42 137 62t116 9q33 -8 45 -26.5t5 -40.5t-31.5 -43t-66.5 -32q-78 -22 -133 -15.5
t-87 32.5q-44 -32 -87 -71t-81.5 -82.5t-70 -90.5t-52.5 -94q-27 -61 -32.5 -106.5t5 -77.5t35 -50t58.5 -23q29 -5 63.5 -0.5t69.5 17.5t69 33.5t62 47.5l7 -12q-39 -36 -94.5 -66t-113.5 -42q-57 -12 -110.5 -7t-88 33.5t-42.5 83t24 141.5q18 49 54 102.5t83 106
t103 100.5t114 86q-24 43 -11 105.5t67 132.5zM77 -95q-4 4 -2.5 9t5 8t8 3t7.5 -6q6 -11 16.5 -14.5t21.5 -1.5t20 7.5t13 13.5q7 14 -1 24t-34 4q-2 -6 -7 -6t-8 3.5t-2.5 9.5t8.5 14q9 7 18 16.5t17 16t15 8.5t12 -5t2 -10t-11 -6t-18.5 -9t-20.5 -19q15 5 29 3.5
t24 -8.5t13.5 -17t-0.5 -21q-6 -16 -22 -25t-35 -11.5t-37.5 2.5t-30.5 17z" />
    <glyph glyph-name="Eacute" unicode="&#xc9;" horiz-adv-x="652"
d="M813 540q-19 -8 -31.5 -2.5t-16 16.5t3.5 24t27 21q43 18 58.5 39.5t11 41t-25.5 33t-49 14.5q-29 1 -64 -6t-70 -22.5t-66.5 -40t-53.5 -57.5q-24 -36 -18.5 -62.5t28.5 -44t57 -27t67 -11.5q17 4 26 -2.5t7 -14.5t-16 -12.5t-42 4.5q-43 2 -96.5 -10.5t-105.5 -37.5
t-97 -61.5t-70 -82.5q-24 -45 -31.5 -80t-0.5 -61q98 49 174 67t126 14.5t71 -23.5t10.5 -46t-55.5 -53.5t-127 -46.5q-91 -21 -150.5 -14t-91.5 33q-26 -16 -53 -34.5t-56 -40.5t-38.5 -20t-5.5 15.5t18 32.5t33 31q41 27 77 47q-17 32 -12.5 74t28.5 88q22 42 63.5 83
t93.5 73t109 52t109 21q-32 2 -54.5 17.5t-34.5 37.5t-12 47.5t14 47.5q25 40 63 68.5t81 46t87.5 25.5t83.5 8q61 0 94.5 -23t37.5 -56t-24 -69t-91 -61zM492 43q54 15 80 35t26.5 36.5t-22.5 27t-67 7.5t-106.5 -22t-140.5 -62q29 -34 89.5 -39.5t140.5 17.5zM818 873
q6 5 13.5 7t12.5 0q6 -2 8 -8t-3 -8l-19.5 -8t-27 -12.5l-30.5 -16.5t-29 -19q-5 -3 -9.5 -2.5t-7 3t-2.5 6t5 6.5q15 9 27 15.5l22 12l19.5 11t20.5 13.5z" />
    <glyph glyph-name="Ecircumflex" unicode="&#xca;" horiz-adv-x="652"
d="M813 540q-19 -8 -31.5 -2.5t-16 16.5t3.5 24t27 21q43 18 58.5 39.5t11 41t-25.5 33t-49 14.5q-29 1 -64 -6t-70 -22.5t-66.5 -40t-53.5 -57.5q-24 -36 -18.5 -62.5t28.5 -44t57 -27t67 -11.5q17 4 26 -2.5t7 -14.5t-16 -12.5t-42 4.5q-43 2 -96.5 -10.5t-105.5 -37.5
t-97 -61.5t-70 -82.5q-24 -45 -31.5 -80t-0.5 -61q98 49 174 67t126 14.5t71 -23.5t10.5 -46t-55.5 -53.5t-127 -46.5q-91 -21 -150.5 -14t-91.5 33q-26 -16 -53 -34.5t-56 -40.5t-38.5 -20t-5.5 15.5t18 32.5t33 31q41 27 77 47q-17 32 -12.5 74t28.5 88q22 42 63.5 83
t93.5 73t109 52t109 21q-32 2 -54.5 17.5t-34.5 37.5t-12 47.5t14 47.5q25 40 63 68.5t81 46t87.5 25.5t83.5 8q61 0 94.5 -23t37.5 -56t-24 -69t-91 -61zM492 43q54 15 80 35t26.5 36.5t-22.5 27t-67 7.5t-106.5 -22t-140.5 -62q29 -34 89.5 -39.5t140.5 17.5zM858 826
q2 -4 -2 -7.5t-9.5 -5t-10.5 0t-5 8.5q0 12 -0.5 20t-3.5 16q-21 -10 -46 -26.5l-54 -35.5q-8 -5 -12 4.5t7 14.5q30 12 55 30l45 33q-2 3 1 5.5t7.5 3.5t9 0.5t5.5 -4.5q3 -11 5.5 -29.5t7.5 -27.5z" />
    <glyph glyph-name="Edieresis" unicode="&#xcb;" horiz-adv-x="652"
d="M813 540q-19 -8 -31.5 -2.5t-16 16.5t3.5 24t27 21q43 18 58.5 39.5t11 41t-25.5 33t-49 14.5q-29 1 -64 -6t-70 -22.5t-66.5 -40t-53.5 -57.5q-24 -36 -18.5 -62.5t28.5 -44t57 -27t67 -11.5q17 4 26 -2.5t7 -14.5t-16 -12.5t-42 4.5q-43 2 -96.5 -10.5t-105.5 -37.5
t-97 -61.5t-70 -82.5q-24 -45 -31.5 -80t-0.5 -61q98 49 174 67t126 14.5t71 -23.5t10.5 -46t-55.5 -53.5t-127 -46.5q-91 -21 -150.5 -14t-91.5 33q-26 -16 -53 -34.5t-56 -40.5t-38.5 -20t-5.5 15.5t18 32.5t33 31q41 27 77 47q-17 32 -12.5 74t28.5 88q22 42 63.5 83
t93.5 73t109 52t109 21q-32 2 -54.5 17.5t-34.5 37.5t-12 47.5t14 47.5q25 40 63 68.5t81 46t87.5 25.5t83.5 8q61 0 94.5 -23t37.5 -56t-24 -69t-91 -61zM492 43q54 15 80 35t26.5 36.5t-22.5 27t-67 7.5t-106.5 -22t-140.5 -62q29 -34 89.5 -39.5t140.5 17.5zM763 823
q-5 -5 -12.5 -7t-14 -1t-10 6t-0.5 15q1 3 3 7.5t5.5 8.5t10 6t15.5 0q16 -3 13.5 -15t-10.5 -20zM821 845q3 7 11.5 10t16 2.5t12 -6t0.5 -15.5q-3 -7 -8.5 -16t-24.5 -6q-12 2 -12 11t5 20z" />
    <glyph glyph-name="Egrave" unicode="&#xc8;" horiz-adv-x="652"
d="M813 540q-19 -8 -31.5 -2.5t-16 16.5t3.5 24t27 21q43 18 58.5 39.5t11 41t-25.5 33t-49 14.5q-29 1 -64 -6t-70 -22.5t-66.5 -40t-53.5 -57.5q-24 -36 -18.5 -62.5t28.5 -44t57 -27t67 -11.5q17 4 26 -2.5t7 -14.5t-16 -12.5t-42 4.5q-43 2 -96.5 -10.5t-105.5 -37.5
t-97 -61.5t-70 -82.5q-24 -45 -31.5 -80t-0.5 -61q98 49 174 67t126 14.5t71 -23.5t10.5 -46t-55.5 -53.5t-127 -46.5q-91 -21 -150.5 -14t-91.5 33q-26 -16 -53 -34.5t-56 -40.5t-38.5 -20t-5.5 15.5t18 32.5t33 31q41 27 77 47q-17 32 -12.5 74t28.5 88q22 42 63.5 83
t93.5 73t109 52t109 21q-32 2 -54.5 17.5t-34.5 37.5t-12 47.5t14 47.5q25 40 63 68.5t81 46t87.5 25.5t83.5 8q61 0 94.5 -23t37.5 -56t-24 -69t-91 -61zM492 43q54 15 80 35t26.5 36.5t-22.5 27t-67 7.5t-106.5 -22t-140.5 -62q29 -34 89.5 -39.5t140.5 17.5zM753 858
q-6 4 -8.5 9.5t2.5 9.5q5 3 13 3t16 -8q6 -5 20.5 -19.5t29.5 -26.5q6 -5 6.5 -9.5t-2.5 -7t-8.5 -2.5t-10.5 5q-12 12 -29 25t-29 21z" />
    <glyph glyph-name="Iacute" unicode="&#xcd;" horiz-adv-x="594"
d="M429 543q44 49 92.5 87.5t92.5 64t81.5 36.5t59.5 6t26 -27t-17 -64l-79 -147t-92 -152t-103.5 -139t-112.5 -109.5t-119.5 -61.5t-124.5 4q-36 12 -48 41t-4.5 60.5t30 58t55 34t72 -11.5t79.5 -79q13 -20 28 -18t25 15t11.5 31.5t-11.5 30.5q-46 43 -89 60t-80.5 15.5
t-67.5 -18t-50 -42t-28.5 -56.5t-2 -61t29 -55t63.5 -39q54 -18 108 -9.5t106 37t101 73t94.5 98.5t85.5 114t74.5 118.5t61.5 112t46 95.5q21 47 13.5 74t-36 37.5t-73.5 5t-99 -24t-112.5 -49.5t-113.5 -71q-36 -26 -43.5 -49.5t1.5 -36.5t29.5 -12.5t40.5 23.5zM798 873
q6 5 13.5 7t12.5 0q6 -2 8 -8t-3 -8l-19.5 -8t-27 -12.5l-30.5 -16.5t-29 -19q-5 -3 -9.5 -2.5t-7 3t-2.5 6t5 6.5q15 9 27 15.5l22 12l19.5 11t20.5 13.5z" />
    <glyph glyph-name="Icircumflex" unicode="&#xce;" horiz-adv-x="594"
d="M429 543q44 49 92.5 87.5t92.5 64t81.5 36.5t59.5 6t26 -27t-17 -64l-79 -147t-92 -152t-103.5 -139t-112.5 -109.5t-119.5 -61.5t-124.5 4q-36 12 -48 41t-4.5 60.5t30 58t55 34t72 -11.5t79.5 -79q13 -20 28 -18t25 15t11.5 31.5t-11.5 30.5q-46 43 -89 60t-80.5 15.5
t-67.5 -18t-50 -42t-28.5 -56.5t-2 -61t29 -55t63.5 -39q54 -18 108 -9.5t106 37t101 73t94.5 98.5t85.5 114t74.5 118.5t61.5 112t46 95.5q21 47 13.5 74t-36 37.5t-73.5 5t-99 -24t-112.5 -49.5t-113.5 -71q-36 -26 -43.5 -49.5t1.5 -36.5t29.5 -12.5t40.5 23.5zM838 826
q2 -4 -2 -7.5t-9.5 -5t-10.5 0t-5 8.5q0 12 -0.5 20t-3.5 16q-21 -10 -46 -26.5l-54 -35.5q-8 -5 -12 4.5t7 14.5q30 12 55 30l45 33q-2 3 1 5.5t7.5 3.5t9 0.5t5.5 -4.5q3 -11 5.5 -29.5t7.5 -27.5z" />
    <glyph glyph-name="Idieresis" unicode="&#xcf;" horiz-adv-x="594"
d="M429 543q-20 -23 -40.5 -23.5t-29.5 12.5t-1.5 36.5t43.5 49.5q55 40 113.5 71t112.5 49.5t99 24t73.5 -5t36 -37.5t-13.5 -74q-19 -42 -46 -95.5t-61.5 -112t-74.5 -118.5t-85.5 -114t-94.5 -98.5t-101 -73t-106 -37t-108 9.5q-41 14 -63.5 39t-29 55t2 61t28.5 56.5
t50 42t67.5 18t80.5 -15.5t89 -60q13 -12 11.5 -30.5t-11.5 -31.5t-25 -15t-28 18q-40 60 -79.5 79t-72 11.5t-55 -34t-30 -58t4.5 -60.5t48 -41q63 -21 124.5 -4t119.5 61.5t112.5 109.5t103.5 139t92 152l79 147q21 42 17 64t-26 27t-59.5 -6t-81.5 -36.5t-92.5 -64
t-92.5 -87.5zM743 823q-5 -5 -12.5 -7t-14 -1t-10 6t-0.5 15q1 3 3 7.5t5.5 8.5t10 6t15.5 0q16 -3 13.5 -15t-10.5 -20zM801 845q3 7 11.5 10t16 2.5t12 -6t0.5 -15.5q-3 -7 -8.5 -16t-24.5 -6q-12 2 -12 11t5 20z" />
    <glyph glyph-name="Igrave" unicode="&#xcc;" horiz-adv-x="594"
d="M429 543q44 49 92.5 87.5t92.5 64t81.5 36.5t59.5 6t26 -27t-17 -64l-79 -147t-92 -152t-103.5 -139t-112.5 -109.5t-119.5 -61.5t-124.5 4q-36 12 -48 41t-4.5 60.5t30 58t55 34t72 -11.5t79.5 -79q13 -20 28 -18t25 15t11.5 31.5t-11.5 30.5q-46 43 -89 60t-80.5 15.5
t-67.5 -18t-50 -42t-28.5 -56.5t-2 -61t29 -55t63.5 -39q54 -18 108 -9.5t106 37t101 73t94.5 98.5t85.5 114t74.5 118.5t61.5 112t46 95.5q21 47 13.5 74t-36 37.5t-73.5 5t-99 -24t-112.5 -49.5t-113.5 -71q-36 -26 -43.5 -49.5t1.5 -36.5t29.5 -12.5t40.5 23.5zM738 861
q-4 5 -3.5 11.5t7.5 8.5q6 2 10 0.5t9 -12.5q1 -3 4 -9l7 -13.5l8.5 -16t9.5 -14.5q4 -6 -6 -10t-14 4q-6 14 -15 27.5t-17 23.5z" />
    <glyph glyph-name="Ntilde" unicode="&#xd1;" horiz-adv-x="889"
d="M936 816q-8 -7 -13.5 -7t-7.5 4t-1 10t6 11q16 14 37.5 25.5t34.5 8.5q9 -2 13.5 -8.5t7 -14t5 -13.5t8.5 -7q11 -2 27 9t30 28q5 6 10.5 6.5t9 -2.5t3 -9t-7.5 -13q-18 -18 -39.5 -31t-38.5 -8q-8 2 -11.5 8.5t-5.5 13.5t-5 12.5t-9 7.5q-6 1 -13.5 -2.5t-15 -8.5
t-14 -11t-10.5 -9zM712 38q-5 -21 4 -32.5t22.5 -12.5t27.5 8.5t20 30.5q45 153 105 266t122.5 192.5t119.5 128.5t96 74q21 14 24 27t-5 20.5t-23.5 6.5t-31.5 -14q-39 -34 -93.5 -92.5t-111.5 -135.5t-109 -169t-87 -192q10 57 18.5 121t11.5 127t-2.5 122.5t-23.5 108.5
t-51.5 83.5t-86.5 48.5q-14 4 -28 -5t-19.5 -23t3.5 -29t41 -24q33 -9 56 -29t37 -49l-67 -129.5t-80.5 -139.5t-93 -131t-104.5 -105t-114.5 -60.5t-122.5 1.5q-50 15 -69.5 49t-16.5 70.5t25.5 68t58 41.5t80.5 -9.5t92 -83.5q14 -19 29 -17t24.5 14.5t10 30.5t-13.5 31
q-66 58 -125.5 68.5t-105 -9t-72.5 -59.5t-28 -84.5t28.5 -84t97.5 -56.5q66 -17 127 4t116.5 66t105 107.5t92 129t78.5 131l64 112.5q14 -53 12.5 -120t-12 -136.5t-25.5 -136.5z" />
    <glyph glyph-name="Oacute" unicode="&#xd3;" horiz-adv-x="585"
d="M764 688q15 10 18 20t-1.5 18.5t-14 14.5t-19.5 8q-55 10 -118.5 -2.5t-129.5 -43t-131 -77t-121.5 -105t-101 -126.5t-70.5 -142q-24 -69 -21.5 -118.5t24 -80.5t58.5 -45t81 -13q65 2 125.5 27.5t116 67t104.5 95.5t90 114q42 60 64 119.5t24 108t-16.5 83t-57.5 45
t-98.5 -7.5t-139.5 -72q-16 -11 -20 -22t-0.5 -18.5t12 -9.5t19.5 6q10 7 17 14l13.5 14t14 14t19.5 14q53 30 90 34.5t58.5 -11.5t28.5 -48t0.5 -74t-26 -90.5t-50.5 -96.5q-32 -49 -76 -97.5t-93.5 -87.5t-102 -63.5t-102.5 -26.5q-36 -2 -60.5 15t-35 50.5t-5 82
t30.5 111.5q36 91 91 165.5t120 127.5t137 82t141 29q18 0 29 -6.5t21.5 -11t24.5 -3t39 18.5zM727 873q6 5 13.5 7t12.5 0q6 -2 8 -8t-3 -8l-19.5 -8t-27 -12.5l-30.5 -16.5t-29 -19q-5 -3 -9.5 -2.5t-7 3t-2.5 6t5 6.5q15 9 27 15.5l22 12l19.5 11t20.5 13.5z" />
    <glyph glyph-name="Ocircumflex" unicode="&#xd4;" horiz-adv-x="585"
d="M764 688q15 10 18 20t-1.5 18.5t-14 14.5t-19.5 8q-55 10 -118.5 -2.5t-129.5 -43t-131 -77t-121.5 -105t-101 -126.5t-70.5 -142q-24 -69 -21.5 -118.5t24 -80.5t58.5 -45t81 -13q65 2 125.5 27.5t116 67t104.5 95.5t90 114q42 60 64 119.5t24 108t-16.5 83t-57.5 45
t-98.5 -7.5t-139.5 -72q-16 -11 -20 -22t-0.5 -18.5t12 -9.5t19.5 6q10 7 17 14l13.5 14t14 14t19.5 14q53 30 90 34.5t58.5 -11.5t28.5 -48t0.5 -74t-26 -90.5t-50.5 -96.5q-32 -49 -76 -97.5t-93.5 -87.5t-102 -63.5t-102.5 -26.5q-36 -2 -60.5 15t-35 50.5t-5 82
t30.5 111.5q36 91 91 165.5t120 127.5t137 82t141 29q18 0 29 -6.5t21.5 -11t24.5 -3t39 18.5zM767 826q2 -4 -2 -7.5t-9.5 -5t-10.5 0t-5 8.5q0 12 -0.5 20t-3.5 16q-21 -10 -46 -26.5l-54 -35.5q-8 -5 -12 4.5t7 14.5q30 12 55 30l45 33q-2 3 1 5.5t7.5 3.5t9 0.5
t5.5 -4.5q3 -11 5.5 -29.5t7.5 -27.5z" />
    <glyph glyph-name="Odieresis" unicode="&#xd6;" horiz-adv-x="585"
d="M764 688q-25 -17 -39 -18.5t-24.5 3t-21.5 11t-29 6.5q-69 0 -141 -29t-137 -82t-120 -127.5t-91 -165.5q-25 -63 -30.5 -111.5t5 -82t35 -50.5t60.5 -15q50 2 102.5 26.5t102 63.5t93.5 87.5t76 97.5q31 48 50.5 96.5t26 90.5t-0.5 74t-28.5 48t-58.5 11.5t-90 -34.5
q-12 -7 -19.5 -14t-14 -14l-13.5 -14t-17 -14q-11 -8 -19.5 -6t-12 9.5t0.5 18.5t20 22q80 54 139.5 72t98.5 7.5t57.5 -45t16.5 -83t-24 -108t-64 -119.5q-41 -60 -90 -114t-104.5 -95.5t-116 -67t-125.5 -27.5q-44 -1 -81 13t-58.5 45t-24 80.5t21.5 118.5q26 74 70.5 142
t101 126.5t121.5 105t131 77t129.5 43t118.5 2.5q10 -2 19.5 -8t14 -14.5t1.5 -18.5t-18 -20zM672 823q-5 -5 -12.5 -7t-14 -1t-10 6t-0.5 15q1 3 3 7.5t5.5 8.5t10 6t15.5 0q16 -3 13.5 -15t-10.5 -20zM730 845q3 7 11.5 10t16 2.5t12 -6t0.5 -15.5q-3 -7 -8.5 -16
t-24.5 -6q-12 2 -12 11t5 20z" />
    <glyph glyph-name="Ograve" unicode="&#xd2;" horiz-adv-x="585"
d="M764 688q15 10 18 20t-1.5 18.5t-14 14.5t-19.5 8q-55 10 -118.5 -2.5t-129.5 -43t-131 -77t-121.5 -105t-101 -126.5t-70.5 -142q-24 -69 -21.5 -118.5t24 -80.5t58.5 -45t81 -13q65 2 125.5 27.5t116 67t104.5 95.5t90 114q42 60 64 119.5t24 108t-16.5 83t-57.5 45
t-98.5 -7.5t-139.5 -72q-16 -11 -20 -22t-0.5 -18.5t12 -9.5t19.5 6q10 7 17 14l13.5 14t14 14t19.5 14q53 30 90 34.5t58.5 -11.5t28.5 -48t0.5 -74t-26 -90.5t-50.5 -96.5q-32 -49 -76 -97.5t-93.5 -87.5t-102 -63.5t-102.5 -26.5q-36 -2 -60.5 15t-35 50.5t-5 82
t30.5 111.5q36 91 91 165.5t120 127.5t137 82t141 29q18 0 29 -6.5t21.5 -11t24.5 -3t39 18.5zM653 858q-6 4 -8.5 9.5t2.5 9.5q5 3 13 3t16 -8q6 -5 20.5 -19.5t29.5 -26.5q6 -5 6.5 -9.5t-2.5 -7t-8.5 -2.5t-10.5 5q-12 12 -29 25t-29 21z" />
    <glyph glyph-name="Otilde" unicode="&#xd5;" horiz-adv-x="585"
d="M764 688q15 10 18 20t-1.5 18.5t-14 14.5t-19.5 8q-55 10 -118.5 -2.5t-129.5 -43t-131 -77t-121.5 -105t-101 -126.5t-70.5 -142q-24 -69 -21.5 -118.5t24 -80.5t58.5 -45t81 -13q65 2 125.5 27.5t116 67t104.5 95.5t90 114q42 60 64 119.5t24 108t-16.5 83t-57.5 45
t-98.5 -7.5t-139.5 -72q-16 -11 -20 -22t-0.5 -18.5t12 -9.5t19.5 6q10 7 17 14l13.5 14t14 14t19.5 14q53 30 90 34.5t58.5 -11.5t28.5 -48t0.5 -74t-26 -90.5t-50.5 -96.5q-32 -49 -76 -97.5t-93.5 -87.5t-102 -63.5t-102.5 -26.5q-36 -2 -60.5 15t-35 50.5t-5 82
t30.5 111.5q36 91 91 165.5t120 127.5t137 82t141 29q18 0 29 -6.5t21.5 -11t24.5 -3t39 18.5zM633 816q-8 -7 -13.5 -7t-7.5 4t-1 10t6 11q16 14 37.5 25.5t34.5 8.5q9 -2 13.5 -8.5t7 -14t5 -13.5t8.5 -7q11 -2 27 9t30 28q5 6 10.5 6.5t9 -2.5t3 -9t-7.5 -13
q-18 -18 -39.5 -31t-38.5 -8q-8 2 -11.5 8.5t-5.5 13.5t-5 12.5t-9 7.5q-6 1 -13.5 -2.5t-15 -8.5t-14 -11t-10.5 -9z" />
    <glyph glyph-name="Scaron" unicode="&#x160;" horiz-adv-x="674"
d="M546 446q-27 20 -35.5 44t-3.5 49.5t22 51t41 49.5q-33 44 -21.5 111t72.5 141q16 19 38.5 27t38.5 5t17.5 -16t-24.5 -36q-33 -29 -52.5 -57t-28 -53.5t-8 -48t8.5 -40.5q28 21 60 37.5t65 27t64.5 14t58.5 -2.5q34 -8 47 -26.5t6 -40t-32 -42.5t-66 -33
q-72 -21 -129.5 -16.5t-91.5 27.5q-30 -30 -39 -52.5t-3 -40t22.5 -32.5t36.5 -31q42 -33 61 -71.5t19 -78.5t-16.5 -80t-44.5 -77q-34 -45 -84.5 -83t-109 -60.5t-122 -27t-124.5 17.5q-62 22 -94.5 57t-41 74.5t4.5 78t41 68.5t68 46.5t87 11.5t97 -36.5t97 -98.5
q7 -11 3 -27t-14 -27.5t-23.5 -13t-23.5 16.5q-35 62 -73.5 94.5t-74.5 42t-68 0t-55 -31t-34.5 -51t-7 -60.5t27.5 -59t70 -46q41 -16 86 -18.5t91 9t90.5 37t84.5 66.5q46 47 67.5 92t22.5 85t-18 74t-53 60zM627 649q33 -45 114 -36q34 4 66 18.5t50 31.5t17.5 33.5
t-30.5 24.5q-18 5 -44.5 1.5t-56.5 -13t-60.5 -25t-55.5 -35.5zM758 864q-2 4 1 8t7.5 5t9 -1t6.5 -8q4 -14 5 -21t2 -15q10 6 22.5 14.5l25 17.5l25.5 17.5t24 13.5q4 2 8 0t5.5 -5.5t0.5 -7t-7 -5.5q-34 -12 -55.5 -30t-44.5 -34q-3 -6 -8.5 -7.5t-10 0t-7 5.5t2.5 8
q1 19 -3.5 26.5t-8.5 18.5z" />
    <glyph glyph-name="Uacute" unicode="&#xda;" horiz-adv-x="617"
d="M767 873q6 5 13.5 7t12.5 0q6 -2 8 -8t-3 -8l-19.5 -8t-27 -12.5l-30.5 -16.5t-29 -19q-5 -3 -9.5 -2.5t-7 3t-2.5 6t5 6.5q15 9 27 15.5l22 12l19.5 11t20.5 13.5zM134 520q45 47 103.5 80.5t117 55.5t109 31.5t79.5 9.5t29.5 -10.5t-42.5 -29.5q-27 -12 -62.5 -42.5
t-75 -72.5t-80 -93t-78 -104.5t-69.5 -106.5t-55 -98.5t-33.5 -80.5t-4.5 -54q6 -18 20 -21.5t41 11t69 49t104 92l146 139.5l195 192q-27 -38 -58.5 -76l-64 -80t-65 -90t-61.5 -105q-20 -40 -25 -66.5t1 -42t21 -21.5t36 -4q24 2 48 13.5t48 28.5t47.5 38.5t45.5 44.5
l-6 12q-26 -28 -50.5 -49.5t-47.5 -34.5q-12 -7 -27.5 -13t-27.5 -5.5t-17 10.5t4 36q19 53 49 106t69 110t87 120.5l103 137.5q17 13 34 30.5t27 35.5t11 33t-13 24q-16 8 -31.5 -1t-31 -27t-30.5 -42l-30 -47l-216 -214l-170.5 -161.5t-111.5 -92.5t-40 -7q0 20 25.5 67.5
t65.5 108.5t89 128t97 125t89 100.5t64 54.5q47 24 45.5 40.5t-36 24t-94 4.5t-128 -17.5t-138 -41t-124.5 -66.5q-36 -26 -44 -49t0.5 -36t28.5 -12.5t40 21.5z" />
    <glyph glyph-name="Ucircumflex" unicode="&#xdb;" horiz-adv-x="617"
d="M808 826q2 -4 -2 -7.5t-9.5 -5t-10.5 0t-5 8.5q0 12 -0.5 20t-3.5 16q-21 -10 -46 -26.5l-54 -35.5q-8 -5 -12 4.5t7 14.5q30 12 55 30l45 33q-2 3 1 5.5t7.5 3.5t9 0.5t5.5 -4.5q3 -11 5.5 -29.5t7.5 -27.5zM134 520q45 47 103.5 80.5t117 55.5t109 31.5t79.5 9.5
t29.5 -10.5t-42.5 -29.5q-27 -12 -62.5 -42.5t-75 -72.5t-80 -93t-78 -104.5t-69.5 -106.5t-55 -98.5t-33.5 -80.5t-4.5 -54q6 -18 20 -21.5t41 11t69 49t104 92l146 139.5l195 192q-27 -38 -58.5 -76l-64 -80t-65 -90t-61.5 -105q-20 -40 -25 -66.5t1 -42t21 -21.5t36 -4
q24 2 48 13.5t48 28.5t47.5 38.5t45.5 44.5l-6 12q-26 -28 -50.5 -49.5t-47.5 -34.5q-12 -7 -27.5 -13t-27.5 -5.5t-17 10.5t4 36q19 53 49 106t69 110t87 120.5l103 137.5q17 13 34 30.5t27 35.5t11 33t-13 24q-16 8 -31.5 -1t-31 -27t-30.5 -42l-30 -47l-216 -214
l-170.5 -161.5t-111.5 -92.5t-40 -7q0 20 25.5 67.5t65.5 108.5t89 128t97 125t89 100.5t64 54.5q47 24 45.5 40.5t-36 24t-94 4.5t-128 -17.5t-138 -41t-124.5 -66.5q-36 -26 -44 -49t0.5 -36t28.5 -12.5t40 21.5z" />
    <glyph glyph-name="Udieresis" unicode="&#xdc;" horiz-adv-x="617"
d="M712 823q-5 -5 -12.5 -7t-14 -1t-10 6t-0.5 15q1 3 3 7.5t5.5 8.5t10 6t15.5 0q16 -3 13.5 -15t-10.5 -20zM770 845q3 7 11.5 10t16 2.5t12 -6t0.5 -15.5q-3 -7 -8.5 -16t-24.5 -6q-12 2 -12 11t5 20zM134 520q-20 -21 -40 -21.5t-28.5 12.5t-0.5 36t44 49
q55 40 124.5 66.5t138 41t128 17.5t94 -4.5t36 -24t-45.5 -40.5q-23 -12 -64 -54.5t-89 -100.5t-97 -125t-89 -128t-65.5 -108.5t-25.5 -67.5q0 -21 40 7t111.5 92.5l170.5 161.5l216 214l30 47t30.5 42t31 27t31.5 1q14 -9 13 -24t-11 -33t-27 -35.5t-34 -30.5l-103 -137.5
t-87 -120.5t-69 -110t-49 -106q-9 -26 -4 -36t17 -10.5t27.5 5.5t27.5 13q23 13 47.5 34.5t50.5 49.5l6 -12q-22 -23 -45.5 -44.5t-47.5 -38.5t-48 -28.5t-48 -13.5q-21 -2 -36 4t-21 21.5t-1 42t25 66.5q29 57 61.5 105t65 90l64 80t58.5 76l-195 -192l-146 -139.5
t-104 -92t-69 -49t-41 -11t-20 21.5q-6 19 4.5 54t33.5 80.5t55 98.5t69.5 106.5t78 104.5t80 93t75 72.5t62.5 42.5q43 19 42.5 29.5t-29.5 10.5t-79.5 -9.5t-109 -31.5t-117 -55.5t-103.5 -80.5z" />
    <glyph glyph-name="Ugrave" unicode="&#xd9;" horiz-adv-x="617"
d="M693 858q-6 4 -8.5 9.5t2.5 9.5q5 3 13 3t16 -8q6 -5 20.5 -19.5t29.5 -26.5q6 -5 6.5 -9.5t-2.5 -7t-8.5 -2.5t-10.5 5q-12 12 -29 25t-29 21zM134 520q45 47 103.5 80.5t117 55.5t109 31.5t79.5 9.5t29.5 -10.5t-42.5 -29.5q-27 -12 -62.5 -42.5t-75 -72.5t-80 -93
t-78 -104.5t-69.5 -106.5t-55 -98.5t-33.5 -80.5t-4.5 -54q6 -18 20 -21.5t41 11t69 49t104 92l146 139.5l195 192q-27 -38 -58.5 -76l-64 -80t-65 -90t-61.5 -105q-20 -40 -25 -66.5t1 -42t21 -21.5t36 -4q24 2 48 13.5t48 28.5t47.5 38.5t45.5 44.5l-6 12
q-26 -28 -50.5 -49.5t-47.5 -34.5q-12 -7 -27.5 -13t-27.5 -5.5t-17 10.5t4 36q19 53 49 106t69 110t87 120.5l103 137.5q17 13 34 30.5t27 35.5t11 33t-13 24q-16 8 -31.5 -1t-31 -27t-30.5 -42l-30 -47l-216 -214l-170.5 -161.5t-111.5 -92.5t-40 -7q0 20 25.5 67.5
t65.5 108.5t89 128t97 125t89 100.5t64 54.5q47 24 45.5 40.5t-36 24t-94 4.5t-128 -17.5t-138 -41t-124.5 -66.5q-36 -26 -44 -49t0.5 -36t28.5 -12.5t40 21.5z" />
    <glyph glyph-name="Yacute" unicode="&#xdd;" horiz-adv-x="597"
d="M838 873q6 5 13.5 7t12.5 0q6 -2 8 -8t-3 -8l-19.5 -8t-27 -12.5l-30.5 -16.5t-29 -19q-5 -3 -9.5 -2.5t-7 3t-2.5 6t5 6.5q15 9 27 15.5l22 12l19.5 11t20.5 13.5zM371 175q-45 44 -87.5 62.5t-79 19t-66 -14.5t-48.5 -39t-26.5 -53.5t-0.5 -57.5t29.5 -52.5t63.5 -37.5
q70 -23 137.5 -3.5t131.5 67t123.5 115.5t114 142.5t102 148l88.5 132.5q17 14 34.5 32t29 35.5t13 32.5t-14.5 23t-31.5 -1t-30.5 -27t-30 -42.5t-31 -47.5q-116 -117 -192 -179t-120.5 -84.5t-62.5 -15.5t-18 28q0 30 27 77t67 96t84.5 90t80.5 59q47 24 46 40.5
t-35.5 23.5t-94 4t-128.5 -17t-139 -40.5t-126 -66.5q-35 -25 -42.5 -48t2 -36t30 -13t41.5 21q45 46 104 80t117.5 55.5t109 32t79 11t28 -9.5t-44.5 -29q-34 -15 -70 -41.5t-69 -60t-61 -71.5t-47.5 -76t-27.5 -73.5t-1 -63.5q7 -27 37 -30.5t82 22t124 82.5t164 150
q-98 -141 -178.5 -243.5t-150 -165.5t-132.5 -85t-127 -1q-38 13 -52.5 41.5t-11 58.5t23.5 55t51.5 30t72 -15.5t86.5 -81.5q15 -20 31 -19t26 12.5t10.5 29.5t-14.5 33z" />
    <glyph glyph-name="Ydieresis" unicode="&#x178;" horiz-adv-x="597"
d="M783 823q-5 -5 -12.5 -7t-14 -1t-10 6t-0.5 15q1 3 3 7.5t5.5 8.5t10 6t15.5 0q16 -3 13.5 -15t-10.5 -20zM841 845q3 7 11.5 10t16 2.5t12 -6t0.5 -15.5q-3 -7 -8.5 -16t-24.5 -6q-12 2 -12 11t5 20zM371 175q15 -15 14.5 -33t-10.5 -29.5t-26 -12.5t-31 19
q-46 61 -86.5 81.5t-72 15.5t-51.5 -30t-23.5 -55t11 -58.5t52.5 -41.5q64 -21 127 1t132.5 85t150 165.5t178.5 243.5q-92 -93 -164 -150t-124 -82.5t-82 -22t-37 30.5q-7 28 1 63.5t27.5 73.5t47.5 76t61 71.5t69 60t70 41.5q44 19 44.5 29t-28 9.5t-79 -11t-109 -32
t-117.5 -55.5t-104 -80q-21 -21 -41.5 -21t-30 13t-2 36t42.5 48q56 40 126 66.5t139 40.5t128.5 17t94 -4t35.5 -23.5t-46 -40.5q-36 -18 -80.5 -59t-84.5 -90t-67 -96t-27 -77q0 -21 18 -28t62.5 15.5t120.5 84.5t192 179q16 23 31 47.5t30 42.5t30.5 27t31.5 1t14.5 -23
t-13 -32.5t-29 -35.5t-34.5 -32l-88.5 -132.5t-102 -148t-114 -142.5t-123.5 -115.5t-131.5 -67t-137.5 3.5q-41 13 -63.5 37.5t-29.5 52.5t0.5 57.5t26.5 53.5t48.5 39t66 14.5t79 -19t87.5 -62.5z" />
    <glyph glyph-name="aacute" unicode="&#xe1;" horiz-adv-x="326"
d="M295 401q6 5 13.5 7t12.5 0q6 -2 8 -8t-3 -8l-19.5 -8t-27 -12.5l-30.5 -16.5t-29 -19q-5 -3 -9.5 -2.5t-7 3t-2.5 6t5 6.5q15 9 27 15.5l22 12l19.5 11t20.5 13.5zM326 119q-30 -33 -57 -56t-45.5 -33.5t-25.5 -7t4 23.5q21 39 36.5 61.5t30 39.5t31.5 33t41 42
q7 7 3.5 12.5t-11 8t-17 3t-14.5 -1.5q-6 -2 -11.5 -5.5t-10.5 -7.5q-5 19 -20 28t-47 5q-30 -4 -62 -22.5t-61.5 -41.5t-53.5 -46l-36 -35l6 -12q25 28 51 51q-21 -25 -35.5 -51t-21 -48t-3.5 -38t18 -22q20 -8 40.5 -4.5t40 14t36.5 25t30 27.5q-14 -29 -10 -48.5
t25 -18.5t60 26.5t95 86.5zM66 25q-17 -2 -13.5 15.5t18.5 44.5t38 57t47 53.5t45 34t31 -1.5q9 -11 3.5 -23.5t-8.5 -26.5q-19 -24 -37.5 -50t-38 -48t-40.5 -37t-45 -18z" />
    <glyph glyph-name="acircumflex" unicode="&#xe2;" horiz-adv-x="326"
d="M333 354q2 -4 -2 -7.5t-9.5 -5t-10.5 0t-5 8.5q0 12 -0.5 20t-3.5 16q-21 -10 -46 -26.5l-54 -35.5q-8 -5 -12 4.5t7 14.5q30 12 55 30l45 33q-2 3 1 5.5t7.5 3.5t9 0.5t5.5 -4.5q3 -11 5.5 -29.5t7.5 -27.5zM326 119q-30 -33 -57 -56t-45.5 -33.5t-25.5 -7t4 23.5
q21 39 36.5 61.5t30 39.5t31.5 33t41 42q7 7 3.5 12.5t-11 8t-17 3t-14.5 -1.5q-6 -2 -11.5 -5.5t-10.5 -7.5q-5 19 -20 28t-47 5q-30 -4 -62 -22.5t-61.5 -41.5t-53.5 -46l-36 -35l6 -12q25 28 51 51q-21 -25 -35.5 -51t-21 -48t-3.5 -38t18 -22q20 -8 40.5 -4.5t40 14
t36.5 25t30 27.5q-14 -29 -10 -48.5t25 -18.5t60 26.5t95 86.5zM66 25q-17 -2 -13.5 15.5t18.5 44.5t38 57t47 53.5t45 34t31 -1.5q9 -11 3.5 -23.5t-8.5 -26.5q-19 -24 -37.5 -50t-38 -48t-40.5 -37t-45 -18z" />
    <glyph glyph-name="adieresis" unicode="&#xe4;" horiz-adv-x="326"
d="M240 351q-5 -5 -12.5 -7t-14 -1t-10 6t-0.5 15q1 3 3 7.5t5.5 8.5t10 6t15.5 0q16 -3 13.5 -15t-10.5 -20zM298 373q3 7 11.5 10t16 2.5t12 -6t0.5 -15.5q-3 -7 -8.5 -16t-24.5 -6q-12 2 -12 11t5 20zM332 107q-56 -61 -95 -86.5t-60 -26.5t-25 18.5t10 48.5
q-13 -13 -30 -27.5t-36.5 -25t-40 -14t-40.5 4.5q-15 6 -18 22t3.5 38t21 48t35.5 51q-26 -23 -51 -51l-6 12l36 35t53.5 46t61.5 41.5t62 22.5q32 4 47 -5t20 -28q5 4 10.5 7.5t11.5 5.5q5 2 14.5 1.5t17 -3t11 -8t-3.5 -12.5q-24 -26 -41 -42t-31.5 -33t-30 -39.5
t-36.5 -61.5q-11 -20 -4 -23.5t25.5 7t45.5 33.5t57 56zM66 25q24 3 45 18t40.5 37t38 48t37.5 50q3 14 8.5 26.5t-3.5 23.5q-10 12 -31 1.5t-45 -34t-47 -53.5t-38 -57t-18.5 -44.5t13.5 -15.5z" />
    <glyph glyph-name="agrave" unicode="&#xe0;" horiz-adv-x="326"
d="M326 119q-30 -33 -57 -56t-45.5 -33.5t-25.5 -7t4 23.5q21 39 36.5 61.5t30 39.5t31.5 33t41 42q7 7 3.5 12.5t-11 8t-17 3t-14.5 -1.5q-6 -2 -11.5 -5.5t-10.5 -7.5q-5 19 -20 28t-47 5q-30 -4 -62 -22.5t-61.5 -41.5t-53.5 -46l-36 -35l6 -12q25 28 51 51
q-21 -25 -35.5 -51t-21 -48t-3.5 -38t18 -22q20 -8 40.5 -4.5t40 14t36.5 25t30 27.5q-14 -29 -10 -48.5t25 -18.5t60 26.5t95 86.5zM66 25q-17 -2 -13.5 15.5t18.5 44.5t38 57t47 53.5t45 34t31 -1.5q9 -11 3.5 -23.5t-8.5 -26.5q-19 -24 -37.5 -50t-38 -48t-40.5 -37
t-45 -18zM230 385q-6 4 -8.5 9.5t2.5 9.5q5 3 13 3t16 -8q6 -5 20.5 -19.5t29.5 -26.5q6 -5 6.5 -9.5t-2.5 -7t-8.5 -2.5t-10.5 5q-12 12 -29 25t-29 21z" />
    <glyph glyph-name="aring" unicode="&#xe5;" horiz-adv-x="326"
d="M306 402q12 -9 9 -21t-14 -23t-26.5 -18.5t-29.5 -6.5q-16 1 -24 11.5t2 28.5q11 20 33.5 30t41.5 10q7 0 10.5 -4t2.5 -8.5t-7 -7.5t-17 -1t-23.5 -3.5t-19.5 -15.5t-5.5 -18.5t11.5 -8.5t22.5 6.5t18.5 13.5q18 23 7 30zM332 107q-56 -61 -95 -86.5t-60 -26.5t-25 18.5
t10 48.5q-13 -13 -30 -27.5t-36.5 -25t-40 -14t-40.5 4.5q-15 6 -18 22t3.5 38t21 48t35.5 51q-26 -23 -51 -51l-6 12l36 35t53.5 46t61.5 41.5t62 22.5q32 4 47 -5t20 -28q5 4 10.5 7.5t11.5 5.5q5 2 14.5 1.5t17 -3t11 -8t-3.5 -12.5q-24 -26 -41 -42t-31.5 -33t-30 -39.5
t-36.5 -61.5q-11 -20 -4 -23.5t25.5 7t45.5 33.5t57 56zM66 25q24 3 45 18t40.5 37t38 48t37.5 50q3 14 8.5 26.5t-3.5 23.5q-10 12 -31 1.5t-45 -34t-47 -53.5t-38 -57t-18.5 -44.5t13.5 -15.5z" />
    <glyph glyph-name="atilde" unicode="&#xe3;" horiz-adv-x="326"
d="M189 344q-8 -7 -13.5 -7t-7.5 4t-1 10t6 11q16 14 37.5 25.5t34.5 8.5q9 -2 13.5 -8.5t7 -14t5 -13.5t8.5 -7q11 -2 27 9t30 28q5 6 10.5 6.5t9 -2.5t3 -9t-7.5 -13q-18 -18 -39.5 -31t-38.5 -8q-8 2 -11.5 8.5t-5.5 13.5t-5 12.5t-9 7.5q-6 1 -13.5 -2.5t-15 -8.5
t-14 -11t-10.5 -9zM326 119q-30 -33 -57 -56t-45.5 -33.5t-25.5 -7t4 23.5q21 39 36.5 61.5t30 39.5t31.5 33t41 42q7 7 3.5 12.5t-11 8t-17 3t-14.5 -1.5q-6 -2 -11.5 -5.5t-10.5 -7.5q-5 19 -20 28t-47 5q-30 -4 -62 -22.5t-61.5 -41.5t-53.5 -46l-36 -35l6 -12
q25 28 51 51q-21 -25 -35.5 -51t-21 -48t-3.5 -38t18 -22q20 -8 40.5 -4.5t40 14t36.5 25t30 27.5q-14 -29 -10 -48.5t25 -18.5t60 26.5t95 86.5zM66 25q-17 -2 -13.5 15.5t18.5 44.5t38 57t47 53.5t45 34t31 -1.5q9 -11 3.5 -23.5t-8.5 -26.5q-19 -24 -37.5 -50t-38 -48
t-40.5 -37t-45 -18z" />
    <glyph glyph-name="ccedilla" unicode="&#xe7;" horiz-adv-x="283"
d="M-16 -95q-4 4 -2.5 9t5 8t8 3t7.5 -6q6 -11 16.5 -14.5t21.5 -1.5t20 7.5t13 13.5q7 14 -1 24t-34 4q-2 -6 -7 -6t-8 3.5t-2.5 9.5t8.5 14q8 7 15 14.5t14 13.5q-24 7 -33 29q-11 23 -4.5 53.5t26.5 61.5l-17.5 -16l-23.5 -22l-6 12l53 49t69 55q22 16 46 27t50 14
q20 3 33.5 -3t19.5 -18.5t5 -29.5t-11 -36q-10 -23 -24 -28.5t-26 -1t-18.5 15.5t-1.5 20q5 8 11 21t6 24q0 9 -9 7t-22 -12t-29 -26.5t-30 -36.5t-25.5 -41.5t-15.5 -41.5q-5 -29 9.5 -41.5t43 -7.5t67.5 27.5t82 63.5l6 -12q-57 -60 -110 -85.5t-91 -25.5q-7 -4 -19.5 -9
t-25.5 -22q15 5 29 3.5t24 -8.5t13.5 -17t-0.5 -21q-6 -16 -22 -25t-35 -11.5t-37.5 2.5t-30.5 17z" />
    <glyph glyph-name="eacute" unicode="&#xe9;" horiz-adv-x="268"
d="M268 119q-45 -44 -83.5 -66.5t-64.5 -25.5t-36 13.5t1 51.5q21 5 47 13.5t51.5 21.5t46.5 29.5t31 37.5q17 35 1.5 54.5t-50.5 15.5q-25 -3 -48.5 -13.5t-44.5 -25.5q-22 -16 -38.5 -30l-30.5 -26.5t-26 -25l-24 -24.5l6 -12l22 22t17 16q-19 -31 -25 -61.5t5 -53.5
q10 -21 32.5 -29.5t55.5 -1t74 33.5t87 74zM206 228q3 -23 -6.5 -42t-26.5 -34t-38.5 -26t-43.5 -18q12 28 30.5 54.5t37 45t32 25.5t15.5 -5zM264 401q6 5 13.5 7t12.5 0q6 -2 8 -8t-3 -8l-19.5 -8t-27 -12.5l-30.5 -16.5t-29 -19q-5 -3 -9.5 -2.5t-7 3t-2.5 6t5 6.5
q15 9 27 15.5l22 12l19.5 11t20.5 13.5z" />
    <glyph glyph-name="ecircumflex" unicode="&#xea;" horiz-adv-x="268"
d="M268 119q-45 -44 -83.5 -66.5t-64.5 -25.5t-36 13.5t1 51.5q21 5 47 13.5t51.5 21.5t46.5 29.5t31 37.5q17 35 1.5 54.5t-50.5 15.5q-25 -3 -48.5 -13.5t-44.5 -25.5q-22 -16 -38.5 -30l-30.5 -26.5t-26 -25l-24 -24.5l6 -12l22 22t17 16q-19 -31 -25 -61.5t5 -53.5
q10 -21 32.5 -29.5t55.5 -1t74 33.5t87 74zM206 228q3 -23 -6.5 -42t-26.5 -34t-38.5 -26t-43.5 -18q12 28 30.5 54.5t37 45t32 25.5t15.5 -5zM305 354q2 -4 -2 -7.5t-9.5 -5t-10.5 0t-5 8.5q0 12 -0.5 20t-3.5 16q-21 -10 -46 -26.5l-54 -35.5q-8 -5 -12 4.5t7 14.5
q30 12 55 30l45 33q-2 3 1 5.5t7.5 3.5t9 0.5t5.5 -4.5q3 -11 5.5 -29.5t7.5 -27.5z" />
    <glyph glyph-name="edieresis" unicode="&#xeb;" horiz-adv-x="268"
d="M274 107q-46 -48 -87 -74t-74 -33.5t-55.5 1t-32.5 29.5q-11 23 -5 53.5t25 61.5q-8 -7 -17 -16l-22 -22l-6 12l24 24.5t26 25l30.5 26.5t38.5 30q21 15 44.5 25.5t48.5 13.5q35 4 50.5 -15.5t-1.5 -54.5q-10 -21 -31 -37.5t-46.5 -29.5t-51.5 -21.5t-47 -13.5
q-11 -35 -1 -51.5t36 -13.5t64.5 25.5t83.5 66.5zM206 228q-2 12 -15.5 5t-32 -25.5t-37 -45t-30.5 -54.5q22 7 43.5 18t38.5 26t26.5 34t6.5 42zM213 351q-5 -5 -12.5 -7t-14 -1t-10 6t-0.5 15q1 3 3 7.5t5.5 8.5t10 6t15.5 0q16 -3 13.5 -15t-10.5 -20zM271 373
q3 7 11.5 10t16 2.5t12 -6t0.5 -15.5q-3 -7 -8.5 -16t-24.5 -6q-12 2 -12 11t5 20z" />
    <glyph glyph-name="egrave" unicode="&#xe8;" horiz-adv-x="268"
d="M268 119q-45 -44 -83.5 -66.5t-64.5 -25.5t-36 13.5t1 51.5q21 5 47 13.5t51.5 21.5t46.5 29.5t31 37.5q17 35 1.5 54.5t-50.5 15.5q-25 -3 -48.5 -13.5t-44.5 -25.5q-22 -16 -38.5 -30l-30.5 -26.5t-26 -25l-24 -24.5l6 -12l22 22t17 16q-19 -31 -25 -61.5t5 -53.5
q10 -21 32.5 -29.5t55.5 -1t74 33.5t87 74zM206 228q3 -23 -6.5 -42t-26.5 -34t-38.5 -26t-43.5 -18q12 28 30.5 54.5t37 45t32 25.5t15.5 -5zM198 385q-6 4 -8.5 9.5t2.5 9.5q5 3 13 3t16 -8q6 -5 20.5 -19.5t29.5 -26.5q6 -5 6.5 -9.5t-2.5 -7t-8.5 -2.5t-10.5 5
q-12 12 -29 25t-29 21z" />
    <glyph glyph-name="iacute" unicode="&#xed;" horiz-adv-x="193"
d="M249 401q6 5 13.5 7t12.5 0q6 -2 8 -8t-3 -8l-19.5 -8t-27 -12.5l-30.5 -16.5t-29 -19q-5 -3 -9.5 -2.5t-7 3t-2.5 6t5 6.5q15 9 27 15.5l22 12l19.5 11t20.5 13.5zM64 51l31.5 49l34 51.5t36 48t36.5 39.5q16 13 11.5 22t-18.5 12.5t-31 1.5t-26 -9q-38 -33 -70 -71
t-68 -76l6 -12l34 35l23.5 26l22 24t30.5 30q-9 -15 -23 -34.5l-28.5 -40.5l-27.5 -41t-21 -35q-18 -35 -12 -57.5t44 -20.5q16 1 31.5 8t33 21t38.5 35l48 50l-6 12q-40 -43 -69.5 -66t-47 -30t-21 0.5t8.5 27.5z" />
    <glyph glyph-name="icircumflex" unicode="&#xee;" horiz-adv-x="193"
d="M275 354q2 -4 -2 -7.5t-9.5 -5t-10.5 0t-5 8.5q0 12 -0.5 20t-3.5 16q-21 -10 -46 -26.5l-54 -35.5q-8 -5 -12 4.5t7 14.5q30 12 55 30l45 33q-2 3 1 5.5t7.5 3.5t9 0.5t5.5 -4.5q3 -11 5.5 -29.5t7.5 -27.5zM64 51l31.5 49l34 51.5t36 48t36.5 39.5q16 13 11.5 22
t-18.5 12.5t-31 1.5t-26 -9q-38 -33 -70 -71t-68 -76l6 -12l34 35l23.5 26l22 24t30.5 30q-9 -15 -23 -34.5l-28.5 -40.5l-27.5 -41t-21 -35q-18 -35 -12 -57.5t44 -20.5q16 1 31.5 8t33 21t38.5 35l48 50l-6 12q-40 -43 -69.5 -66t-47 -30t-21 0.5t8.5 27.5z" />
    <glyph glyph-name="idieresis" unicode="&#xef;" horiz-adv-x="193"
d="M194 351q-5 -5 -12.5 -7t-14 -1t-10 6t-0.5 15q1 3 3 7.5t5.5 8.5t10 6t15.5 0q16 -3 13.5 -15t-10.5 -20zM252 373q3 7 11.5 10t16 2.5t12 -6t0.5 -15.5q-3 -7 -8.5 -16t-24.5 -6q-12 2 -12 11t5 20zM64 51q-12 -20 -8.5 -27.5t21 -0.5t47 30t69.5 66l6 -12l-48 -50
t-38.5 -35t-33 -21t-31.5 -8q-38 -2 -44 20.5t12 57.5q8 15 21 35l27.5 41l28.5 40.5t23 34.5q-19 -18 -30.5 -30l-22 -24l-23.5 -26l-34 -35l-6 12q36 38 68 76t70 71q9 7 26 9t31 -1.5t18.5 -12.5t-11.5 -22q-18 -17 -36.5 -39.5t-36 -48l-34 -51.5z" />
    <glyph glyph-name="igrave" unicode="&#xec;" horiz-adv-x="193"
d="M183 385q-6 4 -8.5 9.5t2.5 9.5q5 3 13 3t16 -8q6 -5 20.5 -19.5t29.5 -26.5q6 -5 6.5 -9.5t-2.5 -7t-8.5 -2.5t-10.5 5q-12 12 -29 25t-29 21zM64 51l31.5 49l34 51.5t36 48t36.5 39.5q16 13 11.5 22t-18.5 12.5t-31 1.5t-26 -9q-38 -33 -70 -71t-68 -76l6 -12l34 35
l23.5 26l22 24t30.5 30q-9 -15 -23 -34.5l-28.5 -40.5l-27.5 -41t-21 -35q-18 -35 -12 -57.5t44 -20.5q16 1 31.5 8t33 21t38.5 35l48 50l-6 12q-40 -43 -69.5 -66t-47 -30t-21 0.5t8.5 27.5z" />
    <glyph glyph-name="ntilde" unicode="&#xf1;" horiz-adv-x="347"
d="M0 119l6 -12q10 12 27 28.5l35.5 34l36.5 34.5t32 29l-39 -57l-42 -59l-41.5 -55l-38.5 -47q-9 -11 -4 -16t16 -6t24 3t20 11l43 44l54 52.5l56 50.5t50 40q33 24 43 26t5 -11t-21 -36.5l-34.5 -49.5l-34.5 -50t-22 -38q-8 -19 -3 -28t20 -11t37 8.5t46 27.5t46 37t36 38
l-6 12q-57 -57 -83.5 -68.5t-17.5 7.5q3 7 14.5 22.5l25.5 35l28.5 40.5t24.5 40.5t13 34.5t-5 22q-15 12 -37.5 7t-52 -24t-67 -50.5l-82.5 -72.5l40 52.5t40 59.5q7 12 5 21t-9.5 14.5t-18.5 5t-21 -7.5q-12 -9 -32.5 -28l-42 -40l-40.5 -41zM213 344q-8 -7 -13.5 -7
t-7.5 4t-1 10t6 11q16 14 37.5 25.5t34.5 8.5q9 -2 13.5 -8.5t7 -14t5 -13.5t8.5 -7q11 -2 27 9t30 28q5 6 10.5 6.5t9 -2.5t3 -9t-7.5 -13q-18 -18 -39.5 -31t-38.5 -8q-8 2 -11.5 8.5t-5.5 13.5t-5 12.5t-9 7.5q-6 1 -13.5 -2.5t-15 -8.5t-14 -11t-10.5 -9z" />
    <glyph glyph-name="oacute" unicode="&#xf3;" horiz-adv-x="310"
d="M282 401q6 5 13.5 7t12.5 0q6 -2 8 -8t-3 -8l-19.5 -8t-27 -12.5l-30.5 -16.5t-29 -19q-5 -3 -9.5 -2.5t-7 3t-2.5 6t5 6.5q15 9 27 15.5l22 12l19.5 11t20.5 13.5zM278 250q-22 13 -49 14t-54.5 -7.5t-53.5 -25.5t-47 -39q-23 -20 -40.5 -38l-33.5 -35l6 -12l18 19.5
l15 15.5q-11 -23 -15 -47t2 -49q7 -28 28.5 -40.5t48.5 -11.5t56.5 14.5t53.5 37.5q30 3 57.5 22.5t45.5 38.5l-6 12q-20 -21 -40 -34.5t-37 -15.5q13 19 24 39t16 38.5t3 34t-15 25.5q19 8 27.5 20.5t-10.5 23.5zM67 51q-7 31 9.5 63.5t41.5 56.5t51 35.5t40 0.5
q-16 -9 -32.5 -29.5t-25 -44t-5 -45.5t27.5 -34q-16 -15 -33 -25t-32 -12t-26.5 5.5t-15.5 28.5zM219 202q8 -2 14 -2q7 -9 7 -23.5t-6 -31.5t-16 -35t-22 -33q-21 8 -25 25.5t2 37t19 37t27 25.5z" />
    <glyph glyph-name="ocircumflex" unicode="&#xf4;" horiz-adv-x="310"
d="M310 354q2 -4 -2 -7.5t-9.5 -5t-10.5 0t-5 8.5q0 12 -0.5 20t-3.5 16q-21 -10 -46 -26.5l-54 -35.5q-8 -5 -12 4.5t7 14.5q30 12 55 30l45 33q-2 3 1 5.5t7.5 3.5t9 0.5t5.5 -4.5q3 -11 5.5 -29.5t7.5 -27.5zM278 250q-22 13 -49 14t-54.5 -7.5t-53.5 -25.5t-47 -39
q-23 -20 -40.5 -38l-33.5 -35l6 -12l18 19.5l15 15.5q-11 -23 -15 -47t2 -49q7 -28 28.5 -40.5t48.5 -11.5t56.5 14.5t53.5 37.5q30 3 57.5 22.5t45.5 38.5l-6 12q-20 -21 -40 -34.5t-37 -15.5q13 19 24 39t16 38.5t3 34t-15 25.5q19 8 27.5 20.5t-10.5 23.5zM67 51
q-7 31 9.5 63.5t41.5 56.5t51 35.5t40 0.5q-16 -9 -32.5 -29.5t-25 -44t-5 -45.5t27.5 -34q-16 -15 -33 -25t-32 -12t-26.5 5.5t-15.5 28.5zM219 202q8 -2 14 -2q7 -9 7 -23.5t-6 -31.5t-16 -35t-22 -33q-21 8 -25 25.5t2 37t19 37t27 25.5z" />
    <glyph glyph-name="odieresis" unicode="&#xf6;" horiz-adv-x="310"
d="M227 351q-5 -5 -12.5 -7t-14 -1t-10 6t-0.5 15q1 3 3 7.5t5.5 8.5t10 6t15.5 0q16 -3 13.5 -15t-10.5 -20zM285 373q3 7 11.5 10t16 2.5t12 -6t0.5 -15.5q-3 -7 -8.5 -16t-24.5 -6q-12 2 -12 11t5 20zM278 250q19 -11 10.5 -23.5t-27.5 -20.5q13 -10 15 -25.5t-3 -34
t-16 -38.5t-24 -39q17 2 37 15.5t40 34.5l6 -12q-18 -19 -45.5 -38.5t-57.5 -22.5q-24 -24 -53.5 -37.5t-56.5 -14.5t-48.5 11.5t-28.5 40.5q-6 25 -2 49t15 47l-15 -15.5l-18 -19.5l-6 12l33.5 35t40.5 38q21 22 47 39t53.5 25.5t54.5 7.5t49 -14zM67 51q4 -21 15.5 -28.5
t26.5 -5.5t32 12t33 25q-24 12 -27.5 34t5 45.5t25 44t32.5 29.5q-14 11 -40 -0.5t-51 -35.5t-41.5 -56.5t-9.5 -63.5zM219 202q-14 -8 -27 -25.5t-19 -37t-2 -37t25 -25.5q12 15 22 33t16 35t6 31.5t-7 23.5q-6 0 -14 2z" />
    <glyph glyph-name="ograve" unicode="&#xf2;" horiz-adv-x="310"
d="M278 250q-22 13 -49 14t-54.5 -7.5t-53.5 -25.5t-47 -39q-23 -20 -40.5 -38l-33.5 -35l6 -12l18 19.5l15 15.5q-11 -23 -15 -47t2 -49q7 -28 28.5 -40.5t48.5 -11.5t56.5 14.5t53.5 37.5q30 3 57.5 22.5t45.5 38.5l-6 12q-20 -21 -40 -34.5t-37 -15.5q13 19 24 39
t16 38.5t3 34t-15 25.5q19 8 27.5 20.5t-10.5 23.5zM67 51q-7 31 9.5 63.5t41.5 56.5t51 35.5t40 0.5q-16 -9 -32.5 -29.5t-25 -44t-5 -45.5t27.5 -34q-16 -15 -33 -25t-32 -12t-26.5 5.5t-15.5 28.5zM219 202q8 -2 14 -2q7 -9 7 -23.5t-6 -31.5t-16 -35t-22 -33
q-21 8 -25 25.5t2 37t19 37t27 25.5zM212 385q-6 4 -8.5 9.5t2.5 9.5q5 3 13 3t16 -8q6 -5 20.5 -19.5t29.5 -26.5q6 -5 6.5 -9.5t-2.5 -7t-8.5 -2.5t-10.5 5q-12 12 -29 25t-29 21z" />
    <glyph glyph-name="otilde" unicode="&#xf5;" horiz-adv-x="310"
d="M178 344q-8 -7 -13.5 -7t-7.5 4t-1 10t6 11q16 14 37.5 25.5t34.5 8.5q9 -2 13.5 -8.5t7 -14t5 -13.5t8.5 -7q11 -2 27 9t30 28q5 6 10.5 6.5t9 -2.5t3 -9t-7.5 -13q-18 -18 -39.5 -31t-38.5 -8q-8 2 -11.5 8.5t-5.5 13.5t-5 12.5t-9 7.5q-6 1 -13.5 -2.5t-15 -8.5
t-14 -11t-10.5 -9zM278 250q-22 13 -49 14t-54.5 -7.5t-53.5 -25.5t-47 -39q-23 -20 -40.5 -38l-33.5 -35l6 -12l18 19.5l15 15.5q-11 -23 -15 -47t2 -49q7 -28 28.5 -40.5t48.5 -11.5t56.5 14.5t53.5 37.5q30 3 57.5 22.5t45.5 38.5l-6 12q-20 -21 -40 -34.5t-37 -15.5
q13 19 24 39t16 38.5t3 34t-15 25.5q19 8 27.5 20.5t-10.5 23.5zM67 51q-7 31 9.5 63.5t41.5 56.5t51 35.5t40 0.5q-16 -9 -32.5 -29.5t-25 -44t-5 -45.5t27.5 -34q-16 -15 -33 -25t-32 -12t-26.5 5.5t-15.5 28.5zM219 202q8 -2 14 -2q7 -9 7 -23.5t-6 -31.5t-16 -35
t-22 -33q-21 8 -25 25.5t2 37t19 37t27 25.5z" />
    <glyph glyph-name="scaron" unicode="&#x161;" horiz-adv-x="245"
d="M145 392q-2 4 1 8t7.5 5t9 -1t6.5 -8q4 -14 5 -21t2 -15q10 6 22.5 14.5l25 17.5l25.5 17.5t24 13.5q4 2 8 0t5.5 -5.5t0.5 -7t-7 -5.5q-34 -12 -55.5 -30t-44.5 -34q-3 -6 -8.5 -7.5t-10 0t-7 5.5t2.5 8q1 19 -3.5 26.5t-8.5 18.5zM66 -7q29 -2 56.5 7.5t44.5 35.5
q25 17 46.5 35.5t37.5 35.5l-6 12q-31 -31 -65 -53q6 23 4 54.5t-16 73.5q-5 16 -2.5 25t8.5 15t13 12t9 15t-3.5 15.5t-14.5 8.5t-18.5 -1t-16.5 -12q-9 -12 -14 -28l-32 -31.5l-36 -35l-34.5 -33l-26.5 -25.5l6 -12l22 22l30.5 29.5t34.5 30.5t35 26q0 -11 3 -24
q4 -29 -1.5 -62.5t-16 -60.5t-24.5 -43t-26 -10q-3 1 -2 4t3.5 6.5l5.5 8t4 9.5q2 11 -3.5 21.5t-18.5 12.5q-21 4 -32 -11.5t-4 -38.5q4 -13 14.5 -22.5t35.5 -11.5z" />
    <glyph glyph-name="uacute" unicode="&#xfa;" horiz-adv-x="340"
d="M300 401q6 5 13.5 7t12.5 0q6 -2 8 -8t-3 -8l-19.5 -8t-27 -12.5l-30.5 -16.5t-29 -19q-5 -3 -9.5 -2.5t-7 3t-2.5 6t5 6.5q15 9 27 15.5l22 12l19.5 11t20.5 13.5zM20 -1q26 -8 62 4t83 56q-12 -27 -6 -46.5t29 -19t62.5 26t95.5 87.5l-6 12q-32 -36 -60.5 -59.5
t-47.5 -33t-26.5 -5t3.5 24.5q20 38 38.5 62t36.5 44.5l37 42t41 55.5q6 9 4 14.5t-8 7.5t-14 2t-13 -2q-17 -6 -33 -18t-31.5 -28.5t-30.5 -35.5l-30 -38l-48.5 -60.5t-34 -37.5t-25 -20t-19.5 -8q-22 -5 -25.5 3.5t4.5 26t25 40.5l35.5 47l36.5 46t28 36q12 17 9 28
t-14 15.5t-26 1.5t-27 -14q-14 -12 -29.5 -29l-31.5 -35.5l-32.5 -37.5l-31.5 -35l6 -12l30.5 32l25.5 26q-21 -25 -36.5 -52t-22.5 -50.5t-3.5 -40.5t20.5 -23z" />
    <glyph glyph-name="ucircumflex" unicode="&#xfb;" horiz-adv-x="340"
d="M336 354q2 -4 -2 -7.5t-9.5 -5t-10.5 0t-5 8.5q0 12 -0.5 20t-3.5 16q-21 -10 -46 -26.5l-54 -35.5q-8 -5 -12 4.5t7 14.5q30 12 55 30l45 33q-2 3 1 5.5t7.5 3.5t9 0.5t5.5 -4.5q3 -11 5.5 -29.5t7.5 -27.5zM20 -1q26 -8 62 4t83 56q-12 -27 -6 -46.5t29 -19t62.5 26
t95.5 87.5l-6 12q-32 -36 -60.5 -59.5t-47.5 -33t-26.5 -5t3.5 24.5q20 38 38.5 62t36.5 44.5l37 42t41 55.5q6 9 4 14.5t-8 7.5t-14 2t-13 -2q-17 -6 -33 -18t-31.5 -28.5t-30.5 -35.5l-30 -38l-48.5 -60.5t-34 -37.5t-25 -20t-19.5 -8q-22 -5 -25.5 3.5t4.5 26t25 40.5
l35.5 47l36.5 46t28 36q12 17 9 28t-14 15.5t-26 1.5t-27 -14q-14 -12 -29.5 -29l-31.5 -35.5l-32.5 -37.5l-31.5 -35l6 -12l30.5 32l25.5 26q-21 -25 -36.5 -52t-22.5 -50.5t-3.5 -40.5t20.5 -23z" />
    <glyph glyph-name="udieresis" unicode="&#xfc;" horiz-adv-x="340"
d="M243 351q-5 -5 -12.5 -7t-14 -1t-10 6t-0.5 15q1 3 3 7.5t5.5 8.5t10 6t15.5 0q16 -3 13.5 -15t-10.5 -20zM301 373q3 7 11.5 10t16 2.5t12 -6t0.5 -15.5q-3 -7 -8.5 -16t-24.5 -6q-12 2 -12 11t5 20zM20 -1q-17 6 -20.5 23t3.5 40.5t22.5 50.5t36.5 52l-25.5 -26
l-30.5 -32l-6 12l31.5 35l32.5 37.5l31.5 35.5t29.5 29q12 11 27 14t26 -1.5t14 -15.5t-9 -28q-10 -14 -28 -36l-36.5 -46l-35.5 -47t-25 -40.5t-4.5 -26t25.5 -3.5q9 2 19.5 8t25 20t34 37.5l48.5 60.5l30 38t30.5 35.5t31.5 28.5t33 18q5 2 13 2t14 -2t8 -7.5t-4 -14.5
q-22 -34 -41 -55.5l-37 -42t-36.5 -44.5t-38.5 -62q-11 -20 -3.5 -24.5t26.5 5t47.5 33t60.5 59.5l6 -12q-56 -62 -95.5 -87.5t-62.5 -26t-29 19t6 46.5q-47 -44 -83 -56t-62 -4z" />
    <glyph glyph-name="ugrave" unicode="&#xf9;" horiz-adv-x="340"
d="M20 -1q26 -8 62 4t83 56q-12 -27 -6 -46.5t29 -19t62.5 26t95.5 87.5l-6 12q-32 -36 -60.5 -59.5t-47.5 -33t-26.5 -5t3.5 24.5q20 38 38.5 62t36.5 44.5l37 42t41 55.5q6 9 4 14.5t-8 7.5t-14 2t-13 -2q-17 -6 -33 -18t-31.5 -28.5t-30.5 -35.5l-30 -38l-48.5 -60.5
t-34 -37.5t-25 -20t-19.5 -8q-22 -5 -25.5 3.5t4.5 26t25 40.5l35.5 47l36.5 46t28 36q12 17 9 28t-14 15.5t-26 1.5t-27 -14q-14 -12 -29.5 -29l-31.5 -35.5l-32.5 -37.5l-31.5 -35l6 -12l30.5 32l25.5 26q-21 -25 -36.5 -52t-22.5 -50.5t-3.5 -40.5t20.5 -23zM226 385
q-6 4 -8.5 9.5t2.5 9.5q5 3 13 3t16 -8q6 -5 20.5 -19.5t29.5 -26.5q6 -5 6.5 -9.5t-2.5 -7t-8.5 -2.5t-10.5 5q-12 12 -29 25t-29 21z" />
    <glyph glyph-name="yacute" unicode="&#xfd;" horiz-adv-x="339"
d="M300 401q6 5 13.5 7t12.5 0q6 -2 8 -8t-3 -8l-19.5 -8t-27 -12.5l-30.5 -16.5t-29 -19q-5 -3 -9.5 -2.5t-7 3t-2.5 6t5 6.5q15 9 27 15.5l22 12l19.5 11t20.5 13.5zM25 -1q20 -5 47 2.5t57 27.5l-44 -64t-40 -64l-120.5 -69l-116.5 -68t-110 -70t-100 -75
q-58 -49 -75 -84.5t-5.5 -56t47.5 -26t84.5 6t104 40t107.5 75.5q47 43 81 86t62 86t53.5 87l54.5 91q69 44 129.5 89.5t103.5 93.5l-6 12q-44 -48 -96.5 -88.5t-111.5 -77.5l31 45.5t36 47.5q25 31 45.5 53.5l39 43.5t37 44.5t40.5 56.5q6 9 4 14t-8 7.5t-14 2t-13 -1.5
q-19 -4 -36 -16.5t-33 -29.5t-30 -36l-27 -37q-42 -55 -70.5 -85t-54.5 -37q-22 -6 -25.5 2.5t5.5 26t26.5 41l36.5 47.5l37 45.5t27 34.5q14 20 10.5 32.5t-15 16t-27.5 -0.5t-28 -17q-28 -29 -59.5 -65t-65.5 -69l6 -12q18 20 34.5 36t29.5 27q-21 -23 -39 -50.5t-27 -52
t-5.5 -43.5t26.5 -25zM-215 -445q-37 -33 -73 -51t-64.5 -23t-47.5 2t-21.5 25.5t14 47.5t58.5 66q69 62 167.5 123.5l209.5 127.5l-51 -84t-54 -81t-62.5 -78t-75.5 -75z" />
    <glyph glyph-name="ydieresis" unicode="&#xff;" horiz-adv-x="339"
d="M248 351q-5 -5 -12.5 -7t-14 -1t-10 6t-0.5 15q1 3 3 7.5t5.5 8.5t10 6t15.5 0q16 -3 13.5 -15t-10.5 -20zM306 373q3 7 11.5 10t16 2.5t12 -6t0.5 -15.5q-3 -7 -8.5 -16t-24.5 -6q-12 2 -12 11t5 20zM25 -1q-23 6 -26.5 25t5.5 43.5t27 52t39 50.5q-13 -11 -29.5 -27
t-34.5 -36l-6 12q34 33 65.5 69t59.5 65q12 13 28 17t27.5 0.5t15 -16t-10.5 -32.5q-9 -13 -27 -34.5l-37 -45.5l-36.5 -47.5t-26.5 -41t-5.5 -26t25.5 -2.5q26 7 54.5 37t70.5 85l27 37t30 36t33 29.5t36 16.5q5 1 13 1.5t14 -2t8 -7.5t-4 -14q-22 -33 -40.5 -56.5
t-37 -44.5l-39 -43.5t-45.5 -53.5q-20 -25 -36 -47.5l-31 -45.5q59 37 111.5 77.5t96.5 88.5l6 -12q-43 -48 -103.5 -93.5t-129.5 -89.5l-54.5 -91t-53.5 -87t-62 -86t-81 -86q-52 -47 -107.5 -75.5t-104 -40t-84.5 -6t-47.5 26t5.5 56t75 84.5q47 39 100 75t110 70
l116.5 68l120.5 69q19 32 40 64l44 64q-30 -20 -57 -27.5t-47 -2.5zM-215 -445q42 37 75.5 75t62.5 78t54 81l51 84l-209.5 -127.5t-167.5 -123.5q-42 -37 -58.5 -66t-14 -47.5t21.5 -25.5t47.5 -2t64.5 23t73 51z" />
  </font>
</defs>
</svg>
